<svg id="Component_43_1" data-name="Component 43 – 1" xmlns="http://www.w3.org/2000/svg" width="82.847" height="78.77" viewBox="0 0 82.847 78.77">
  <g id="edit" transform="translate(0 0)" opacity="0.5">
    <path id="Path_982" data-name="Path 982" d="M97.71,16.974A16.845,16.845,0,1,1,80.865.129,16.845,16.845,0,0,1,97.71,16.974Zm0,0" transform="translate(-51.862 -0.129)" fill="#6c757d"/>
    <path id="Path_983" data-name="Path 983" d="M382.52,235.044l3.075-3.075,7.13,7.13-3.075,3.076Zm0,0" transform="translate(-309.878 -187.942)" fill="#6c757d"/>
    <path id="Path_984" data-name="Path 984" d="M275.762,276.383,294.145,258l7.13,7.13-18.383,18.383Zm0,0" transform="translate(-223.394 -209.03)" fill="#6c757d"/>
    <path id="Path_985" data-name="Path 985" d="M253.3,376.761l8.944-2.981-5.963-5.964Zm0,0" transform="translate(-205.198 -297.992)" fill="#6c757d"/>
    <path id="Path_986" data-name="Path 986" d="M49.242,257.494l.057-.114c0-.019,0-.019.019-.038a1.028,1.028,0,0,1,.171-.266c0-.018.019-.018.019-.038l.057-.057,5.526-5.526A29.05,29.05,0,0,0,0,262.945H47.438l1.823-5.451Zm0,0" transform="translate(0 -190.575)" fill="#6c757d"/>
  </g>
</svg>
