<svg id="document" xmlns="http://www.w3.org/2000/svg" width="390" height="512" viewBox="0 0 390 512">
  <path id="Path_11051" data-name="Path 11051" d="M78.2,106.268l96.423-91.222A54.785,54.785,0,0,1,212.423,0H396a55.062,55.062,0,0,1,55,55V457a55.062,55.062,0,0,1-55,55H116a55.062,55.062,0,0,1-55-55V146.222a55.225,55.225,0,0,1,17.2-39.954ZM107.339,120H182a5.006,5.006,0,0,0,5-5V44.636ZM116,482H396a25.028,25.028,0,0,0,25-25V55a25.028,25.028,0,0,0-25-25H217v85a35.04,35.04,0,0,1-35,35H91V457A25.028,25.028,0,0,0,116,482Z" transform="translate(-61 0)" fill="#32327F"/>
</svg>
