<svg xmlns="http://www.w3.org/2000/svg" width="129.68" height="102.559" viewBox="0 0 129.68 102.559">
  <g id="Group_181297" data-name="Group 181297" transform="translate(-95.523 -136.686)">
    <path id="Path_99386" data-name="Path 99386" d="M140.469,139.754l2.015,5.871" fill="none" stroke="#d9d9d9" stroke-linecap="square" stroke-width="1.303"/>
    <path id="Path_99387" data-name="Path 99387" d="M160.363,137.337v5.33" fill="none" stroke="#d9d9d9" stroke-linecap="square" stroke-width="1.303"/>
    <path id="Path_99388" data-name="Path 99388" d="M180.883,140l-2.631,4.8" fill="none" stroke="#d9d9d9" stroke-linecap="square" stroke-width="1.303"/>
    <path id="Path_99389" data-name="Path 99389" d="M198.245,149.07l-3.157,4.264" fill="none" stroke="#d9d9d9" stroke-linecap="square" stroke-width="1.303"/>
    <path id="Path_99390" data-name="Path 99390" d="M212.45,163.46l-4.735,3.731" fill="none" stroke="#d9d9d9" stroke-linecap="square" stroke-width="1.303"/>
    <path id="Path_99391" data-name="Path 99391" d="M221.921,181.057l-5.262,2.665" fill="none" stroke="#d9d9d9" stroke-linecap="square" stroke-width="1.303"/>
    <path id="Path_99392" data-name="Path 99392" d="M224.551,201.295H219.29" fill="none" stroke="#d9d9d9" stroke-linecap="square" stroke-width="1.303"/>
    <path id="Path_99393" data-name="Path 99393" d="M220.868,221.016l-4.735-1.6" fill="none" stroke="#d9d9d9" stroke-linecap="square" stroke-width="1.303"/>
    <path id="Path_99394" data-name="Path 99394" d="M213.5,238.593c-.421,0-3.333-2.488-4.736-3.731" fill="none" stroke="#d9d9d9" stroke-linecap="square" stroke-width="1.303"/>
    <path id="Path_99395" data-name="Path 99395" d="M107.224,238.073l4.736-2.665" fill="none" stroke="#d9d9d9" stroke-linecap="square" stroke-width="1.303"/>
    <path id="Path_99396" data-name="Path 99396" d="M98.28,221.024l5.787-2.131" fill="none" stroke="#d9d9d9" stroke-linecap="square" stroke-width="1.303"/>
    <path id="Path_99397" data-name="Path 99397" d="M96.175,201.295h5.787" fill="none" stroke="#d9d9d9" stroke-linecap="square" stroke-width="1.303"/>
    <path id="Path_99398" data-name="Path 99398" d="M98.806,181.582l6.314,1.066" fill="none" stroke="#d9d9d9" stroke-linecap="square" stroke-width="1.303"/>
    <path id="Path_99399" data-name="Path 99399" d="M108.276,163.46l4.735,3.731" fill="none" stroke="#d9d9d9" stroke-linecap="square" stroke-width="1.303"/>
    <path id="Path_99400" data-name="Path 99400" d="M122.482,149.07l3.683,4.8" fill="none" stroke="#d9d9d9" stroke-linecap="square" stroke-width="1.303"/>
  </g>
</svg>
