<svg xmlns="http://www.w3.org/2000/svg" width="156.732" height="102.001" viewBox="0 0 156.732 102.001">
  <g id="Group_4056" data-name="Group 4056" transform="translate(-172.575 -188.235)">
    <g id="Group_4052" data-name="Group 4052" transform="translate(207.443 201.971)">
      <path id="Path_3234" data-name="Path 3234" d="M275.108,227.224,260.836,300.6l-1.868,9.605,95.274-.47c4.276-.021,8.065-3.818,9.441-9.458L380.577,231c1.044-4.282-1.247-8.735-4.493-8.732l-96.428.1C277.526,222.374,275.665,224.36,275.108,227.224Z" transform="translate(-258.968 -222.27)" fill="#cecece"/>
    </g>
    <g id="Group_4053" data-name="Group 4053" transform="translate(207.443 201.971)" opacity="0.5">
      <path id="Path_3235" data-name="Path 3235" d="M275.108,227.224,260.836,300.6l-1.868,9.605,95.274-.47c4.276-.021,8.065-3.818,9.441-9.458L380.577,231c1.044-4.282-1.247-8.735-4.493-8.732l-96.428.1C277.526,222.374,275.665,224.36,275.108,227.224Z" transform="translate(-258.968 -222.27)" fill="#e2e2e2"/>
    </g>
    <g id="Group_4054" data-name="Group 4054" transform="translate(172.575 188.235)">
      <path id="Path_3236" data-name="Path 3236" d="M293.578,275.327,283.49,194.04a6.4,6.4,0,0,0-6.2-5.8l-22.12.072a6.028,6.028,0,0,0-4.369,1.938L240.3,201.41l-61.518.321c-3.76.019-6.648,3.577-6.149,7.573L182,284.435a6.4,6.4,0,0,0,6.191,5.8l107.214-.212c11.941.247,13.081-3.279,13.081-3.279C294.8,289.778,293.579,275.336,293.578,275.327Z" transform="translate(-172.575 -188.235)" fill="#efefef"/>
    </g>
    <g id="Group_4055" data-name="Group 4055" transform="translate(215.883 233.144)" opacity="0.5">
      <path id="Path_3237" data-name="Path 3237" d="M311.345,326.7l-3.616,3.884L279.88,305.526l3.616-3.884Z" transform="translate(-279.88 -300.781)" fill="#cecece"/>
      <path id="Path_3238" data-name="Path 3238" d="M307.891,299.509l4,3.6-25.2,27.064-4-3.6Z" transform="translate(-281.558 -299.509)" fill="#cecece"/>
    </g>
  </g>
</svg>
