<?xml version="1.0" encoding="utf-8"?>
<!-- Generator: Adobe Illustrator 26.3.1, SVG Export Plug-In . SVG Version: 6.00 Build 0)  -->
<svg version="1.1" id="Layer_1" xmlns="http://www.w3.org/2000/svg" xmlns:xlink="http://www.w3.org/1999/xlink" x="0px" y="0px"
	 viewBox="0 0 231.5 104.2" style="enable-background:new 0 0 231.5 104.2;" xml:space="preserve">
<style type="text/css">
	.st0{fill:#2D3079;}
	.st1{fill:#F7991C;}
	.st2{fill:#6CA042;}
	.st3{enable-background:new    ;}
</style>
<g>
	<path id="Path_105968" class="st0" d="M10.9,75.3V32.2H1.4v53.2h31.8v-10H10.9z"/>
	<rect id="Rectangle_9366" x="24.1" y="54" class="st1" width="9.1" height="19.4"/>
	<path id="Path_105969" class="st2" d="M33.3,32.2H12.9v41.2h9.3V52.1h11.1L33.3,32.2z"/>
	<path id="Path_105970" class="st0" d="M10.9,18.8v13.4h2V20.8h32.3v52.5h-12v2h14V18.8H10.9z"/>
	<g id="Group_18289" transform="translate(24.993 20.493)">
		<g id="Group_18288">
			<path id="Path_105971" class="st0" d="M39.6,57.4h-3v7.3h-5.9V43.1h8.9c5.3,0,8,3,8,7.2C47.6,54,45,57.4,39.6,57.4z M39,52.6
				c1.8,0,2.5-0.9,2.5-2.3s-0.7-2.3-2.5-2.3h-2.4v4.7L39,52.6z"/>
			<path id="Path_105972" class="st0" d="M58.1,64.8c-4.8,0-8.5-2.3-8.7-6.9h6.4c-0.1,1.1,0.8,2.1,1.9,2.2c0.1,0,0.2,0,0.2,0
				c1.1,0,1.9-0.5,1.9-1.5c-0.1-3.5-10.4-1.8-10.3-9.3c0-4.2,3.5-6.5,8-6.5c4.9,0,8.2,2.4,8.4,6.7h-6.5c0.1-1-0.7-1.9-1.8-2
				c-0.1,0-0.1,0-0.2,0c-0.8-0.1-1.5,0.4-1.6,1.2c0,0.1,0,0.2,0,0.3c0,3.2,10.3,2.2,10.3,9.1C66.1,61.9,63.2,64.8,58.1,64.8z"/>
			<path id="Path_105973" class="st0" d="M79.5,64.6H68.9V43.1h10.3c4.4,0,7,2,7,5.6c0.1,2.3-1.4,4.3-3.6,4.9
				c2.4,0.5,4.1,2.7,4.1,5.2C86.7,62.4,84.1,64.6,79.5,64.6z M77.8,47.9h-3v3.8h3c1.4,0,2.2-0.6,2.2-1.9
				C80.1,48.5,79.3,47.9,77.8,47.9z M78.3,55.9h-3.5v3.9h3.5c1.5,0,2.2-0.6,2.2-1.9C80.6,56.6,79.7,55.9,78.3,55.9L78.3,55.9z"/>
			<path id="Path_105974" class="st0" d="M101,43.1V60h6.6v4.6H95V43.1H101z"/>
			<path id="Path_105975" class="st0" d="M120.3,64.8c-6-0.1-10.7-5-10.7-11c0.1-6,5-10.7,11-10.7c6,0.1,10.7,5,10.7,11
				c0,2.8-1.2,5.5-3.1,7.5C126.1,63.7,123.2,64.9,120.3,64.8z M120.3,59.3c3,0.3,5.8-1.9,6.1-4.9c0.3-3-1.9-5.8-4.9-6.1
				c-3-0.3-5.8,1.9-6.1,4.9c0,0.2,0,0.4,0,0.6c-0.3,2.7,1.6,5.1,4.2,5.4C119.8,59.3,120.1,59.3,120.3,59.3z"/>
			<path id="Path_105976" class="st0" d="M147.5,61.1h-7.6l-1.2,3.5h-6.3l7.8-21.5h6.8l7.8,21.5h-6.3L147.5,61.1z M143.7,49.6
				l-2.3,6.9h4.6L143.7,49.6z"/>
			<path id="Path_105977" class="st0" d="M176.7,43.1v21.5h-5.9l-8-12v12h-5.9V43.1h5.9l8,12.2V43.1H176.7z"/>
			<path id="Path_105978" class="st0" d="M188.2,64.8c-4.8,0-8.5-2.3-8.7-6.9h6.4c-0.1,1.1,0.8,2.1,1.9,2.2c0.1,0,0.2,0,0.2,0
				c1.1,0,1.9-0.5,1.9-1.5c-0.1-3.5-10.4-1.8-10.3-9.3c0-4.2,3.5-6.5,8-6.5c4.9,0,8.2,2.4,8.4,6.7h-6.5c0.1-1-0.7-1.9-1.8-2
				c-0.1,0-0.1,0-0.2,0c-0.8-0.1-1.5,0.4-1.6,1.2c0,0.1,0,0.2,0,0.3c0,3.2,10.3,2.2,10.3,9.1C196.2,61.9,193.3,64.8,188.2,64.8z"/>
		</g>
	</g>
	<g id="Group_18290" transform="translate(25.016 8.363)">
		<path id="Path_105979" class="st0" d="M37.8,42.9c-3.9,0.1-7-3-7.1-6.9c0-0.1,0-0.2,0-0.3c0-3.9,3.2-7.1,7.1-7.1s7.1,3.2,7.1,7.1
			c0.1,3.8-2.9,7-6.8,7.2C38,42.9,37.9,42.9,37.8,42.9z M37.8,40.9c2.8,0.2,5.3-1.9,5.5-4.8c0.2-2.8-1.9-5.3-4.8-5.5
			c-2.8-0.2-5.3,1.9-5.5,4.8c0,0.1,0,0.3,0,0.4c-0.3,2.6,1.6,4.9,4.2,5.1C37.4,40.9,37.6,40.9,37.8,40.9z"/>
		<path id="Path_105980" class="st0" d="M58.7,28.8v14h-2.3l-6.9-10.4v10.4h-2.3v-14h2.3l6.9,10.4V28.8H58.7z"/>
		<path id="Path_105981" class="st0" d="M64,28.8v12.1h4.7v1.9h-7v-14H64z"/>
		<path id="Path_105982" class="st0" d="M70.5,28.8h2.3v14h-2.3V28.8z"/>
		<path id="Path_105983" class="st0" d="M87.4,28.8v14h-2.3l-6.9-10.4v10.4h-2.3v-14h2.3l6.9,10.4V28.8H87.4z"/>
		<path id="Path_105984" class="st0" d="M98.1,30.6h-5.5v4.1h4.8v1.9h-4.8v4.3H98v1.9h-7.7v-14H98L98.1,30.6L98.1,30.6z"/>
	</g>
	<g>
		<g id="Ellipse_15" transform="translate(1060 30)">
			<g>
				<path class="st0" d="M-834.2,33.5c-2.3,0-4.2-1.9-4.2-4.2s1.9-4.2,4.2-4.2s4.2,1.9,4.2,4.2S-831.9,33.5-834.2,33.5z
					 M-834.2,25.7c-2,0-3.6,1.6-3.6,3.6s1.6,3.6,3.6,3.6s3.6-1.6,3.6-3.6S-832.2,25.7-834.2,25.7z"/>
			</g>
		</g>
		<g class="st3">
			<path class="st0" d="M225.8,59.9h-0.7v1.6h-0.9v-4.4h1.6c0.5,0,0.9,0.1,1.2,0.3c0.3,0.2,0.4,0.6,0.4,1c0,0.3-0.1,0.6-0.2,0.8
				c-0.1,0.2-0.3,0.4-0.6,0.5l1,1.8v0h-1L225.8,59.9z M225.1,59.2h0.7c0.2,0,0.4-0.1,0.5-0.2c0.1-0.1,0.2-0.3,0.2-0.5
				c0-0.2-0.1-0.4-0.2-0.5c-0.1-0.1-0.3-0.2-0.5-0.2h-0.7V59.2z"/>
		</g>
	</g>
</g>
</svg>
