<?xml version="1.0" encoding="utf-8"?>
<!-- Generator: Adobe Illustrator 26.3.1, SVG Export Plug-In . SVG Version: 6.00 Build 0)  -->
<svg version="1.1" id="Layer_1" xmlns="http://www.w3.org/2000/svg" xmlns:xlink="http://www.w3.org/1999/xlink" x="0px" y="0px"
	 viewBox="0 0 230.9 66.5" style="enable-background:new 0 0 230.9 66.5;" xml:space="preserve">
<style type="text/css">
	.st0{fill:#FFFFFF;}
	.st1{fill:#F79A20;}
	.st2{fill:#6DA041;}
</style>
<g>
	<path id="Path_105968" class="st0" d="M9.5,56.5V13.3H0v53.2h31.8v-10H9.5z"/>
	<rect id="Rectangle_9366" x="22.7" y="35.1" class="st1" width="9.1" height="19.4"/>
	<path id="Path_105969" class="st2" d="M31.8,13.3H11.5v41.2h9.3V33.2h11.1L31.8,13.3z"/>
	<path id="Path_105970" class="st0" d="M9.5,0v13.4h2V2h32.3v52.5h-12v2h14V0H9.5z"/>
	<path id="Path_105971" class="st0" d="M63.1,59h-3v7.3h-5.9V44.7h8.9c5.3,0,8,3,8,7.2C71.2,55.7,68.6,59,63.1,59z M62.6,54.2
		c1.8,0,2.5-0.9,2.5-2.3s-0.7-2.3-2.5-2.3h-2.4v4.7L62.6,54.2z"/>
	<path id="Path_105972" class="st0" d="M81.7,66.5c-4.8,0-8.5-2.3-8.7-6.9h6.4c-0.1,1.1,0.8,2.1,1.9,2.2c0.1,0,0.2,0,0.2,0
		c1.1,0,1.9-0.5,1.9-1.5C83.3,56.8,73,58.5,73.1,51c0-4.2,3.5-6.5,8-6.5c4.9,0,8.2,2.4,8.4,6.7H83c0.1-1-0.7-1.9-1.8-2
		c-0.1,0-0.1,0-0.2,0c-0.8-0.1-1.5,0.4-1.6,1.2c0,0.1,0,0.2,0,0.3c0,3.2,10.3,2.2,10.3,9.1C89.7,63.5,86.8,66.5,81.7,66.5z"/>
	<path id="Path_105973" class="st0" d="M103.1,66.3H92.4V44.7h10.3c4.4,0,7,2,7,5.6c0.1,2.3-1.4,4.3-3.6,4.9
		c2.4,0.5,4.1,2.7,4.1,5.2C110.2,64,107.6,66.3,103.1,66.3z M101.4,49.5h-3v3.8h3c1.4,0,2.2-0.6,2.2-1.9S102.8,49.5,101.4,49.5z
		 M101.8,57.5h-3.5v3.9h3.5c1.5,0,2.2-0.6,2.2-1.9C104.1,58.2,103.3,57.5,101.8,57.5L101.8,57.5z"/>
	<path id="Path_105974" class="st0" d="M124.6,44.7v16.9h6.6v4.6h-12.6V44.7H124.6z"/>
	<path id="Path_105975" class="st0" d="M143.9,66.5c-6-0.1-10.7-5-10.7-11s5-10.7,11-10.7c6,0.1,10.7,5,10.7,11
		c0,2.8-1.2,5.5-3.1,7.5C149.6,65.4,146.8,66.5,143.9,66.5z M143.9,60.9c3,0.3,5.8-1.9,6.1-4.9s-1.9-5.8-4.9-6.1s-5.8,1.9-6.1,4.9
		c0,0.2,0,0.4,0,0.6c-0.3,2.7,1.6,5.1,4.2,5.4C143.4,60.9,143.6,60.9,143.9,60.9z"/>
	<path id="Path_105976" class="st0" d="M171,62.7h-7.6l-1.2,3.5H156l7.8-21.5h6.8l7.8,21.5h-6.3L171,62.7z M167.3,51.2l-2.3,6.9h4.6
		L167.3,51.2z"/>
	<path id="Path_105977" class="st0" d="M200.3,44.7v21.5h-5.9l-8-12v12h-5.9V44.7h5.9l8,12.2V44.7H200.3z"/>
	<path id="Path_105978" class="st0" d="M211.8,66.5c-4.8,0-8.5-2.3-8.7-6.9h6.4c-0.1,1.1,0.8,2.1,1.9,2.2c0.1,0,0.2,0,0.2,0
		c1.1,0,1.9-0.5,1.9-1.5c-0.1-3.5-10.4-1.8-10.3-9.3c0-4.2,3.5-6.5,8-6.5c4.9,0,8.2,2.4,8.4,6.7h-6.5c0.1-1-0.7-1.9-1.8-2
		c-0.1,0-0.1,0-0.2,0c-0.8-0.1-1.5,0.4-1.6,1.2c0,0.1,0,0.2,0,0.3c0,3.2,10.3,2.2,10.3,9.1C219.8,63.5,216.9,66.5,211.8,66.5z"/>
	<path id="Path_105979" class="st0" d="M61.4,32.4c-3.9,0.1-7-3-7.1-6.9c0-0.1,0-0.2,0-0.3c0-3.9,3.2-7.1,7.1-7.1s7.1,3.2,7.1,7.1
		c0.1,3.8-2.9,7-6.8,7.2C61.6,32.4,61.5,32.4,61.4,32.4z M61.4,30.4c2.8,0.2,5.3-1.9,5.5-4.8c0.2-2.8-1.9-5.3-4.8-5.5
		c-2.8-0.2-5.3,1.9-5.5,4.8c0,0.1,0,0.3,0,0.4c-0.3,2.6,1.6,4.9,4.2,5.1C61,30.4,61.2,30.4,61.4,30.4z"/>
	<path id="Path_105980" class="st0" d="M82.3,18.3v14H80l-6.9-10.4v10.4h-2.3v-14h2.3L80,28.7V18.3H82.3z"/>
	<path id="Path_105981" class="st0" d="M87.6,18.3v12.1h4.7v1.9h-7v-14H87.6z"/>
	<path id="Path_105982" class="st0" d="M94.1,18.3h2.3v14h-2.3V18.3z"/>
	<path id="Path_105983" class="st0" d="M111,18.3v14h-2.3l-6.9-10.4v10.4h-2.3v-14h2.3l6.9,10.4V18.3H111z"/>
	<path id="Path_105984" class="st0" d="M121.7,20.2h-5.5v4.1h4.8v1.9h-4.8v4.3h5.4v1.9h-7.7v-14h7.7L121.7,20.2L121.7,20.2z"/>
	<path class="st0" d="M225.6,44.7c-2.9,0-5.4-2.4-5.4-5.4s2.4-5.4,5.4-5.4s5.4,2.4,5.4,5.4S228.5,44.7,225.6,44.7z M225.6,34.8
		c-2.5,0-4.6,2-4.6,4.6c0,2.5,2,4.6,4.6,4.6c2.5,0,4.6-2,4.6-4.6C230.1,36.8,228.1,34.8,225.6,34.8z"/>
	<path class="st0" d="M225.6,40.1h-0.9v2h-1.1v-5.6h2c0.6,0,1.1,0.1,1.5,0.4s0.5,0.8,0.5,1.3c0,0.4-0.1,0.8-0.3,1s-0.4,0.5-0.8,0.6
		l1.3,2.3l0,0h-1.3L225.6,40.1z M224.7,39.1h0.9c0.3,0,0.5-0.1,0.6-0.3c0.1-0.1,0.3-0.4,0.3-0.6s-0.1-0.5-0.3-0.6
		c-0.1-0.1-0.4-0.3-0.6-0.3h-0.9V39.1z"/>
</g>
</svg>
