<svg xmlns="http://www.w3.org/2000/svg" width="168.275" height="23.539" viewBox="0 0 168.275 23.539">
  <g id="PSb59_Logo_-_Dark_Background" data-name="PSb59 Logo - Dark Background" transform="translate(-862.691 -35.154)">
    <g id="psblogowithheader" transform="translate(862.691 35.154)">
      <g id="Group_1" data-name="Group 1" transform="translate(24.713 7.964)">
        <path id="Path_87" data-name="Path 87" d="M206.787,107.325a1.824,1.824,0,0,1-1.507-.694H205.2q.079.688.079.786v2.2H203.8V101.8h1.205l.21.707h.066a1.722,1.722,0,0,1,1.546-.812,1.765,1.765,0,0,1,1.507.747,3.411,3.411,0,0,1,.55,2.07,4.035,4.035,0,0,1-.249,1.507,2.168,2.168,0,0,1-.721.983A2.1,2.1,0,0,1,206.787,107.325Zm-.445-4.454a.94.94,0,0,0-.8.341,1.88,1.88,0,0,0-.262,1.114v.157a2.336,2.336,0,0,0,.262,1.258.9.9,0,0,0,.825.38c.668,0,1-.55,1-1.638a2.3,2.3,0,0,0-.249-1.205A.82.82,0,0,0,206.341,102.871Z" transform="translate(-203.8 -99.662)" fill="#fff"/>
        <path id="Path_88" data-name="Path 88" d="M253.513,105.443a1.5,1.5,0,0,1-.576,1.271,2.893,2.893,0,0,1-1.742.432,5.53,5.53,0,0,1-1.009-.079,3.9,3.9,0,0,1-.786-.236V105.6a5.515,5.515,0,0,0,.93.327,3.586,3.586,0,0,0,.917.131c.537,0,.812-.157.812-.472a.431.431,0,0,0-.1-.288,1.339,1.339,0,0,0-.367-.249c-.17-.092-.406-.2-.694-.328a4.346,4.346,0,0,1-.917-.485,1.331,1.331,0,0,1-.432-.511,1.665,1.665,0,0,1-.131-.707,1.3,1.3,0,0,1,.563-1.127,2.77,2.77,0,0,1,1.6-.393,4.477,4.477,0,0,1,1.913.432l-.445,1.074c-.275-.118-.524-.21-.76-.288a2.244,2.244,0,0,0-.721-.118c-.432,0-.655.118-.655.354a.393.393,0,0,0,.21.341,6.756,6.756,0,0,0,.93.432,3.947,3.947,0,0,1,.93.485,1.331,1.331,0,0,1,.432.511A2.449,2.449,0,0,1,253.513,105.443Z" transform="translate(-243.426 -99.496)" fill="#fff"/>
        <path id="Path_89" data-name="Path 89" d="M292.726,88.231a1.765,1.765,0,0,1,1.507.747,3.422,3.422,0,0,1,.55,2.057,3.314,3.314,0,0,1-.563,2.083,1.8,1.8,0,0,1-1.533.734,1.824,1.824,0,0,1-1.507-.694h-.1l-.249.6H289.7V86.2h1.48v1.755c0,.223-.013.576-.052,1.074h.052A1.711,1.711,0,0,1,292.726,88.231Zm-.485,1.179a.94.94,0,0,0-.8.341,1.88,1.88,0,0,0-.262,1.114v.157a2.336,2.336,0,0,0,.262,1.258.9.9,0,0,0,.825.38.819.819,0,0,0,.721-.419,2.237,2.237,0,0,0,.275-1.218,2.188,2.188,0,0,0-.275-1.205A.849.849,0,0,0,292.241,89.41Z" transform="translate(-278.447 -86.2)" fill="#fff"/>
        <path id="Path_90" data-name="Path 90" d="M339.28,93.759H337.8V86.2h1.48Z" transform="translate(-320.246 -86.2)" fill="#fff"/>
        <path id="Path_91" data-name="Path 91" d="M363.849,104.5a2.928,2.928,0,0,1-.694,2.07,2.527,2.527,0,0,1-1.952.747,2.751,2.751,0,0,1-1.376-.341,2.227,2.227,0,0,1-.917-.982,3.382,3.382,0,0,1-.314-1.493,2.927,2.927,0,0,1,.694-2.07,2.52,2.52,0,0,1,1.952-.734,2.751,2.751,0,0,1,1.376.341,2.227,2.227,0,0,1,.917.983A3.385,3.385,0,0,1,363.849,104.5Zm-3.76,0a2.338,2.338,0,0,0,.262,1.218.94.94,0,0,0,.865.419.91.91,0,0,0,.852-.406,2.338,2.338,0,0,0,.262-1.218,2.254,2.254,0,0,0-.262-1.205.96.96,0,0,0-.865-.406.909.909,0,0,0-.851.406A2.234,2.234,0,0,0,360.089,104.5Z" transform="translate(-338.317 -99.667)" fill="#fff"/>
        <path id="Path_92" data-name="Path 92" d="M409.112,107.312l-.288-.734h-.039a2.174,2.174,0,0,1-.773.655,2.525,2.525,0,0,1-1.035.183,1.654,1.654,0,0,1-1.231-.445,1.708,1.708,0,0,1-.445-1.271,1.4,1.4,0,0,1,.6-1.271,3.723,3.723,0,0,1,1.821-.459l.943-.026v-.236a.743.743,0,0,0-.852-.825,3.851,3.851,0,0,0-1.533.393l-.485-1a4.436,4.436,0,0,1,2.083-.485,2.609,2.609,0,0,1,1.677.472,1.75,1.75,0,0,1,.59,1.454v3.616h-1.035Zm-.445-2.515-.576.013a1.791,1.791,0,0,0-.956.236.731.731,0,0,0-.315.655c0,.419.236.629.721.629a1.162,1.162,0,0,0,.825-.3,1.026,1.026,0,0,0,.314-.786V104.8Z" transform="translate(-378.903 -99.753)" fill="#fff"/>
        <path id="Path_93" data-name="Path 93" d="M458.917,107.312h-1.48v-3.17a1.472,1.472,0,0,0-.21-.878.77.77,0,0,0-.668-.288,1.01,1.01,0,0,0-.9.419,2.577,2.577,0,0,0-.275,1.376v2.555H453.9v-5.437h1.127l.2.694h.079a1.572,1.572,0,0,1,.681-.59,2.369,2.369,0,0,1,1-.2,1.915,1.915,0,0,1,1.441.511,2.058,2.058,0,0,1,.485,1.48v3.524Z" transform="translate(-421.137 -99.753)" fill="#fff"/>
        <path id="Path_94" data-name="Path 94" d="M505.513,105.443a1.5,1.5,0,0,1-.576,1.271,2.893,2.893,0,0,1-1.742.432,5.531,5.531,0,0,1-1.009-.079,3.9,3.9,0,0,1-.786-.236V105.6a5.513,5.513,0,0,0,.93.327,3.586,3.586,0,0,0,.917.131c.537,0,.812-.157.812-.472a.431.431,0,0,0-.1-.288,1.338,1.338,0,0,0-.367-.249c-.17-.092-.406-.2-.694-.328a4.345,4.345,0,0,1-.917-.485,1.331,1.331,0,0,1-.432-.511,1.666,1.666,0,0,1-.131-.707,1.3,1.3,0,0,1,.563-1.127,2.77,2.77,0,0,1,1.6-.393,4.476,4.476,0,0,1,1.913.432l-.445,1.074c-.275-.118-.524-.21-.76-.288a2.244,2.244,0,0,0-.721-.118c-.432,0-.655.118-.655.354a.393.393,0,0,0,.21.341,6.756,6.756,0,0,0,.93.432,3.947,3.947,0,0,1,.93.485,1.33,1.33,0,0,1,.432.511A2.449,2.449,0,0,1,505.513,105.443Z" transform="translate(-462.414 -99.496)" fill="#fff"/>
        <path id="Path_95" data-name="Path 95" d="M541.2,86.92c0-.485.275-.721.812-.721s.812.236.812.721a.712.712,0,0,1-.2.537.835.835,0,0,1-.6.2C541.462,87.654,541.2,87.405,541.2,86.92Zm1.546,6.838h-1.48V88.322h1.48Z" transform="translate(-497 -86.2)" fill="#fff"/>
        <path id="Path_96" data-name="Path 96" d="M569.817,107.312h-1.48v-3.17a1.472,1.472,0,0,0-.21-.878.77.77,0,0,0-.668-.288,1.01,1.01,0,0,0-.9.419,2.576,2.576,0,0,0-.275,1.376v2.555H564.8v-5.437h1.127l.2.694h.079a1.571,1.571,0,0,1,.681-.59,2.369,2.369,0,0,1,1-.2,1.915,1.915,0,0,1,1.441.511,2.058,2.058,0,0,1,.485,1.48v3.524Z" transform="translate(-517.508 -99.753)" fill="#fff"/>
      </g>
      <g id="Group_2" data-name="Group 2" transform="translate(80.076 3.275)">
        <path id="Path_97" data-name="Path 97" d="M645.446,54.491a4.47,4.47,0,0,1,2.253.576,4.115,4.115,0,0,1,1.572,1.638,5.085,5.085,0,0,1,.563,2.45,4.724,4.724,0,0,1-1.467,3.734,6.455,6.455,0,0,1-4.428,1.3,9.4,9.4,0,0,1-4.14-.786V60.19a10.322,10.322,0,0,0,1.952.655,8.4,8.4,0,0,0,1.873.262,2.716,2.716,0,0,0,1.677-.459,1.614,1.614,0,0,0,.59-1.362,1.572,1.572,0,0,0-.59-1.3,2.868,2.868,0,0,0-1.808-.472,6.69,6.69,0,0,0-1.991.341l-1.441-.707.55-7.65h8.253v3.262h-4.939l-.183,1.913a6.29,6.29,0,0,1,1.1-.157A4.952,4.952,0,0,1,645.446,54.491Z" transform="translate(-639.8 -49.356)" fill="#f90"/>
        <path id="Path_98" data-name="Path 98" d="M738.3,55.173q0,4.244-1.834,6.157c-1.218,1.271-3.183,1.9-5.869,1.9a15.115,15.115,0,0,1-2.017-.1v-3.1a9.361,9.361,0,0,0,1.7.157,5.256,5.256,0,0,0,3.236-.865,3.47,3.47,0,0,0,1.244-2.738h-.118a3.769,3.769,0,0,1-.76,1.035,2.556,2.556,0,0,1-.917.485,4.485,4.485,0,0,1-1.362.17,3.648,3.648,0,0,1-2.947-1.258,5.211,5.211,0,0,1-1.061-3.472,5.058,5.058,0,0,1,1.375-3.773,5.133,5.133,0,0,1,3.76-1.362,5.031,5.031,0,0,1,4.113,1.769A7.647,7.647,0,0,1,738.3,55.173Zm-5.463-3.655a1.319,1.319,0,0,0-1.048.472,2.312,2.312,0,0,0-.406,1.493,2.269,2.269,0,0,0,.341,1.3,1.251,1.251,0,0,0,1.061.485,1.572,1.572,0,0,0,1.127-.472,1.524,1.524,0,0,0,.472-1.127,2.568,2.568,0,0,0-.445-1.52A1.292,1.292,0,0,0,732.84,51.518Z" transform="translate(-716.098 -48.4)" fill="#f90"/>
      </g>
      <g id="Group_3" data-name="Group 3" transform="translate(104.871 8.001)">
        <path id="Path_99" data-name="Path 99" d="M844.96,107.224h-1.48v-3.17a1.582,1.582,0,0,0-.2-.878.688.688,0,0,0-.616-.288.9.9,0,0,0-.825.419,2.732,2.732,0,0,0-.262,1.376v2.555H840.1V101.8h1.127l.2.694h.079a1.522,1.522,0,0,1,.629-.59,2,2,0,0,1,.943-.21,1.7,1.7,0,0,1,1.651.8h.131a1.558,1.558,0,0,1,.642-.59,2.1,2.1,0,0,1,.956-.21,1.909,1.909,0,0,1,1.4.472,2.091,2.091,0,0,1,.472,1.52v3.55h-1.493v-3.17a1.583,1.583,0,0,0-.2-.878.688.688,0,0,0-.616-.288.917.917,0,0,0-.812.393,2.167,2.167,0,0,0-.275,1.231v2.7Z" transform="translate(-840.1 -99.665)" fill="#fff"/>
        <path id="Path_100" data-name="Path 100" d="M914.2,86.92c0-.485.275-.721.812-.721s.812.236.812.721a.712.712,0,0,1-.2.537.835.835,0,0,1-.6.2C914.475,87.654,914.2,87.405,914.2,86.92Zm1.546,6.838h-1.48V88.322h1.48Z" transform="translate(-904.493 -86.2)" fill="#fff"/>
        <path id="Path_101" data-name="Path 101" d="M942.917,107.312h-1.48v-3.17a1.472,1.472,0,0,0-.209-.878.771.771,0,0,0-.668-.288,1.009,1.009,0,0,0-.9.419,2.576,2.576,0,0,0-.275,1.376v2.555H937.9v-5.437h1.127l.2.694h.079a1.572,1.572,0,0,1,.681-.59,2.368,2.368,0,0,1,1-.2,1.915,1.915,0,0,1,1.441.511,2.058,2.058,0,0,1,.485,1.48v3.524Z" transform="translate(-925.088 -99.753)" fill="#fff"/>
        <path id="Path_102" data-name="Path 102" d="M991.478,107.75l-.2-.694H991.2a1.589,1.589,0,0,1-.681.59,2.26,2.26,0,0,1-1,.21,1.9,1.9,0,0,1-1.441-.511,2.058,2.058,0,0,1-.485-1.48v-3.55h1.493v3.17a1.472,1.472,0,0,0,.21.878.77.77,0,0,0,.668.288,1.009,1.009,0,0,0,.9-.419,2.576,2.576,0,0,0,.275-1.376V102.3h1.48v5.437h-1.153Z" transform="translate(-968.278 -100.191)" fill="#fff"/>
        <path id="Path_103" data-name="Path 103" d="M1036.443,99.015a2.991,2.991,0,0,0,.93-.17v1.1a3.247,3.247,0,0,1-1.363.249,1.674,1.674,0,0,1-1.3-.445,1.934,1.934,0,0,1-.406-1.349v-2.62h-.708v-.629l.812-.5.432-1.153h.943v1.153h1.52v1.114h-1.52v2.62a.6.6,0,0,0,.183.472A.627.627,0,0,0,1036.443,99.015Z" transform="translate(-1008.251 -92.544)" fill="#fff"/>
        <path id="Path_104" data-name="Path 104" d="M1071.091,107.333a2.813,2.813,0,0,1-2.057-.721,2.727,2.727,0,0,1-.734-2.057,2.983,2.983,0,0,1,.681-2.109,2.447,2.447,0,0,1,4.323,1.716v.721h-3.511a1.4,1.4,0,0,0,.38.982,1.328,1.328,0,0,0,.983.354,4.216,4.216,0,0,0,.93-.1,4.084,4.084,0,0,0,.917-.328v1.153a3.627,3.627,0,0,1-.825.288A5.093,5.093,0,0,1,1071.091,107.333Zm-.21-4.585a.929.929,0,0,0-.734.3,1.444,1.444,0,0,0-.3.852h2.083a1.215,1.215,0,0,0-.288-.852A1.006,1.006,0,0,0,1070.881,102.748Z" transform="translate(-1038.406 -99.669)" fill="#fff"/>
        <path id="Path_105" data-name="Path 105" d="M1117.314,105.443a1.5,1.5,0,0,1-.576,1.271,2.894,2.894,0,0,1-1.742.432,5.532,5.532,0,0,1-1.009-.079,3.9,3.9,0,0,1-.786-.236V105.6a5.513,5.513,0,0,0,.93.327,3.583,3.583,0,0,0,.917.131c.537,0,.812-.157.812-.472a.431.431,0,0,0-.1-.288,1.339,1.339,0,0,0-.367-.249c-.17-.092-.406-.2-.694-.328a4.343,4.343,0,0,1-.917-.485,1.33,1.33,0,0,1-.432-.511,1.661,1.661,0,0,1-.131-.707,1.3,1.3,0,0,1,.563-1.127,2.77,2.77,0,0,1,1.6-.393,4.477,4.477,0,0,1,1.913.432l-.445,1.074c-.275-.118-.524-.21-.76-.288a2.245,2.245,0,0,0-.721-.118c-.432,0-.655.118-.655.354a.392.392,0,0,0,.21.341,6.739,6.739,0,0,0,.93.432,3.948,3.948,0,0,1,.93.485,1.331,1.331,0,0,1,.432.511A1.743,1.743,0,0,1,1117.314,105.443Z" transform="translate(-1077.424 -99.496)" fill="#fff"/>
        <path id="Path_106" data-name="Path 106" d="M1151.89,133.112a.823.823,0,0,1,.223-.616,1.068,1.068,0,0,1,1.271,0,.823.823,0,0,1,.223.616.811.811,0,0,1-.223.6,1,1,0,0,1-1.258,0A.818.818,0,0,1,1151.89,133.112Z" transform="translate(-1111.043 -126.247)" fill="#fff"/>
        <path id="Path_107" data-name="Path 107" d="M1175.142,107.241c-1.69,0-2.541-.93-2.541-2.79a3,3,0,0,1,.694-2.122,2.543,2.543,0,0,1,1.978-.734,3.724,3.724,0,0,1,1.69.367l-.432,1.153c-.236-.092-.445-.17-.655-.236a1.924,1.924,0,0,0-.6-.092c-.773,0-1.153.55-1.153,1.638,0,1.061.38,1.6,1.153,1.6a2.475,2.475,0,0,0,.786-.118,3.136,3.136,0,0,0,.734-.354v1.271a2.159,2.159,0,0,1-.72.314A4.347,4.347,0,0,1,1175.142,107.241Z" transform="translate(-1129.042 -99.577)" fill="#fff"/>
        <path id="Path_108" data-name="Path 108" d="M1217.049,104.5a2.927,2.927,0,0,1-.695,2.07,2.527,2.527,0,0,1-1.952.747,2.75,2.75,0,0,1-1.375-.341,2.228,2.228,0,0,1-.917-.983,3.379,3.379,0,0,1-.314-1.493,2.928,2.928,0,0,1,.694-2.07,2.52,2.52,0,0,1,1.952-.734,2.752,2.752,0,0,1,1.376.341,2.227,2.227,0,0,1,.917.983A3.211,3.211,0,0,1,1217.049,104.5Zm-3.76,0a2.339,2.339,0,0,0,.262,1.218.94.94,0,0,0,.865.419.91.91,0,0,0,.852-.406,2.34,2.34,0,0,0,.262-1.218,2.255,2.255,0,0,0-.262-1.205.96.96,0,0,0-.865-.406.91.91,0,0,0-.852.406A2.235,2.235,0,0,0,1213.289,104.5Z" transform="translate(-1163.102 -99.667)" fill="#fff"/>
        <path id="Path_109" data-name="Path 109" d="M1266.16,107.224h-1.481v-3.17a1.583,1.583,0,0,0-.2-.878.688.688,0,0,0-.616-.288.9.9,0,0,0-.825.419,2.73,2.73,0,0,0-.262,1.376v2.555h-1.48V101.8h1.127l.2.694h.078a1.523,1.523,0,0,1,.629-.59,2,2,0,0,1,.943-.21,1.7,1.7,0,0,1,1.651.8h.131a1.56,1.56,0,0,1,.642-.59,2.1,2.1,0,0,1,.956-.21,1.909,1.909,0,0,1,1.4.472,2.091,2.091,0,0,1,.472,1.52v3.55h-1.494v-3.17a1.581,1.581,0,0,0-.2-.878.687.687,0,0,0-.615-.288.917.917,0,0,0-.812.393,2.166,2.166,0,0,0-.275,1.231v2.7Z" transform="translate(-1206.123 -99.665)" fill="#fff"/>
      </g>
      <g id="Mask_Group_6" data-name="Mask Group 6" transform="translate(0 0)">
        <g id="Untitled-2-01" transform="translate(0)">
          <g id="Path_70" data-name="Path 70" transform="translate(0 12.193)">
            <path id="Path_110" data-name="Path 110" d="M18.438,127.278l-1.376-.537c-.354-.144-.707-.275-1.061-.406-.052.1-.092.21-.144.314l-.17-.432.314.118c.21-.445.419-.9.616-1.362.249-.563.5-1.114.747-1.677l.367-.852.354-.852c.118-.288.236-.563.341-.852s.223-.576.341-.851c-.157.262-.314.524-.459.8s-.3.537-.445.8l-.445.812-.432.812c-.288.537-.576,1.087-.852,1.624s-.55,1.087-.825,1.638l-.157.3.328.131c.459.183.9.38,1.362.563l1.376.55.288.118.144-.681Z" transform="translate(-15.15 -119.89)" fill="#6ca142"/>
          </g>
          <g id="Path_71" data-name="Path 71" transform="translate(5.076 21.024)">
            <path id="Path_111" data-name="Path 111" d="M60.509,188.059l-.439,1.036c.079.039.17.065.249.1l-.367.157.118-.262c-.367-.157-.747-.314-1.114-.472l-1.362-.563c-.459-.183-.9-.38-1.362-.563l-.039-.013L53.9,187.3l.707.288,1.376.536c.459.185.917.354,1.376.537l1.376.524c.459.183.917.354,1.389.524l.275.106.092-.262.472-1.323.131-.38-.472-.026Z" transform="translate(-53.9 -187.3)" fill="#6ca142"/>
          </g>
          <g id="Path_72" data-name="Path 72" transform="translate(11.122 22.817)">
            <path id="Path_112" data-name="Path 112" d="M100.417,201.095c-.079-.039-.17-.065-.249-.1l-.118.262Z" transform="translate(-100.05 -200.99)" fill="#6ca142"/>
          </g>
          <g id="Path_73" data-name="Path 73" transform="translate(8.803 0.457)">
            <path id="Path_113" data-name="Path 113" d="M82.35,27.047c.079.039.157.065.236.1l.118-.262Z" transform="translate(-82.35 -26.89)" fill="#6ca142"/>
          </g>
          <g id="Path_74" data-name="Path 74" transform="translate(18.812 4.243)">
            <path id="Path_114" data-name="Path 114" d="M158.868,55.79l-.118.314.3.118Z" transform="translate(-158.75 -55.79)" fill="#6ca142"/>
          </g>
          <g id="Path_75" data-name="Path 75" transform="translate(15.642 2.828)">
            <path id="Path_115" data-name="Path 115" d="M138.244,46.235c-.432-.17-.852-.354-1.284-.524l-1.284-.511-.563-.21-.039.721.367.144,1.3.5c.327.131.655.249,1,.367l.118-.316.183.421-.3-.119c-.275.668-.537,1.336-.8,2.017-.328.786-.642,1.56-.943,2.346l-.157.432L135.4,52.68l-.432,1.179c-.144.393-.275.786-.419,1.179.183-.38.367-.747.55-1.127s.367-.76.537-1.127l.524-1.14.223-.406c.354-.76.681-1.52,1.022-2.279s.668-1.533,1.009-2.293l.131-.3Z" transform="translate(-134.55 -44.99)" fill="#6ca142"/>
          </g>
          <g id="Path_76" data-name="Path 76" transform="translate(8.188)">
            <path id="Path_116" data-name="Path 116" d="M83.65,25.444l-1.3-.5c-.432-.17-.865-.328-1.3-.485l-1.284-.485c-.432-.157-.865-.328-1.3-.472l-.275-.1-.079.262-.1.328a3.062,3.062,0,0,0-.1.328l-.2.655-.066.223.3.066.092-.17.3-.616a3.344,3.344,0,0,0,.144-.314l.026-.052c-.079-.039-.157-.065-.236-.1l.367-.157-.118.262c.341.144.694.288,1.035.432l1.284.524c.432.17.852.341,1.284.511l.223.092,2.266.144Z" transform="translate(-77.65 -23.4)" fill="#6ca142"/>
          </g>
          <g id="Path_77" data-name="Path 77" transform="translate(3.026 13.896)">
            <path id="Path_117" data-name="Path 117" d="M39.678,132.89c-.026.288-.039.576-.065.865l-.079.865-.079.865-.092.865c-.066.576-.131,1.153-.21,1.729s-.144,1.153-.223,1.728l-.288-.367c.472.039.93.066,1.4.1l1.389.118,1.389.119,1.389.1,1.389.131c.459.039.93.092,1.389.131l1.389.144c.459.039.93.09,1.389.144l-.3.262.079-.668.079-.668.157-1.323c.065-.445.118-.878.183-1.323s.131-.878.21-1.323v1.336c0,.444-.013.891-.026,1.336l-.039,1.335-.026.668-.026.668-.013.275L49.752,141c-.472-.026-.93-.052-1.4-.092l-1.415-.1c-.472-.026-.93-.065-1.4-.1l-1.389-.106-1.389-.118-1.389-.131-1.389-.131c-.458-.039-.93-.092-1.389-.131l-.341-.039.065-.328c.1-.576.2-1.14.3-1.716s.21-1.14.328-1.7l.17-.852.183-.852c.066-.288.131-.563.2-.852S39.6,133.166,39.678,132.89Z" transform="translate(-38.25 -132.89)" fill="#6ca142"/>
          </g>
          <g id="Path_78" data-name="Path 78" transform="translate(5.552 1.466)">
            <path id="Path_118" data-name="Path 118" d="M67.348,45.124c.013-.393.026-.786.052-1.179s.039-.786.066-1.179l.066-1.179.079-1.179c.052-.786.118-1.572.17-2.358s.131-1.572.2-2.358l.288.354-1.31-.079-1.31-.092-1.31-.092-1.31-.1-1.31-.1-1.31-.118-1.31-.118c-.432-.039-.865-.079-1.31-.131l.3-.262-.052.328c-.013.1-.026.21-.052.327l-.1.642c-.039.21-.079.432-.131.642s-.092.432-.157.642c-.026-.223-.039-.432-.052-.655s.039-.485.026-.694V34.59l.3.013c.432.026.878.039,1.31.079l1.31.079,1.31.079,1.31.092,1.31.1,1.31.1,1.31.1,1.31.119.328.026-.026.314-.275,2.358c-.092.786-.2,1.572-.3,2.358L67.911,41.6l-.17,1.179c-.052.393-.118.786-.17,1.179S67.42,44.731,67.348,45.124Z" transform="translate(-57.534 -34.59)" fill="#6ca142"/>
          </g>
          <g id="Path_79" data-name="Path 79" transform="translate(16.191 12.503)">
            <path id="Path_119" data-name="Path 119" d="M139.764,121.053a.538.538,0,1,1-.72-.249.491.491,0,0,1,.406-.026A.54.54,0,0,1,139.764,121.053Z" transform="translate(-138.741 -120.746)" fill="#add25c"/>
          </g>
          <g id="Path_80" data-name="Path 80" transform="translate(15.956 14.517)">
            <path id="Path_120" data-name="Path 120" d="M137.695,136.616a.393.393,0,1,1-.524-.183h0A.393.393,0,0,1,137.695,136.616Z" transform="translate(-136.948 -136.394)" fill="#add25c"/>
          </g>
          <g id="Path_81" data-name="Path 81" transform="translate(16.702 13.72)">
            <path id="Path_121" data-name="Path 121" d="M143.395,130.416a.393.393,0,1,1-.524-.183h0A.393.393,0,0,1,143.395,130.416Z" transform="translate(-142.648 -130.194)" fill="#add25c"/>
          </g>
          <g id="Path_82" data-name="Path 82" transform="translate(15.759 17.202)">
            <path id="Path_122" data-name="Path 122" d="M136.191,157.519a.393.393,0,1,1-.524-.185h0A.393.393,0,0,1,136.191,157.519Z" transform="translate(-135.444 -157.296)" fill="#add25c"/>
          </g>
          <g id="Path_83" data-name="Path 83" transform="translate(18.161 12.561)">
            <path id="Path_123" data-name="Path 123" d="M154.209,121.266a.225.225,0,1,1-.3-.1A.236.236,0,0,1,154.209,121.266Z" transform="translate(-153.781 -121.142)" fill="#add25c"/>
          </g>
          <g id="Ellipse_19" data-name="Ellipse 19" transform="translate(15.969 16.489)">
            <ellipse id="Ellipse_3" data-name="Ellipse 3" cx="0.131" cy="0.131" rx="0.131" ry="0.131" fill="#add25c"/>
          </g>
          <g id="Ellipse_20" data-name="Ellipse 20" transform="translate(18.406 15.32)">
            <ellipse id="Ellipse_4" data-name="Ellipse 4" cx="0.131" cy="0.131" rx="0.131" ry="0.131" fill="#add25c"/>
          </g>
          <g id="Path_84" data-name="Path 84" transform="translate(19.912 14.075)">
            <path id="Path_124" data-name="Path 124" d="M167.412,132.983a.138.138,0,1,1-.183-.065A.145.145,0,0,1,167.412,132.983Z" transform="translate(-167.15 -132.906)" fill="#add25c"/>
          </g>
          <g id="Path_85" data-name="Path 85" transform="translate(17.423 16.732)">
            <path id="Path_125" data-name="Path 125" d="M148.412,153.663a.138.138,0,1,1-.183-.065.262.262,0,0,1,.1-.013A.5.5,0,0,1,148.412,153.663Z" transform="translate(-148.15 -153.584)" fill="#add25c"/>
          </g>
          <g id="Path_86" data-name="Path 86" transform="translate(19.008 11.54)">
            <path id="Path_126" data-name="Path 126" d="M160.512,113.263a.138.138,0,1,1-.183-.066.262.262,0,0,1,.1-.013.223.223,0,0,1,.079.079Z" transform="translate(-160.25 -113.184)" fill="#add25c"/>
          </g>
          <g id="Path_87-2" data-name="Path 87" transform="translate(18.659 14.554)">
            <path id="Path_127" data-name="Path 127" d="M158.009,136.773a.225.225,0,1,1-.3-.1A.24.24,0,0,1,158.009,136.773Z" transform="translate(-157.581 -136.65)" fill="#add25c"/>
          </g>
          <g id="Path_88-2" data-name="Path 88" transform="translate(18.056 13.505)">
            <path id="Path_128" data-name="Path 128" d="M153.671,128.719a.363.363,0,1,1-.485-.17.337.337,0,0,1,.275-.013A.415.415,0,0,1,153.671,128.719Z" transform="translate(-152.981 -128.513)" fill="#add25c"/>
          </g>
          <g id="Path_89-2" data-name="Path 89" transform="translate(16.523 15.834)">
            <path id="Path_129" data-name="Path 129" d="M141.709,146.742a.225.225,0,1,1-.3-.1h0a.224.224,0,0,1,.3.1Z" transform="translate(-141.28 -146.614)" fill="#add25c"/>
          </g>
          <g id="Path_90-2" data-name="Path 90" transform="translate(17.296 11.848)">
            <path id="Path_130" data-name="Path 130" d="M147.609,115.723a.225.225,0,1,1-.3-.1.216.216,0,0,1,.3.1Z" transform="translate(-147.181 -115.592)" fill="#add25c"/>
          </g>
          <g id="Path_91-2" data-name="Path 91" transform="translate(17.401 10.528)">
            <path id="Path_131" data-name="Path 131" d="M148.409,105.45a.225.225,0,1,1-.3-.1h0A.228.228,0,0,1,148.409,105.45Z" transform="translate(-147.98 -105.324)" fill="#add25c"/>
          </g>
          <g id="Path_92-2" data-name="Path 92" transform="translate(15.646 15.6)">
            <path id="Path_132" data-name="Path 132" d="M135.009,144.922a.225.225,0,1,1-.3-.1.216.216,0,0,1,.3.1Z" transform="translate(-134.581 -144.792)" fill="#add25c"/>
          </g>
          <g id="Path_93-2" data-name="Path 93" transform="translate(19.235 13.305)">
            <path id="Path_133" data-name="Path 133" d="M162.409,127.058a.225.225,0,1,1-.3-.1A.232.232,0,0,1,162.409,127.058Z" transform="translate(-161.98 -126.933)" fill="#add25c"/>
          </g>
          <g id="Path_94-2" data-name="Path 94" transform="translate(17.263 14.935)">
            <path id="Path_134" data-name="Path 134" d="M147.731,139.9a.422.422,0,1,1-.563-.2.474.474,0,0,1,.327-.026A.483.483,0,0,1,147.731,139.9Z" transform="translate(-146.929 -139.655)" fill="#add25c"/>
          </g>
          <g id="Path_95-2" data-name="Path 95" transform="translate(2.837 8.534)">
            <path id="Path_135" data-name="Path 135" d="M36.837,90.572a.543.543,0,1,1,.694.314.524.524,0,0,1-.694-.314Z" transform="translate(-36.805 -89.845)" fill="#add25c"/>
          </g>
          <g id="Path_96-2" data-name="Path 96" transform="translate(3.29 6.943)">
            <path id="Path_136" data-name="Path 136" d="M40.289,77.956a.384.384,0,0,1,.236-.5.4.4,0,0,1,.5.236.384.384,0,0,1-.236.5h0A.393.393,0,0,1,40.289,77.956Z" transform="translate(-40.264 -77.439)" fill="#add25c"/>
          </g>
          <g id="Path_97-2" data-name="Path 97" transform="translate(2.452 7.626)">
            <path id="Path_137" data-name="Path 137" d="M33.89,83.284a.393.393,0,1,1,.5.236h0a.384.384,0,0,1-.5-.236Z" transform="translate(-33.866 -82.756)" fill="#add25c"/>
          </g>
          <g id="Path_98-2" data-name="Path 98" transform="translate(3.827 4.285)">
            <path id="Path_138" data-name="Path 138" d="M44.39,57.284a.393.393,0,1,1,.5.236h0A.393.393,0,0,1,44.39,57.284Z" transform="translate(-44.366 -56.756)" fill="#add25c"/>
          </g>
          <g id="Path_99-2" data-name="Path 99" transform="translate(1.18 8.957)">
            <path id="Path_139" data-name="Path 139" d="M24.172,93.4a.228.228,0,1,1,.288.144.22.22,0,0,1-.288-.144Z" transform="translate(-24.16 -93.099)" fill="#add25c"/>
          </g>
          <g id="Path_100-2" data-name="Path 100" transform="translate(4.014 5.521)">
            <path id="Path_140" data-name="Path 140" d="M45.8,66.531a.131.131,0,1,1,.069.075A.131.131,0,0,1,45.8,66.531Z" transform="translate(-45.792 -66.356)" fill="#add25c"/>
          </g>
          <g id="Path_101-2" data-name="Path 101" transform="translate(1.46 6.408)">
            <path id="Path_141" data-name="Path 141" d="M26.3,73.431a.131.131,0,1,1,.17.079.144.144,0,0,1-.1,0A.347.347,0,0,1,26.3,73.431Z" transform="translate(-26.292 -73.256)" fill="#add25c"/>
          </g>
          <g id="Path_102-2" data-name="Path 102" transform="translate(2.599 5.097)">
            <path id="Path_142" data-name="Path 142" d="M35,63.231a.131.131,0,1,1,.17.079.144.144,0,0,1-.1,0A.131.131,0,0,1,35,63.231Z" transform="translate(-34.992 -63.056)" fill="#add25c"/>
          </g>
          <g id="Path_103-2" data-name="Path 103" transform="translate(0.945 6.927)">
            <path id="Path_143" data-name="Path 143" d="M22.372,77.6a.228.228,0,1,1,.288.144h0A.229.229,0,0,1,22.372,77.6Z" transform="translate(-22.36 -77.299)" fill="#add25c"/>
          </g>
          <g id="Path_104-2" data-name="Path 104" transform="translate(1.146 7.753)">
            <path id="Path_144" data-name="Path 144" d="M23.918,84.219a.36.36,0,1,1,.459.223A.366.366,0,0,1,23.918,84.219Z" transform="translate(-23.898 -83.741)" fill="#add25c"/>
          </g>
          <g id="Path_105-2" data-name="Path 105" transform="translate(3.211 5.911)">
            <path id="Path_145" data-name="Path 145" d="M39.672,69.7a.228.228,0,1,1,.288.144A.228.228,0,0,1,39.672,69.7Z" transform="translate(-39.66 -69.399)" fill="#add25c"/>
          </g>
          <g id="Path_106-2" data-name="Path 106" transform="translate(1.953 9.779)">
            <path id="Path_146" data-name="Path 146" d="M30.072,99.8a.228.228,0,1,1,.288.144A.241.241,0,0,1,30.072,99.8Z" transform="translate(-30.06 -99.499)" fill="#add25c"/>
          </g>
          <g id="Path_107-2" data-name="Path 107" transform="translate(1.691 11.077)">
            <path id="Path_147" data-name="Path 147" d="M28.072,109.9a.228.228,0,1,1,.288.144A.228.228,0,0,1,28.072,109.9Z" transform="translate(-28.06 -109.599)" fill="#add25c"/>
          </g>
          <g id="Path_108-2" data-name="Path 108" transform="translate(3.899 6.233)">
            <path id="Path_148" data-name="Path 148" d="M44.922,72.2a.228.228,0,1,1,.288.144h0A.242.242,0,0,1,44.922,72.2Z" transform="translate(-44.91 -71.899)" fill="#add25c"/>
          </g>
          <g id="Path_109-2" data-name="Path 109" transform="translate(2.007 6.308)">
            <path id="Path_149" data-name="Path 149" d="M30.5,73.065a.423.423,0,1,1,.537.262.47.47,0,0,1-.328-.013A.551.551,0,0,1,30.5,73.065Z" transform="translate(-30.472 -72.504)" fill="#add25c"/>
          </g>
          <g id="Path_110-2" data-name="Path 110" transform="translate(7.467 5.642)">
            <path id="Path_150" data-name="Path 150" d="M72.163,67.378h1.179a.825.825,0,0,1,.576.183.71.71,0,0,1,.2.524.683.683,0,0,1-.21.537.938.938,0,0,1-.642.2h-.393v.852H72.15V67.378Zm.707.983h.177a.431.431,0,0,0,.288-.065.2.2,0,0,0,.079-.183.262.262,0,0,0-.079-.183.345.345,0,0,0-.275-.079h-.21v.511Z" transform="translate(-72.15 -67.376)" fill="#0fac37"/>
          </g>
          <g id="Path_111-2" data-name="Path 111" transform="translate(9.55 5.602)">
            <path id="Path_151" data-name="Path 151" d="M88.05,68.643l.681-.039a.524.524,0,0,0,.092.249.418.418,0,0,0,.314.144.49.49,0,0,0,.236-.065.211.211,0,0,0,.079-.17.187.187,0,0,0-.079-.157.88.88,0,0,0-.367-.131,1.572,1.572,0,0,1-.668-.275.524.524,0,0,1-.2-.445.655.655,0,0,1,.1-.341.741.741,0,0,1,.314-.249,1.414,1.414,0,0,1,.563-.092,1.089,1.089,0,0,1,.668.17.743.743,0,0,1,.275.524L89.4,67.8a.31.31,0,0,0-.328-.3h-.026a.3.3,0,0,0-.183.052.148.148,0,0,0-.013.236.423.423,0,0,0,.236.079,2.337,2.337,0,0,1,.668.21.721.721,0,0,1,.3.262.634.634,0,0,1,.092.341.752.752,0,0,1-.459.694,2.018,2.018,0,0,1-.563.079,1.158,1.158,0,0,1-.812-.223A.907.907,0,0,1,88.05,68.643Z" transform="translate(-88.05 -67.068)" fill="#0fac37"/>
          </g>
          <g id="Path_112-2" data-name="Path 112" transform="translate(11.882 5.643)">
            <path id="Path_152" data-name="Path 152" d="M105.85,67.383h1.336a.732.732,0,0,1,.511.17.537.537,0,0,1,.183.406.516.516,0,0,1-.131.354.507.507,0,0,1-.249.157.655.655,0,0,1,.367.21.613.613,0,0,1,.118.367.71.71,0,0,1-.079.328.605.605,0,0,1-.223.223.846.846,0,0,1-.275.079,2.542,2.542,0,0,1-.314.026H105.85Zm.707.9h.314a.393.393,0,0,0,.236-.052.249.249,0,0,0,.065-.17.217.217,0,0,0-.065-.157.333.333,0,0,0-.223-.052h-.314Zm0,.9h.367a.377.377,0,0,0,.262-.065.211.211,0,0,0,.079-.17.231.231,0,0,0-.079-.17.46.46,0,0,0-.262-.066h-.367Z" transform="translate(-105.85 -67.382)" fill="#0fac37"/>
          </g>
          <g id="Path_113-2" data-name="Path 113" transform="translate(5.45 8.394)">
            <path id="Path_153" data-name="Path 153" d="M56.75,88.79h.511v1.258h.812v.406H56.75Z" transform="translate(-56.75 -88.79)" fill="#2d3079"/>
          </g>
          <g id="Path_114-2" data-name="Path 114" transform="translate(6.851 8.367)">
            <path id="Path_154" data-name="Path 154" d="M67.45,89.449a.907.907,0,0,1,.943-.865.973.973,0,0,1,.563.223.848.848,0,0,1,.223.629,1.048,1.048,0,0,1-.1.485.68.68,0,0,1-.288.288.942.942,0,0,1-.459.1,1.165,1.165,0,0,1-.472-.092.643.643,0,0,1-.3-.288,1.191,1.191,0,0,1-.1-.485Zm.524,0a.592.592,0,0,0,.092.367.352.352,0,0,0,.5.013l.013-.013a.588.588,0,0,0,.092-.393.524.524,0,0,0-.092-.341.284.284,0,0,0-.262-.1.358.358,0,0,0-.249.1A.524.524,0,0,0,67.974,89.449Z" transform="translate(-67.45 -88.584)" fill="#2d3079"/>
          </g>
          <g id="Path_115-2" data-name="Path 115" transform="translate(8.679 8.394)">
            <path id="Path_155" data-name="Path 155" d="M82.586,90.192H82l-.079.275H81.4l.629-1.677h.563l.629,1.677h-.537Zm-.1-.367-.183-.6-.183.6Z" transform="translate(-81.4 -88.79)" fill="#2d3079"/>
          </g>
          <g id="Path_116-2" data-name="Path 116" transform="translate(10.664 8.394)">
            <path id="Path_156" data-name="Path 156" d="M96.55,88.79h.485l.629.93v-.93h.485v1.677h-.485l-.629-.917v.917H96.55Z" transform="translate(-96.55 -88.79)" fill="#2d3079"/>
          </g>
          <g id="Path_117-2" data-name="Path 117" transform="translate(12.511 8.353)">
            <path id="Path_157" data-name="Path 157" d="M110.65,89.637l.5-.026a.292.292,0,0,0,.458.223.148.148,0,0,0,.026-.21l-.026-.026a.917.917,0,0,0-.262-.1,1,1,0,0,1-.485-.21.358.358,0,0,1-.157-.314.431.431,0,0,1,.079-.249.512.512,0,0,1,.223-.183,1.1,1.1,0,0,1,.406-.066.786.786,0,0,1,.485.118.5.5,0,0,1,.2.38l-.485.026a.232.232,0,0,0-.236-.223h-.013a.221.221,0,0,0-.131.039.119.119,0,0,0-.039.092.072.072,0,0,0,.039.065.458.458,0,0,0,.17.066,2.065,2.065,0,0,1,.485.144.477.477,0,0,1,.21.183.542.542,0,0,1,.065.249.51.51,0,0,1-.092.3.647.647,0,0,1-.249.21.858.858,0,0,1-.406.065.774.774,0,0,1-.59-.17A.542.542,0,0,1,110.65,89.637Z" transform="translate(-110.65 -88.469)" fill="#2d3079"/>
          </g>
          <g id="Path_118-2" data-name="Path 118" transform="translate(5.882 10.921)">
            <path id="Path_158" data-name="Path 158" d="M60.679,108.79h3.314V109.9h-2.24l-.118.76a2.742,2.742,0,0,1,.458-.17,1.725,1.725,0,0,1,.445-.052,1.668,1.668,0,0,1,1.218.459,1.533,1.533,0,0,1,.472,1.153,1.976,1.976,0,0,1-.236.943,1.627,1.627,0,0,1-.681.681,2.442,2.442,0,0,1-1.14.236,3.687,3.687,0,0,1-.852-.092,1.682,1.682,0,0,1-.6-.275,2.054,2.054,0,0,1-.406-.419,2.382,2.382,0,0,1-.262-.59l1.415-.157a.81.81,0,0,0,.236.511.647.647,0,0,0,.445.183.629.629,0,0,0,.485-.223.993.993,0,0,0,.2-.655.911.911,0,0,0-.2-.655.629.629,0,0,0-.511-.21.84.84,0,0,0-.393.1,1.2,1.2,0,0,0-.314.262l-1.192-.17Z" transform="translate(-60.05 -108.79)" fill="#f90"/>
          </g>
          <g id="Path_119-2" data-name="Path 119" transform="translate(10.176 10.815)">
            <path id="Path_159" data-name="Path 159" d="M92.926,111.981l1.4-.17a.655.655,0,0,0,.183.406.469.469,0,0,0,.314.118.574.574,0,0,0,.524-.341,3.368,3.368,0,0,0,.21-1.061,1.792,1.792,0,0,1-.511.38,1.66,1.66,0,0,1-.616.118,1.5,1.5,0,0,1-1.14-.485,1.617,1.617,0,0,1-.459-1.218,1.911,1.911,0,0,1,.236-.917,1.679,1.679,0,0,1,.655-.629,2.213,2.213,0,0,1,1.048-.21,2.388,2.388,0,0,1,1.205.262,1.864,1.864,0,0,1,.734.825,3.455,3.455,0,0,1,.275,1.493,2.915,2.915,0,0,1-.576,1.991,2.043,2.043,0,0,1-1.585.629,2.541,2.541,0,0,1-.943-.144,1.492,1.492,0,0,1-.576-.406A1.449,1.449,0,0,1,92.926,111.981Zm2.581-2.24a.948.948,0,0,0-.21-.642.647.647,0,0,0-.5-.236.586.586,0,0,0-.458.21.985.985,0,0,0-.183.629.938.938,0,0,0,.2.642.6.6,0,0,0,.472.223.629.629,0,0,0,.485-.223A.82.82,0,0,0,95.507,109.741Z" transform="translate(-92.832 -107.97)" fill="#f90"/>
          </g>
          <g id="Path_120-2" data-name="Path 120" transform="translate(9.511 18.9)">
            <path id="Path_160" data-name="Path 160" d="M87.75,171.233a.143.143,0,0,1,.118-.144h.013a.138.138,0,0,1,.013.275.131.131,0,0,1-.144-.131Z" transform="translate(-87.75 -171.089)" fill="#0fac37"/>
          </g>
          <g id="Path_121-2" data-name="Path 121" transform="translate(9.838 18.134)">
            <path id="Path_161" data-name="Path 161" d="M91.111,165.663a.9.9,0,0,1-.314.065.534.534,0,0,1-.55-.5v-.064a.554.554,0,0,1,.524-.578h.052a.664.664,0,0,1,.275.054l-.039.156a.448.448,0,0,0-.236-.052.409.409,0,0,0-.38.432.393.393,0,0,0,.38.381.551.551,0,0,0,.249-.054Z" transform="translate(-90.246 -164.589)" fill="#0fac37"/>
          </g>
          <g id="Path_122-2" data-name="Path 122" transform="translate(10.767 18.121)">
            <path id="Path_162" data-name="Path 162" d="M98.4,165.053a.538.538,0,0,1-.485.576h-.052a.515.515,0,0,1-.524-.511v-.052a.538.538,0,0,1,.485-.576h.052A.514.514,0,0,1,98.4,165C98.414,165.026,98.414,165.04,98.4,165.053Zm-.865.013a.337.337,0,1,0,.655,0c0-.183-.092-.419-.328-.419S97.536,164.856,97.536,165.066Z" transform="translate(-97.338 -164.489)" fill="#0fac37"/>
          </g>
          <g id="Path_123-2" data-name="Path 123" transform="translate(11.987 18.121)">
            <path id="Path_163" data-name="Path 163" d="M106.663,164.819a2.146,2.146,0,0,0-.013-.3h.177l.013.172h.013a.345.345,0,0,1,.341-.2.338.338,0,0,1,.314.221h0a.41.41,0,0,1,.118-.144.393.393,0,0,1,.236-.077c.144,0,.354.09.354.47v.643h-.2v-.616c0-.21-.079-.341-.236-.341a.269.269,0,0,0-.249.288v.668h-.2v-.655c0-.17-.079-.3-.223-.3a.28.28,0,0,0-.249.2.262.262,0,0,0-.013.1v.655h-.2Z" transform="translate(-106.65 -164.491)" fill="#0fac37"/>
          </g>
          <g id="Path_124-2" data-name="Path 124" transform="translate(5.777 16.426)">
            <path id="Path_164" data-name="Path 164" d="M59.25,151.29h.459l.17.681.17-.681h.459V152.4h-.288v-.852L60,152.4h-.255l-.223-.852v.852h-.262Z" transform="translate(-59.25 -151.29)" fill="#2d3079"/>
          </g>
          <g id="Path_125-2" data-name="Path 125" transform="translate(7.271 16.426)">
            <path id="Path_165" data-name="Path 165" d="M70.65,151.29h.341V152.4H70.65Z" transform="translate(-70.65 -151.29)" fill="#2d3079"/>
          </g>
          <g id="Path_126-2" data-name="Path 126" transform="translate(7.86 16.426)">
            <path id="Path_166" data-name="Path 166" d="M75.15,151.29h.327l.419.616v-.616h.327V152.4H75.9l-.419-.616v.616H75.15Z" transform="translate(-75.15 -151.29)" fill="#2d3079"/>
          </g>
          <g id="Path_127-2" data-name="Path 127" transform="translate(9.156 16.426)">
            <path id="Path_167" data-name="Path 167" d="M85.779,151.29h.341v.668a.773.773,0,0,1-.026.183.548.548,0,0,1-.1.157.337.337,0,0,1-.144.09.744.744,0,0,1-.236.041.863.863,0,0,1-.183-.013.632.632,0,0,1-.157-.041.288.288,0,0,1-.118-.1.437.437,0,0,1-.079-.131.477.477,0,0,1-.026-.183v-.667h.341v.681a.2.2,0,1,0,.393,0Z" transform="translate(-85.045 -151.29)" fill="#2d3079"/>
          </g>
          <g id="Path_128-2" data-name="Path 128" transform="translate(10.388 16.426)">
            <path id="Path_168" data-name="Path 168" d="M94.45,151.29H95.5v.275h-.354v.838H94.8v-.838H94.45Z" transform="translate(-94.45 -151.29)" fill="#2d3079"/>
          </g>
          <g id="Path_129-2" data-name="Path 129" transform="translate(11.594 16.426)">
            <path id="Path_169" data-name="Path 169" d="M103.65,151.29h.93v.236H104v.183h.537v.236H104v.224h.59v.249h-.943Z" transform="translate(-103.65 -151.29)" fill="#2d3079"/>
          </g>
          <g id="Path_130-2" data-name="Path 130" transform="translate(12.655 16.421)">
            <path id="Path_170" data-name="Path 170" d="M111.75,152.019l.327-.026a.183.183,0,0,0,.039.118.177.177,0,0,0,.157.066.211.211,0,0,0,.118-.039.093.093,0,0,0,.039-.079.113.113,0,0,0-.039-.079.44.44,0,0,0-.183-.065.786.786,0,0,1-.327-.131.274.274,0,0,1-.1-.21.229.229,0,0,1,.052-.157.41.41,0,0,1,.144-.118.506.506,0,0,1,.275-.039.579.579,0,0,1,.327.079.338.338,0,0,1,.131.249l-.327.013a.157.157,0,0,0-.157-.144h-.013a.131.131,0,0,0-.092.026.079.079,0,0,0,0,.118.211.211,0,0,0,.118.039,1.367,1.367,0,0,1,.327.1.41.41,0,0,1,.144.118.363.363,0,0,1,.039.17.352.352,0,0,1-.066.2.456.456,0,0,1-.17.144.684.684,0,0,1-.275.052.577.577,0,0,1-.393-.1A1.323,1.323,0,0,1,111.75,152.019Z" transform="translate(-111.75 -151.254)" fill="#2d3079"/>
          </g>
          <g id="Path_131-2" data-name="Path 131" transform="translate(4.179 10.788)">
            <path id="Path_171" data-name="Path 171" d="M47.05,107.39h.314v1.022H47.05Z" transform="translate(-47.05 -107.39)" fill="#2d3079"/>
          </g>
          <g id="Path_132-2" data-name="Path 132" transform="translate(4.664 10.788)">
            <path id="Path_172" data-name="Path 172" d="M50.75,107.39h.295l.38.563v-.563h.3v1.022h-.288l-.38-.563v.563h-.3Z" transform="translate(-50.75 -107.39)" fill="#2d3079"/>
          </g>
        </g>
      </g>
    </g>
  </g>
</svg>
