<svg id="seo-and-web" xmlns="http://www.w3.org/2000/svg" width="37.813" height="38" viewBox="0 0 37.813 38">
  <path id="Path_3146" data-name="Path 3146" d="M17.574,27.815A10.241,10.241,0,1,1,27.815,17.574,10.253,10.253,0,0,1,17.574,27.815Zm0-18.118a7.878,7.878,0,1,0,7.878,7.878A7.887,7.887,0,0,0,17.574,9.7Z" transform="translate(9.997 10.185)" fill="#c8c8c8"/>
  <path id="Path_3147" data-name="Path 3147" d="M16.122,19.918a1.171,1.171,0,0,1-.737-.26l-3.775-3.02a1.177,1.177,0,0,1-.443-.922V10.432a1.182,1.182,0,0,1,2.363,0v4.717l3.332,2.666a1.181,1.181,0,0,1-.74,2.1Z" transform="translate(15.224 12.798)" fill="#c8c8c8"/>
  <path id="Path_3148" data-name="Path 3148" d="M10.945,10.7h-6.4a1.182,1.182,0,1,1,0-2.363h6.4a1.182,1.182,0,1,1,0,2.363Z" transform="translate(4.59 11.465)" fill="#c8c8c8"/>
  <path id="Path_3149" data-name="Path 3149" d="M17.956,8.03H4.548a1.182,1.182,0,1,1,0-2.363H17.956a1.182,1.182,0,1,1,0,2.363Z" transform="translate(4.59 7.796)" fill="#c8c8c8"/>
  <path id="Path_3150" data-name="Path 3150" d="M19.434,5.363H4.55A1.182,1.182,0,1,1,4.55,3H19.434a1.182,1.182,0,1,1,0,2.363Z" transform="translate(4.592 4.127)" fill="#c8c8c8"/>
  <path id="Path_3151" data-name="Path 3151" d="M2.515,30a1.182,1.182,0,0,1-1.182-1.182V5.908A5.914,5.914,0,0,1,7.242,0H30.874a1.182,1.182,0,1,1,0,2.363H7.242A3.548,3.548,0,0,0,3.7,5.908V28.819A1.182,1.182,0,0,1,2.515,30Z" transform="translate(1.818)" fill="#c8c8c8"/>
  <path id="Path_3152" data-name="Path 3152" d="M20.726,8.665H12.848a1.182,1.182,0,0,1-1.182-1.182V5.12a5.12,5.12,0,0,1,10.241,0V7.484A1.182,1.182,0,0,1,20.726,8.665ZM14.03,6.3h5.514V5.12a2.757,2.757,0,0,0-5.514,0Z" transform="translate(15.905)" fill="#c8c8c8"/>
  <path id="Path_3153" data-name="Path 3153" d="M17.2,21.871H4.333A4.336,4.336,0,0,1,0,17.538V12.875a1.182,1.182,0,0,1,1.182-1.182H13.849a1.182,1.182,0,1,1,0,2.363H2.363v3.482a1.972,1.972,0,0,0,1.969,1.969H17.2a1.182,1.182,0,1,1,0,2.363Z" transform="translate(0 16.129)" fill="#c8c8c8"/>
  <path id="Path_3154" data-name="Path 3154" d="M12.848,11.395a1.182,1.182,0,0,1-1.182-1.182V3.848a1.182,1.182,0,0,1,2.363,0v6.365A1.182,1.182,0,0,1,12.848,11.395Z" transform="translate(15.905 3.676)" fill="#c8c8c8"/>
</svg>
