<svg xmlns="http://www.w3.org/2000/svg" width="38.813" height="39.535" viewBox="0 0 38.813 39.535">
  <g id="Group_1525" data-name="Group 1525" transform="translate(0.5 1.231)">
    <path id="Path_1978" data-name="Path 1978" d="M7.114,4.445v10.5L16.1,20.279l1.512-2.541-7.35-4.368V4.445Z" transform="translate(9.698 6.056)" fill="#c8c8c8" stroke="#fff" stroke-width="1"/>
    <path id="Path_1979" data-name="Path 1979" d="M37.812,0,32.069,5.9A18.855,18.855,0,0,0,5.5,5.9a18.558,18.558,0,0,0,.052,26.43,19.034,19.034,0,0,0,26.713,0,19.66,19.66,0,0,0,5.544-13.22H33.6a13.686,13.686,0,0,1-4.274,10.28,14.761,14.761,0,0,1-20.749,0,14.438,14.438,0,0,1,0-20.56,14.763,14.763,0,0,1,20.749.21l-5.765,5.922H37.812Z" transform="translate(0 -0.002)" fill="#c8c8c8" stroke="#fff" stroke-width="1"/>
  </g>
</svg>
