<svg id="_002-transfer" data-name="002-transfer" xmlns="http://www.w3.org/2000/svg" width="35.605" height="37.625" viewBox="0 0 35.605 37.625">
  <g id="Group_1503" data-name="Group 1503">
    <g id="Group_1502" data-name="Group 1502">
      <g id="Path_1953" data-name="Path 1953" transform="translate(7.099 8.687)" fill="#fff">
        <path d="M 17.33261489868164 27.78847122192383 L 7.149436473846436 27.78847122192383 L 7.149436473846436 17.60446357727051 L 9.748496055603027 20.20223045349121 L 10.56173610687256 21.01506042480469 L 11.37470626831055 20.20195007324219 L 23.52107620239258 8.05344295501709 L 26.88027000427246 11.41264247894287 L 14.7359561920166 23.56583976745605 L 13.92340660095215 24.37898063659668 L 14.73621654510498 25.19186019897461 L 17.33261489868164 27.78847122192383 Z" stroke="none"/>
        <path d="M 23.52114486694336 9.679868698120117 L 10.56201553344727 22.64128112792969 L 8.299436569213867 20.37982749938965 L 8.299436569213867 26.63846969604492 L 14.55644416809082 26.63846969604492 L 12.29739570617676 24.37924194335938 L 25.25421524047852 11.41294097900391 L 23.52114486694336 9.679868698120117 M 23.5210075378418 6.427030563354492 L 28.50631713867188 11.41234016418457 L 15.5494270324707 24.37871170043945 L 20.10880661010742 28.9384708404541 L 5.999435424804688 28.9384708404541 L 5.999435424804688 14.8290901184082 L 10.56146621704102 19.38885116577148 L 23.5210075378418 6.427030563354492 Z" stroke="none" fill="#c8c8c8"/>
      </g>
      <g id="Path_1954" data-name="Path 1954" transform="translate(-0.43)" fill="#fff">
        <path d="M 5.412758350372314 20.88490676879883 L 2.055318117141724 17.52593040466309 L 14.19767761230469 5.372557163238525 L 15.01011753082275 4.55938720703125 L 14.19730758666992 3.74658727645874 L 11.60072326660156 1.149997234344482 L 21.78376770019531 1.149997234344482 L 21.78376770019531 11.33288192749023 L 19.18757820129395 8.73648738861084 L 18.3744068145752 7.923247337341309 L 17.56120681762695 8.736456871032715 L 5.412758350372314 20.88490676879883 Z" stroke="none"/>
        <path d="M 5.412934303283691 19.25836944580078 L 18.37443733215332 6.296867370605469 L 20.63376808166504 8.556377410888672 L 20.63376808166504 2.299997329711914 L 14.37706851959229 2.299997329711914 L 16.63608741760254 4.559017181396484 L 3.681108951568604 17.52575302124023 L 5.412934303283691 19.25836944580078 M 5.412567138671875 22.51143646240234 L 0.4295273125171661 17.5261173248291 L 13.38413715362549 4.559757232666016 L 8.824387550354004 -2.722473254834767e-06 L 22.93376731872559 -2.722473254834767e-06 L 22.93376731872559 14.10937690734863 L 18.3743782043457 9.549627304077148 L 5.412567138671875 22.51143646240234 Z" stroke="none" fill="#c8c8c8"/>
      </g>
    </g>
  </g>
</svg>
