<svg xmlns="http://www.w3.org/2000/svg" width="33.25" height="39.5" viewBox="0 0 33.25 39.5">
  <g id="_001-user" data-name="001-user" transform="translate(0 1.5)">
    <path id="Path_1951" data-name="Path 1951" d="M20.218,2.783a9.5,9.5,0,1,1-13.435,0,9.5,9.5,0,0,1,13.435,0" transform="translate(3.125 0)" fill="#fff" stroke="#c8c8c8" stroke-width="3"/>
    <g id="Path_1952" data-name="Path 1952" transform="translate(-1 12.423)" fill="#fff">
      <path d="M 32.74996566772461 24.07695579528809 L 2.500024318695068 24.07695579528809 L 2.500024318695068 17.34567642211914 C 2.500024318695068 16.25668525695801 3.020354270935059 15.2552661895752 3.891904354095459 14.66688537597656 C 5.894724369049072 13.31362533569336 8.107563972473145 12.27178573608398 10.46946430206299 11.56997585296631 C 12.78089427947998 10.88316535949707 15.18836402893066 10.53492546081543 17.62500381469727 10.53492546081543 C 20.0616340637207 10.53492546081543 22.4691047668457 10.88316535949707 24.7805347442627 11.56997585296631 C 27.14243507385254 12.27178573608398 29.35527420043945 13.31362533569336 31.35759353637695 14.66654586791992 C 32.2296257019043 15.25528621673584 32.74996566772461 16.25671577453613 32.74996566772461 17.34567642211914 L 32.74996566772461 24.07695579528809 Z" stroke="none"/>
      <path d="M 17.6249942779541 12.03492546081543 C 15.33310508728027 12.03492546081543 13.06938362121582 12.36226654052734 10.89670372009277 13.00784492492676 C 8.681623458862305 13.66602516174316 6.607583999633789 14.64225578308105 4.731193542480469 15.91009521484375 C 4.273365020751953 16.21918487548828 4.000024795532227 16.75584602355957 4.000024795532227 17.34567642211914 L 4.000024795532227 22.57695579528809 L 31.24996376037598 22.57695579528809 L 31.24996376037598 17.34567642211914 C 31.24996376037598 16.7558650970459 30.97660446166992 16.21918487548828 30.51780319213867 15.90942573547363 C 28.64240455627441 14.64225578308105 26.56836318969727 13.66602516174316 24.35329437255859 13.00784492492676 C 22.18061447143555 12.36226654052734 19.91688537597656 12.03492546081543 17.6249942779541 12.03492546081543 M 17.62499809265137 9.034927368164062 C 22.74609184265137 9.034927368164062 27.86718368530273 10.49784088134766 32.19738388061523 13.42366600036621 C 33.48223495483398 14.2911262512207 34.24996566772461 15.75693511962891 34.24996566772461 17.34567642211914 L 34.24996566772461 25.57695579528809 L 1.000022888183594 25.57695579528809 L 1.000022888183594 17.34567642211914 C 1.000022888183594 15.75693511962891 1.767673492431641 14.2911262512207 3.052604675292969 13.42366600036621 C 7.382808685302734 10.49784088134766 12.50390434265137 9.034927368164062 17.62499809265137 9.034927368164062 Z" stroke="none" fill="#c8c8c8"/>
    </g>
  </g>
</svg>
