<svg id="calendar_4_" data-name="calendar (4)" xmlns="http://www.w3.org/2000/svg" width="18.357" height="18.357" viewBox="0 0 18.357 18.357">
  <path id="Path_22001" data-name="Path 22001" d="M14.533,1.53h-.765V.765a.765.765,0,0,0-1.53,0V1.53H6.119V.765a.765.765,0,0,0-1.53,0V1.53H3.824A3.829,3.829,0,0,0,0,5.354v9.179a3.829,3.829,0,0,0,3.824,3.824H14.533a3.829,3.829,0,0,0,3.824-3.824V5.354A3.829,3.829,0,0,0,14.533,1.53Zm-13,3.824A2.3,2.3,0,0,1,3.824,3.06H14.533a2.3,2.3,0,0,1,2.295,2.295v.765H1.53Zm13,11.473H3.824A2.3,2.3,0,0,1,1.53,14.533V7.649h15.3v6.884A2.3,2.3,0,0,1,14.533,16.828Z" fill="#484b49"/>
  <circle id="Ellipse_116" data-name="Ellipse 116" cx="1.147" cy="1.147" r="1.147" transform="translate(8.031 10.326)" fill="#484b49"/>
  <circle id="Ellipse_117" data-name="Ellipse 117" cx="1.147" cy="1.147" r="1.147" transform="translate(4.207 10.326)" fill="#484b49"/>
  <circle id="Ellipse_118" data-name="Ellipse 118" cx="1.147" cy="1.147" r="1.147" transform="translate(11.856 10.326)" fill="#484b49"/>
</svg>
