<svg xmlns="http://www.w3.org/2000/svg" width="28" height="26.25" viewBox="0 0 28 26.25">
  <path id="Path_89639" data-name="Path 89639" d="M10.063-21.875h7.875a.439.439,0,0,1,.438.438v2.188H9.625v-2.187A.439.439,0,0,1,10.063-21.875ZM7-21.437v2.188H3.5A3.5,3.5,0,0,0,0-15.75v5.25H28v-5.25a3.5,3.5,0,0,0-3.5-3.5H21v-2.187A3.064,3.064,0,0,0,17.938-24.5H10.063A3.064,3.064,0,0,0,7-21.437ZM28-8.75H17.5V-7a1.748,1.748,0,0,1-1.75,1.75h-3.5A1.748,1.748,0,0,1,10.5-7V-8.75H0v7a3.5,3.5,0,0,0,3.5,3.5h21A3.5,3.5,0,0,0,28-1.75Z" transform="translate(0 24.5)"/>
</svg>
