<svg xmlns="http://www.w3.org/2000/svg" xmlns:xlink="http://www.w3.org/1999/xlink" width="30" height="30" viewBox="0 0 30 30">
  <defs>
    <clipPath id="clip-path">
      <rect id="Rectangle_149843" data-name="Rectangle 149843" width="30" height="30" transform="translate(27 26) rotate(180)"/>
    </clipPath>
  </defs>
  <g id="Mask_Group_256" data-name="Mask Group 256" transform="translate(3 4)" clip-path="url(#clip-path)">
    <path id="audit" d="M6.78,10.042a4.721,4.721,0,0,1,4.712-4.712,4.617,4.617,0,0,1,1.993.449V4.243A1.992,1.992,0,0,0,11.492,2.25H4.243A1.992,1.992,0,0,0,2.25,4.243V14.392a1.992,1.992,0,0,0,1.993,1.993h7.249a1.992,1.992,0,0,0,1.993-1.993V14.3a4.617,4.617,0,0,1-1.993.449A4.721,4.721,0,0,1,6.78,10.042ZM4.968,4.425H8.593a.544.544,0,0,1,0,1.087H4.968a.544.544,0,1,1,0-1.087Zm.725,5.437H4.968a.544.544,0,1,1,0-1.087h.725a.544.544,0,0,1,0,1.087ZM4.968,7.687a.544.544,0,1,1,0-1.087h1.45a.544.544,0,0,1,0,1.087Zm11.257,5.6-1.547-1.547a3.583,3.583,0,0,0,.438-1.693,3.632,3.632,0,1,0-1.086,2.583l1.426,1.426a.544.544,0,0,0,.768-.769ZM13.269,9.752l-1.933,1.456a.545.545,0,0,1-.656,0l-.966-.732a.544.544,0,1,1,.656-.867l.639.483,1.6-1.209a.544.544,0,0,1,.655.868Z" transform="translate(2.75 1.683)"/>
  </g>
</svg>
