<svg id="Group_14780" data-name="Group 14780" xmlns="http://www.w3.org/2000/svg" xmlns:xlink="http://www.w3.org/1999/xlink" width="41.03" height="41.03" viewBox="0 0 41.03 41.03">
  <defs>
    <clipPath id="clip-path">
      <rect id="Rectangle_8305" data-name="Rectangle 8305" width="41.03" height="41.03" fill="none"/>
    </clipPath>
    <clipPath id="clip-path-3">
      <rect id="Rectangle_8298" data-name="Rectangle 8298" width="6.282" height="5.191" fill="none"/>
    </clipPath>
    <clipPath id="clip-path-4">
      <rect id="Rectangle_8299" data-name="Rectangle 8299" width="0.003" height="0.036" fill="none"/>
    </clipPath>
    <clipPath id="clip-path-5">
      <rect id="Rectangle_8300" data-name="Rectangle 8300" width="0.078" height="0.093" fill="none"/>
    </clipPath>
    <clipPath id="clip-path-6">
      <rect id="Rectangle_8301" data-name="Rectangle 8301" width="15.833" height="13.127" fill="none"/>
    </clipPath>
    <clipPath id="clip-path-7">
      <rect id="Rectangle_8302" data-name="Rectangle 8302" width="18.373" height="24.809" fill="none"/>
    </clipPath>
    <clipPath id="clip-path-8">
      <rect id="Rectangle_8303" data-name="Rectangle 8303" width="0.002" height="0.168" fill="none"/>
    </clipPath>
  </defs>
  <g id="Group_14779" data-name="Group 14779" clip-path="url(#clip-path)">
    <g id="Group_14778" data-name="Group 14778">
      <g id="Group_14777" data-name="Group 14777" clip-path="url(#clip-path)">
        <path id="Path_21982" data-name="Path 21982" d="M41.03,20.514a20.508,20.508,0,1,1-.048-1.406q.048.7.048,1.406" transform="translate(0 0.001)" fill="#6dbcdb"/>
        <path id="Path_21983" data-name="Path 21983" d="M0,35.918a20.522,20.522,0,0,0,16.588,20.14l3.928-3.928V20.142H20.51a.341.341,0,0,1-.053,0,.316.316,0,0,1-.192-.06l-.008.006s-.027-.006-.065-.025c-.212-.107-.873-.52-.959-.559-1.3-.6-4.02.491-4.02.491l-2.706,2.215L.048,34.511Q0,35.209,0,35.918" transform="translate(0 -15.402)" fill="#4ea2c4"/>
        <path id="Path_21984" data-name="Path 21984" d="M65.21,146.28a20.415,20.415,0,0,1-8.315,3.677,20.633,20.633,0,0,1-3.927.375h0a20.426,20.426,0,0,1-12.241-4.051,12.451,12.451,0,0,1,7.411-8.188,12.809,12.809,0,0,1,1.69-.545c.142-.035.283-.067.426-.1a13.1,13.1,0,0,1,2.714-.283h0a13.091,13.091,0,0,1,2.714.283l.17.037.258.061a12.518,12.518,0,0,1,9.1,8.733" transform="translate(-32.453 -109.301)" fill="#676372"/>
        <path id="Path_21985" data-name="Path 21985" d="M52.04,79.556a1.524,1.524,0,0,1-.189.371,1.734,1.734,0,0,1-.518.427,1.629,1.629,0,0,1-.821.3H50.5a1.144,1.144,0,0,1-.551-.166A2.872,2.872,0,0,1,49,79.426a7.334,7.334,0,0,1-.83-1.812,3.653,3.653,0,0,1-.036-1.974,1.784,1.784,0,0,1,.2-.467,1.375,1.375,0,0,1,.8-.56L49.2,74.6a1.706,1.706,0,0,1,.718-.016,1.844,1.844,0,0,1,.24.064c.04.013.079.027.119.043a2.01,2.01,0,0,1,.231.108,2.992,2.992,0,0,1,.877.746,4.014,4.014,0,0,1,.674,1.208,4.2,4.2,0,0,1,.175.682,4.065,4.065,0,0,1-.192,2.126" transform="translate(-38.262 -59.404)" fill="#daaa82"/>
        <path id="Path_21986" data-name="Path 21986" d="M136.59,79.423a2.872,2.872,0,0,1-.948,1.064,1.14,1.14,0,0,1-.562.165,1.633,1.633,0,0,1-.821-.3,1.749,1.749,0,0,1-.518-.427,1.551,1.551,0,0,1-.189-.371,4.142,4.142,0,0,1,.657-4.015,2.617,2.617,0,0,1,1.467-.962,1.543,1.543,0,0,1,1.578.593,1.745,1.745,0,0,1,.2.466,3.658,3.658,0,0,1-.035,1.975,7.323,7.323,0,0,1-.831,1.812" transform="translate(-106.219 -59.402)" fill="#daaa82"/>
        <path id="Path_21987" data-name="Path 21987" d="M91.809,126.021v5.272a3.141,3.141,0,0,1-3.141,3.141h0a3.141,3.141,0,0,1-3.14-3.141v-5.272Z" transform="translate(-68.152 -100.42)" fill="#daaa82"/>
        <g id="Group_14761" data-name="Group 14761" transform="translate(17.374 24.759)" opacity="0.5" style="mix-blend-mode: overlay;isolation: isolate">
          <g id="Group_14760" data-name="Group 14760">
            <g id="Group_14759" data-name="Group 14759" clip-path="url(#clip-path-3)">
              <path id="Path_21988" data-name="Path 21988" d="M91.809,121.877v3.144c-.082.1-.168.191-.258.282a5.941,5.941,0,0,1-2.482,1.493q-.2.061-.4.109a6.035,6.035,0,0,1-1.389.163,5.5,5.5,0,0,1-1.751-.279v-4.912Z" transform="translate(-85.527 -121.877)" fill="#1f1e21"/>
            </g>
          </g>
        </g>
        <path id="Path_21989" data-name="Path 21989" d="M76.811,47.13V58.816a4.766,4.766,0,0,1-1.587,3.48c-.879.821-1.971,1.835-2.86,2.643a5.027,5.027,0,0,1-.683.52c-.138.088-.281.17-.428.245a5.949,5.949,0,0,1-2.714.643,6.051,6.051,0,0,1-2.087-.368,5.408,5.408,0,0,1-.627-.275c-.146-.074-.289-.156-.426-.244a5.047,5.047,0,0,1-.685-.521c-.888-.808-1.98-1.821-2.859-2.643a5.082,5.082,0,0,1-.379-.391c-.049-.055-.1-.111-.142-.168-.06-.074-.118-.149-.172-.226-.02-.027-.039-.055-.058-.083-.046-.065-.089-.132-.131-.2l0-.009c-.022-.035-.043-.07-.064-.106a4.616,4.616,0,0,1-.276-.549c-.029-.068-.056-.137-.082-.205,0-.011-.008-.022-.012-.033-.011-.032-.022-.064-.033-.1s-.025-.076-.037-.114-.023-.079-.034-.118-.02-.076-.029-.114c-.02-.078-.037-.156-.052-.234q-.012-.059-.021-.118c-.006-.039-.013-.078-.018-.118s-.009-.067-.013-.1-.006-.054-.008-.081c-.013-.129-.02-.259-.02-.389V47.13Z" transform="translate(-48.025 -37.556)" fill="#f3bcca"/>
        <path id="Path_21990" data-name="Path 21990" d="M71.95,27.277a6.565,6.565,0,0,1-.6,1.829l-.281.541A1.9,1.9,0,0,1,70.9,30l-.015.015a.35.35,0,0,1-.263.067c-.051,0-.1,0-.154,0l-.238,0H54.279l-.238,0h-.154a.349.349,0,0,1-.263-.067L53.608,30a1.909,1.909,0,0,1-.172-.356l-.281-.541a6.558,6.558,0,0,1-.6-1.829l0-.011a14.7,14.7,0,0,1-.206-3.782c0-.046.008-.092.011-.137s.009-.091.013-.137l.013-.118c0-.039.009-.078.015-.117.02-.156.043-.313.071-.468.014-.078.029-.156.044-.233a6.959,6.959,0,0,1,1.276-2.982l.006-.008A3.1,3.1,0,0,1,55.827,18.1a3.187,3.187,0,0,1,1.107-1.476h0a3.824,3.824,0,0,1,1.111-.582,5.5,5.5,0,0,1,3.094-.006c.718.188,1.409.478,2.134.639a11.461,11.461,0,0,0,2.561.184,3.757,3.757,0,0,0,1.4-.194,1.313,1.313,0,0,0,.861-1.039,1.6,1.6,0,0,1,.689.8c-.081-.513-.246-1.124-.727-1.288A3.44,3.44,0,0,1,70.2,19.747a3.285,3.285,0,0,1,1.744.68,4.62,4.62,0,0,0-1.4.245c.166-.056.837,1.266.909,1.42a6.538,6.538,0,0,1,.522,1.68q.083.5.118,1a9.812,9.812,0,0,1-.143,2.5" transform="translate(-41.677 -12.059)" fill="#c73538"/>
        <path id="Path_21991" data-name="Path 21991" d="M76.811,47.13V58.816a4.541,4.541,0,0,1-.659,2.337l0,0-.016.027c-.009.016-.019.031-.029.047-.063.1-.13.2-.2.3-.025.034-.049.067-.075.1s-.051.066-.078.1l-.073.089q-.089.106-.185.209c-.027.029-.054.057-.081.085s-.05.051-.076.076l-.11.106c-.879.821-1.971,1.835-2.86,2.643a5.025,5.025,0,0,1-.683.52c-.138.088-.281.17-.428.245a5.949,5.949,0,0,1-2.714.643,6.056,6.056,0,0,1-2.087-.367,5.444,5.444,0,0,1-.627-.276c-.146-.074-.289-.156-.426-.244a5.048,5.048,0,0,1-.685-.521c-.888-.808-1.98-1.821-2.859-2.643a5.082,5.082,0,0,1-.379-.391c-.05-.055-.1-.111-.142-.168-.06-.074-.118-.149-.172-.226-.02-.027-.039-.055-.058-.083-.046-.066-.09-.133-.131-.2l0-.009c-.022-.035-.043-.07-.064-.106a4.615,4.615,0,0,1-.276-.549c-.029-.068-.057-.137-.082-.205,0-.011-.008-.022-.012-.033-.011-.032-.023-.064-.033-.1s-.025-.076-.037-.114-.023-.079-.034-.118-.021-.076-.029-.114c-.02-.078-.037-.156-.052-.234q-.012-.059-.021-.118c-.007-.039-.013-.078-.018-.118s-.009-.067-.013-.1-.006-.054-.008-.081c-.013-.129-.02-.259-.021-.389V47.13Z" transform="translate(-48.025 -37.556)" fill="#eeb997"/>
        <path id="Path_21992" data-name="Path 21992" d="M76.015,39.193v2.218a.864.864,0,0,1-.863.863c0-.44,0-.879-.009-1.318a2.691,2.691,0,0,0-.133-1.194.9.9,0,0,0-.067-.111,5.587,5.587,0,0,1-.75-1.281c-.275-.762-.05-1.521-.5-2.267a2.825,2.825,0,0,0-1.781-1.3,11.725,11.725,0,0,0-2.65.181,16.147,16.147,0,0,1-3.994-.369c-.535-.118-3.16-.7-2.876-1.651a7.1,7.1,0,0,1-.388,1.246,3.793,3.793,0,0,1-1.024,1.118c-.4.348-.278.874-.316,1.376a8.917,8.917,0,0,1-.236,1.844c-.155.516-.6.874-.767,1.383a3.5,3.5,0,0,0-.064,1.023c-.008.439-.008.878-.008,1.318a.864.864,0,0,1-.863-.863V39.193h.081v-5.41c0-.339.077-.67.069-1a9.06,9.06,0,0,1,.009-1.267,5.336,5.336,0,0,1,.682-2.1,4.336,4.336,0,0,1,2.63-2.044,3.256,3.256,0,0,1,.758-.091h8.829a3.978,3.978,0,0,1,3.062,1.652,4.566,4.566,0,0,1,.326.482,5.336,5.336,0,0,1,.682,2.1,9.092,9.092,0,0,1,.009,1.267c-.008.335.069.665.069,1v5.41Z" transform="translate(-46.798 -21.737)" fill="#c73538"/>
        <g id="Group_14764" data-name="Group 14764" transform="translate(12.24 21.251)" opacity="0.5" style="mix-blend-mode: overlay;isolation: isolate">
          <g id="Group_14763" data-name="Group 14763">
            <g id="Group_14762" data-name="Group 14762" clip-path="url(#clip-path-4)">
              <path id="Path_21993" data-name="Path 21993" d="M60.254,104.608v.036l0-.036Z" transform="translate(-60.25 -104.608)" fill="#1f1e21"/>
            </g>
          </g>
        </g>
        <g id="Group_14767" data-name="Group 14767" transform="translate(28.707 20.422)" opacity="0.5" style="mix-blend-mode: overlay;isolation: isolate">
          <g id="Group_14766" data-name="Group 14766">
            <g id="Group_14765" data-name="Group 14765" clip-path="url(#clip-path-5)">
              <path id="Path_21994" data-name="Path 21994" d="M141.391,100.526v.082c-.024,0-.048.008-.073.011,0-.017,0-.035-.006-.053a.771.771,0,0,0,.079-.04" transform="translate(-141.312 -100.526)" fill="#1f1e21"/>
            </g>
          </g>
        </g>
        <g id="Group_14770" data-name="Group 14770" transform="translate(8.273 27.903)" opacity="0.5" style="mix-blend-mode: overlay;isolation: isolate">
          <g id="Group_14769" data-name="Group 14769">
            <g id="Group_14768" data-name="Group 14768" clip-path="url(#clip-path-6)">
              <path id="Path_21995" data-name="Path 21995" d="M56.559,140.717v.963a3.592,3.592,0,0,1-3.592,3.592v5.211a20.426,20.426,0,0,1-12.241-4.051,12.451,12.451,0,0,1,7.412-8.189,12.8,12.8,0,0,1,1.69-.545v-.342c.137.088.28.17.426.244a5.406,5.406,0,0,0,.627.276,6.052,6.052,0,0,0,2.087.367v5.223a3.141,3.141,0,0,1-3.14-3.141v.842a3.141,3.141,0,0,0,3.14,3.141h0a3.592,3.592,0,0,0,3.592-3.592" transform="translate(-40.726 -137.356)" fill="#1f1e21"/>
            </g>
          </g>
        </g>
        <g id="Group_14773" data-name="Group 14773" transform="translate(9.755 3.982)" opacity="0.5" style="mix-blend-mode: overlay;isolation: isolate">
          <g id="Group_14772" data-name="Group 14772">
            <g id="Group_14771" data-name="Group 14771" clip-path="url(#clip-path-7)">
              <path id="Path_21996" data-name="Path 21996" d="M66.391,39.216a5.264,5.264,0,0,1-.928,1.143c-.879.821-1.971,1.835-2.86,2.643a5.024,5.024,0,0,1-.683.52c-.138.088-.28.17-.428.245a5.948,5.948,0,0,1-2.714.643,6.051,6.051,0,0,1-2.087-.367,5.361,5.361,0,0,1-.627-.276c-.146-.074-.289-.156-.426-.244A5.05,5.05,0,0,1,54.953,43c-.888-.808-1.98-1.821-2.859-2.643a5.151,5.151,0,0,1-.379-.391c-.05-.055-.1-.111-.142-.168-.06-.074-.118-.15-.173-.226-.02-.027-.039-.055-.058-.083-.046-.066-.09-.132-.131-.2l0-.008c-.022-.035-.043-.07-.064-.106a4.645,4.645,0,0,1-.276-.549q-.044-.1-.082-.206c0-.011-.008-.022-.012-.033-.011-.032-.023-.064-.033-.1s-.025-.076-.037-.114-.023-.079-.035-.118-.02-.076-.029-.114c-.02-.078-.037-.156-.052-.234q-.012-.059-.021-.118c-.006-.039-.013-.079-.018-.119s-.009-.067-.013-.1-.006-.054-.008-.081q-.019-.193-.02-.389l0-.037a1.146,1.146,0,0,1-.551-.165A2.876,2.876,0,0,1,49,35.641a7.328,7.328,0,0,1-.83-1.812,3.654,3.654,0,0,1-.036-1.974,1.774,1.774,0,0,1,.2-.467,1.374,1.374,0,0,1,.8-.56,17.507,17.507,0,0,1-.228-2.5,11.177,11.177,0,0,1,.022-1.282c0-.046.008-.092.011-.137s.008-.091.013-.137l.013-.118c0-.039.009-.078.015-.117.02-.156.043-.313.071-.468.014-.078.029-.156.044-.233a7.819,7.819,0,0,1,1.035-2.628c.077-.121.157-.239.241-.354l.006-.008a3.1,3.1,0,0,1,2.032-1.186,3.187,3.187,0,0,1,1.108-1.476h0c.211-.12.915-.494,1.111-.581-.885.8-.887,2.423-.731,3.525a5.584,5.584,0,0,0,3,4.2c2.021,1.029,4.426.743,6.562,1.383a4.707,4.707,0,0,0-1.831.278,7.244,7.244,0,0,0-1.608.6,2.369,2.369,0,0,0-1.3,2.184c0,.624.008,1.25.021,1.876.012.608.024,1.217.024,1.825q0,2.327,0,4.655v1.052a2.188,2.188,0,0,0,3.083,2.007l.063-.031c.147-.075.29-.157.428-.245a5.024,5.024,0,0,0,.683-.52c.889-.808,1.98-1.821,2.86-2.643a5.383,5.383,0,0,0,.5-.529" transform="translate(-48.018 -19.601)" fill="#1f1e21"/>
            </g>
          </g>
        </g>
        <path id="Path_21997" data-name="Path 21997" d="M100.975,56.069v.168a1.662,1.662,0,0,1,0-.168" transform="translate(-80.46 -44.679)" fill="#48569c"/>
        <g id="Group_14776" data-name="Group 14776" transform="translate(20.512 11.39)" opacity="0.2">
          <g id="Group_14775" data-name="Group 14775">
            <g id="Group_14774" data-name="Group 14774" clip-path="url(#clip-path-8)">
              <path id="Path_21998" data-name="Path 21998" d="M100.975,56.069v.168a1.662,1.662,0,0,1,0-.168" transform="translate(-100.973 -56.069)" fill="#1f1e21"/>
            </g>
          </g>
        </g>
      </g>
    </g>
  </g>
</svg>
