<svg xmlns="http://www.w3.org/2000/svg" width="58" height="58" viewBox="0 0 58 58">
  <g id="report" transform="translate(-0.5 -0.5)">
    <g id="Group_164046" data-name="Group 164046" transform="translate(31.873 11.619)">
      <circle id="Ellipse_384" data-name="Ellipse 384" cx="2.302" cy="2.302" r="2.302" transform="translate(10.976 10.976)" fill="#c1e0ff"/>
      <path id="Path_83628" data-name="Path 83628" d="M50.5,12.578v8.41a5.045,5.045,0,0,1,3.212,6.985l6.378,5.468A13.333,13.333,0,0,0,50.5,12.578Z" transform="translate(-35.842 -12.578)" fill="#c1e0ff"/>
      <path id="Path_83629" data-name="Path 83629" d="M47.855,40.468a13.287,13.287,0,0,0,9.166-3.67l-6.368-5.463A5.054,5.054,0,0,1,42.988,28.5h-8.41A13.368,13.368,0,0,0,47.855,40.468Z" transform="translate(-34.578 -13.842)" fill="#c1e0ff"/>
      <path id="Path_83630" data-name="Path 83630" d="M46.474,20.988v-8.41a13.373,13.373,0,0,0-11.9,11.9h8.41a5.078,5.078,0,0,1,3.486-3.486Z" transform="translate(-34.578 -12.578)" fill="#c1e0ff"/>
    </g>
    <path id="Path_83631" data-name="Path 83631" d="M54.357,44.69H51.135V41.468a1.381,1.381,0,0,0-2.762,0V44.69h-29a4.147,4.147,0,0,0-4.143,4.143v4.6a2.3,2.3,0,0,1-4.6,0V5.563a5.027,5.027,0,0,0-.559-2.3h36a2.3,2.3,0,0,1,2.3,2.3V8.325a1.381,1.381,0,1,0,2.762,0V5.563A5.07,5.07,0,0,0,46.071.5H5.564A5.069,5.069,0,0,0,.5,5.563v4.6A4.147,4.147,0,0,0,4.643,14.31H7.865V53.45a5.069,5.069,0,0,0,5.063,5.05H53.436A5.07,5.07,0,0,0,58.5,53.436v-4.6a4.147,4.147,0,0,0-4.143-4.143ZM4.643,11.548a1.382,1.382,0,0,1-1.381-1.381v-4.6a2.3,2.3,0,1,1,4.6,0v5.984Zm51.1,41.889a2.3,2.3,0,0,1-2.3,2.3h-36a5.036,5.036,0,0,0,.554-2.3v-4.6a1.382,1.382,0,0,1,1.381-1.381H54.357a1.382,1.382,0,0,1,1.381,1.381Z" fill="#0055a4"/>
    <path id="Path_83632" data-name="Path 83632" d="M39.151,7.881A1.381,1.381,0,0,0,37.77,6.5H24.881a1.381,1.381,0,0,0,0,2.762H37.77a1.381,1.381,0,0,0,1.381-1.381Z" transform="translate(-1.825 -0.476)" fill="#0055a4"/>
    <path id="Path_83633" data-name="Path 83633" d="M15.881,17.262H31.532a1.381,1.381,0,1,0,0-2.762H15.881a1.381,1.381,0,1,0,0,2.762Z" transform="translate(-1.111 -1.111)" fill="#0055a4"/>
    <path id="Path_83634" data-name="Path 83634" d="M15.881,33.262H29.69a1.381,1.381,0,1,0,0-2.762H15.881a1.381,1.381,0,1,0,0,2.762Z" transform="translate(-1.111 -2.381)" fill="#0055a4"/>
    <path id="Path_83635" data-name="Path 83635" d="M15.881,41.262H34.294a1.381,1.381,0,0,0,0-2.762H15.881a1.381,1.381,0,0,0,0,2.762Z" transform="translate(-1.111 -3.016)" fill="#0055a4"/>
    <path id="Path_83636" data-name="Path 83636" d="M15.881,25.262H28.77a1.381,1.381,0,0,0,0-2.762H15.881a1.381,1.381,0,1,0,0,2.762Z" transform="translate(-1.111 -1.746)" fill="#0055a4"/>
  </g>
</svg>
