<svg xmlns="http://www.w3.org/2000/svg" width="21" height="28" viewBox="0 0 21 28">
  <path id="Path_89640" data-name="Path 89640" d="M3.5-24.5A3.5,3.5,0,0,0,0-21V0A3.5,3.5,0,0,0,3.5,3.5h14A3.5,3.5,0,0,0,21,0V-15.75H14a1.748,1.748,0,0,1-1.75-1.75v-7Zm10.5,0v7h7Zm-7.875,14h8.75a.878.878,0,0,1,.875.875.878.878,0,0,1-.875.875H6.125a.878.878,0,0,1-.875-.875A.878.878,0,0,1,6.125-10.5Zm0,3.5h8.75a.878.878,0,0,1,.875.875.878.878,0,0,1-.875.875H6.125a.878.878,0,0,1-.875-.875A.878.878,0,0,1,6.125-7Zm0,3.5h8.75a.878.878,0,0,1,.875.875.878.878,0,0,1-.875.875H6.125a.878.878,0,0,1-.875-.875A.878.878,0,0,1,6.125-3.5Z" transform="translate(0 24.5)"/>
</svg>
