<svg xmlns="http://www.w3.org/2000/svg" width="24" height="20.612" viewBox="0 0 24 20.612">
  <path id="Union_18" data-name="Union 18" d="M14341-2058.39c.076-.171.15-.344.242-.505q5.88-10.054,11.764-20.105c1.227,2.1,2.461,4.2,3.672,6.313-1.957,3.453-3.887,6.922-5.91,10.337-.777,1.31-1.533,2.633-2.3,3.95q-2.411.015-4.826.013Zm16.506,0c-1.486-2.6-3.039-5.164-4.5-7.784,2.5,0,5-.018,7.492.024,1.488,2.593,3.023,5.157,4.5,7.76q-1.38.006-2.76.006Q14359.873-2058.389,14357.506-2058.394Z" transform="translate(-14341 2079)" fill="#ae285d"/>
</svg>
