<svg xmlns="http://www.w3.org/2000/svg" width="22" height="13.128" viewBox="0 0 22 13.128">
  <g id="download" transform="translate(-0.948 -0.782)">
    <path id="Path_116063" data-name="Path 116063" d="M.948,46.83a4.266,4.266,0,0,1,4.448-4.2,4.5,4.5,0,0,1,3.546,1.633L7.849,45.356a3.127,3.127,0,0,0-2.438-1.2,2.687,2.687,0,1,0,0,5.374,3.164,3.164,0,0,0,2.517-1.252L9,49.335A4.46,4.46,0,0,1,5.4,51.047,4.269,4.269,0,0,1,.948,46.83Z" transform="translate(0 -37.138)" fill="#255be3"/>
    <path id="Path_116064" data-name="Path 116064" d="M85.21,45.165h1.725v7.848H85.21Z" transform="translate(-75.158 -39.389)" fill="#255be3"/>
    <path id="Path_116065" data-name="Path 116065" d="M114.243,31.4v-4.28h-1.884V25.659h1.963v-1.68l1.614-.793v2.473H118.5v1.459h-2.564v4c0,.793.443,1.141,1.282,1.141a3.037,3.037,0,0,0,1.266-.269v1.49a3.758,3.758,0,0,1-1.583.317A2.364,2.364,0,0,1,114.243,31.4Z" transform="translate(-99.506 -19.882)" fill="#255be3"/>
    <path id="Path_116066" data-name="Path 116066" d="M179.037,45.165h1.725v7.848h-1.725Z" transform="translate(-158.891 -39.389)" fill="#255be3"/>
    <path id="Path_116067" data-name="Path 116067" d="M82.6.783a8.826,8.826,0,0,1,7.234,3.741h-2.01a7.019,7.019,0,0,0-10.447,0h-2.01A8.826,8.826,0,0,1,82.6.783Z" transform="translate(-66.881 0)" fill="#ff3c28"/>
  </g>
</svg>
