<svg xmlns="http://www.w3.org/2000/svg" width="24" height="25.991" viewBox="0 0 24 25.991">
  <g id="Group_195129" data-name="Group 195129" transform="translate(0)">
    <path id="path160" d="M2477.924,952.851c5.935-5.891,13.135-7.42,16.017-3.4s.349,12.132-5.586,18.023c-5.935,5.935-13.135,7.462-16.06,3.4-2.835-4.057-.3-12.132,5.63-18.021" transform="translate(-2471.132 -947.206)" fill="#f06321"/>
    <path id="path162" d="M2515.662,949.84a21.744,21.744,0,0,0-1.963,1.66c-5.193,5.148-7.377,12.217-4.8,15.753,2.661,3.534,9.032,2.225,14.357-2.969a20.092,20.092,0,0,0,5.586-9.032,8.526,8.526,0,0,0-1.091-5.673c-2.269-3.141-7.157-2.881-12.088.262" transform="translate(-2504.943 -947.337)" fill="#ae282e"/>
    <path id="path164" d="M2550.815,973.7v.131a4.032,4.032,0,0,1-1.265,2.443c-1.178,1.134-2.748,1.57-3.405.918-.741-.7-.3-2.227.875-3.449,1.222-1.178,2.792-1.57,3.446-.872a1.116,1.116,0,0,1,.349.829m-4.537,20.03c-2.794,2.094-5.673,3.143-8.467,2.707,1.178.044,2.139-1.267,2.925-3.012a30.086,30.086,0,0,0,1.614-5.019c.567-2.487.611-4.232.306-4.624-.48-.613-1.527-.48-2.75.218-.611.349-1.4.131-.478-1a23.5,23.5,0,0,1,5.977-4.277c1.485-.393,3.143.175,2.576,1.789-.395,1.178-5.542,14.618-1.7,13.222" transform="translate(-2532.59 -970.542)" fill="#fff"/>
  </g>
</svg>
