<svg xmlns="http://www.w3.org/2000/svg" width="115.95" height="116.97" viewBox="0 0 115.95 116.97">
  <g id="loan" transform="translate(-1.55 -1.25)">
    <g id="Group_133" data-name="Group 133" transform="translate(2.3 2)">
      <g id="Group_132" data-name="Group 132">
        <path id="Path_1627" data-name="Path 1627" d="M52.772,101.3a106.837,106.837,0,0,1-11.175.559c-21.79,0-39.3-4.47-39.3-27.936C2.3,54.741,14.033,28.853,30.236,20.1H52.958c6.332,3.352,11.919,9.312,16.389,16.576" transform="translate(-2.3 13.61)" fill="none" stroke="#0758a8" stroke-linecap="round" stroke-linejoin="round" stroke-width="1.5"/>
        <path id="Path_1628" data-name="Path 1628" d="M68.332,61.648a48.139,48.139,0,0,1,.745,7.077l-8.567,4.1A16.7,16.7,0,0,0,51.2,85.115l-.745,4.1a82.65,82.65,0,0,1-12.664.745C11.715,89.957,6.5,82.694,6.5,70.216c0-14.341,8.195-34.827,19.742-44.139A7.294,7.294,0,0,1,31.084,24.4h13.6a7.652,7.652,0,0,1,4.842,1.676C56.6,31.85,62.559,41.72,65.911,51.778a63.548,63.548,0,0,1,2.421,9.871Z" transform="translate(1.322 17.318)" fill="#bad532"/>
        <g id="Group_131" data-name="Group 131" transform="translate(18.624)">
          <path id="Path_1629" data-name="Path 1629" d="M19.442,14.9H42.536a4.842,4.842,0,1,1,0,9.685H19.442a4.842,4.842,0,0,1,0-9.685Z" transform="translate(-10.316 9.125)" fill="none" stroke="#0758a8" stroke-linecap="round" stroke-linejoin="round" stroke-width="1.5"/>
          <path id="Path_1630" data-name="Path 1630" d="M20.495,26.025C13.417,18.948,12.3,8.518,12.3,8.518a35.148,35.148,0,0,1,14.9,5.96A31.8,31.8,0,0,1,32.973,2a33.676,33.676,0,0,1,5.96,12.478,34.3,34.3,0,0,1,14.9-5.96s-1.117,10.43-8.195,17.507Z" transform="translate(-12.3 -2)" fill="#00b6f0" stroke="#0758a8" stroke-linecap="round" stroke-linejoin="round" stroke-width="1.5"/>
        </g>
        <path id="Path_1642" data-name="Path 1642" d="M115.514,94.247h4.654q4.15,0,6.007-1.307a4.237,4.237,0,0,0,1.651-2.5H115.514V86.75h12.358q-.94-3.943-6.672-4.058h-5.686V79h21.46v3.691H130.9a9.833,9.833,0,0,1,1.6,4.058h4.471v3.691h-4.517a8.007,8.007,0,0,1-1.811,3.737,9.875,9.875,0,0,1-4.677,3.049v.092q3.531,1.193,5.388,6.145l3.37,9.148h-4.792l-3-8.621a8.249,8.249,0,0,0-3.176-4.505,8.591,8.591,0,0,0-4.6-1.25h-3.646Z" transform="translate(-87.133 -17.806)" fill="#fff"/>
      </g>
    </g>
    <path id="Path_1634" data-name="Path 1634" d="M72.982,50.6l10.057,4.656a10.746,10.746,0,0,1,6.146,8.195l1.117,6.7a4.573,4.573,0,0,1-4.47,5.4H37.41a4.573,4.573,0,0,1-4.47-5.4l1.117-6.7A11.519,11.519,0,0,1,40.2,55.256L50.26,50.6l11.361,6.518Z" transform="translate(26.35 41.914)" fill="none" stroke="#0758a8" stroke-linecap="round" stroke-linejoin="round" stroke-width="1.5"/>
    <g id="Group_134" data-name="Group 134" transform="translate(72.3 52.061)">
      <path id="Path_1635" data-name="Path 1635" d="M42.52,46.8s3.352-4.47,5.029-5.029c3.725-1.49,12.292-1.49,16.017,0,1.49.559,4.842,4.842,4.842,4.842l1.676-8.381a3.518,3.518,0,0,0-3.725-4.284,5.04,5.04,0,0,0-5.587-5.029l-16.2,2.049a5.294,5.294,0,0,0-4.47,6.7Z" transform="translate(-39.886 -28.88)" fill="#00b6f0" stroke="#0758a8" stroke-linecap="round" stroke-linejoin="round" stroke-width="1.5"/>
      <path id="Path_1636" data-name="Path 1636" d="M67.1,41.06c-.186,9.5-5.96,16.948-12.851,16.948S41.586,50.558,41.4,41.246c.372-.372,3.539-4.47,5.029-5.029,3.725-1.49,12.292-1.49,16.017,0,1.49.745,4.656,4.842,4.656,4.842Z" transform="translate(-38.579 -23.515)" fill="none" stroke="#0758a8" stroke-linecap="round" stroke-linejoin="round" stroke-width="1.5"/>
    </g>
    <g id="Group_137" data-name="Group 137" transform="translate(76.611 85.25)">
      <g id="Group_136" data-name="Group 136">
        <g id="Group_135" data-name="Group 135">
          <path id="Path_1637" data-name="Path 1637" d="M42.2,53.963A9.19,9.19,0,0,0,48.532,46.7" transform="translate(-42.2 -46.7)" fill="none" stroke="#0758a8" stroke-linecap="round" stroke-linejoin="round" stroke-width="1.5"/>
          <path id="Path_1638" data-name="Path 1638" d="M57.418,53.963A9.28,9.28,0,0,1,50.9,46.7" transform="translate(-34.697 -46.7)" fill="none" stroke="#0758a8" stroke-linecap="round" stroke-linejoin="round" stroke-width="1.5"/>
          <path id="Path_1639" data-name="Path 1639" d="M53.2,56.4h8.753" transform="translate(-32.713 -38.335)" fill="none" stroke="#0758a8" stroke-linecap="round" stroke-linejoin="round" stroke-width="1.5"/>
          <path id="Path_1640" data-name="Path 1640" d="M48.3,54.2V72.452" transform="translate(-36.939 -40.232)" fill="none" stroke="#0758a8" stroke-linecap="round" stroke-linejoin="round" stroke-width="1.5"/>
          <path id="Path_1641" data-name="Path 1641" d="M44.8,58V69.175" transform="translate(-39.958 -36.955)" fill="none" stroke="#0758a8" stroke-linecap="round" stroke-linejoin="round" stroke-width="1.5"/>
        </g>
      </g>
    </g>
  </g>
</svg>
