<svg xmlns="http://www.w3.org/2000/svg" width="117.581" height="117.474" viewBox="0 0 117.581 117.474">
  <g id="scheme" transform="translate(-0.905 -1)">
    <g id="Group_122" data-name="Group 122" transform="translate(1.986 2)">
      <path id="Path_1599" data-name="Path 1599" d="M97.012,117.474H20.65a7.472,7.472,0,0,1-7.45-7.45V9.45A7.472,7.472,0,0,1,20.65,2H78.76a7.472,7.472,0,0,1,7.45,7.45v94.614" transform="translate(7.686 -2)" fill="none" stroke="#0d5caa" stroke-linecap="round" stroke-linejoin="round" stroke-width="2"/>
      <path id="Path_1600" data-name="Path 1600" d="M63.575,102.381H62.83A10.413,10.413,0,0,1,52.4,91.951V19.5H74V91.951A10.413,10.413,0,0,1,63.575,102.381Z" transform="translate(41.495 13.094)" fill="#bad532" stroke="#0657a8" stroke-linecap="round" stroke-linejoin="round" stroke-width="2"/>
      <g id="Group_118" data-name="Group 118" transform="translate(0 12.443)">
        <g id="Group_117" data-name="Group 117">
          <path id="Path_1601" data-name="Path 1601" d="M27.212,36.6,28.33,49.265,17.9,42" transform="translate(11.739 15.399)" fill="none" stroke="#0d5caa" stroke-linecap="round" stroke-linejoin="round" stroke-width="2"/>
          <path id="Path_1602" data-name="Path 1602" d="M31.625,66.081l9.126-5.4L11.7,10.02a2.908,2.908,0,0,0-2.98-1.3,10.393,10.393,0,0,0-6.146,3.539,2.82,2.82,0,0,0-.186,3.166Z" transform="translate(-1.986 -8.681)" fill="#00b6f0" stroke="#0d5caa" stroke-linecap="round" stroke-linejoin="round" stroke-width="2"/>
          <path id="Path_1603" data-name="Path 1603" d="M12.726,11.7,3.6,17.1" transform="translate(-0.594 -6.077)" fill="none" stroke="#0d5caa" stroke-linecap="round" stroke-linejoin="round" stroke-width="2"/>
        </g>
      </g>
      <g id="Group_121" data-name="Group 121" transform="translate(31.316 7.622)">
        <g id="Group_119" data-name="Group 119" transform="translate(10.616)">
          <path id="Path_1604" data-name="Path 1604" d="M56.349,22.124A15.926,15.926,0,0,0,24.5,21.751a16.379,16.379,0,0,0,4.47,11.361,16.149,16.149,0,0,1,4.842,11.175V45.4H47.036V43.729A14.283,14.283,0,0,1,51.692,33.3a15.748,15.748,0,0,0,4.656-11.175Z" transform="translate(-24.5 -6.093)" fill="none" stroke="#0d5caa" stroke-linecap="round" stroke-linejoin="round" stroke-width="2"/>
          <path id="Path_1605" data-name="Path 1605" d="M33,31.73V21.3" transform="translate(-17.169 7.024)" fill="none" stroke="#0d5caa" stroke-linecap="round" stroke-linejoin="round" stroke-width="2"/>
          <path id="Path_1606" data-name="Path 1606" d="M27.1,27.3H49.077" transform="translate(-22.258 12.198)" fill="#00b6f0" stroke="#0d5caa" stroke-linecap="round" stroke-linejoin="round" stroke-width="2"/>
        </g>
        <g id="Group_120" data-name="Group 120" transform="translate(0 50.115)">
          <path id="Path_1607" data-name="Path 1607" d="M28.3,38H62.57" transform="translate(-10.606 -28.688)" fill="#00b6f0" stroke="#0d5caa" stroke-linecap="round" stroke-linejoin="round" stroke-width="2"/>
          <path id="Path_1608" data-name="Path 1608" d="M27,33H63.691" transform="translate(-11.728 -33)" fill="#00b6f0" stroke="#0d5caa" stroke-linecap="round" stroke-linejoin="round" stroke-width="2"/>
          <path id="Path_1609" data-name="Path 1609" d="M28,42.9H62.829" transform="translate(-10.865 -24.461)" fill="#00b6f0" stroke="#0d5caa" stroke-linecap="round" stroke-linejoin="round" stroke-width="2"/>
          <path id="Path_1610" data-name="Path 1610" d="M31.3,47.9H59.8" transform="translate(-8.019 -20.149)" fill="#00b6f0" stroke="#0d5caa" stroke-linecap="round" stroke-linejoin="round" stroke-width="2"/>
          <path id="Path_1611" data-name="Path 1611" d="M18.8,47.9H33.514" transform="translate(-18.8 -20.149)" fill="#00b6f0" stroke="#0d5caa" stroke-linecap="round" stroke-linejoin="round" stroke-width="2"/>
          <path id="Path_1612" data-name="Path 1612" d="M39.1,52.8H53.069" transform="translate(-1.292 -15.923)" fill="#00b6f0" stroke="#0d5caa" stroke-linecap="round" stroke-linejoin="round" stroke-width="2"/>
          <path id="Path_1613" data-name="Path 1613" d="M18.8,52.8H48.041" transform="translate(-18.8 -15.923)" fill="#00b6f0" stroke="#0d5caa" stroke-linecap="round" stroke-linejoin="round" stroke-width="2"/>
          <path id="Path_1614" data-name="Path 1614" d="M28.2,57.8H62.47" transform="translate(-10.693 -11.61)" fill="#00b6f0" stroke="#0d5caa" stroke-linecap="round" stroke-linejoin="round" stroke-width="2"/>
          <path id="Path_1615" data-name="Path 1615" d="M18.8,57.8h8.567" transform="translate(-18.8 -11.61)" fill="#00b6f0" stroke="#0d5caa" stroke-linecap="round" stroke-linejoin="round" stroke-width="2"/>
        </g>
      </g>
    </g>
    <path id="Path_1616" data-name="Path 1616" d="M41.347,20.574A5.774,5.774,0,1,1,35.574,14.8,5.8,5.8,0,0,1,41.347,20.574Z" transform="translate(23.989 11.04)" fill="#00b6f0" stroke="#0d5caa" stroke-linecap="round" stroke-linejoin="round" stroke-width="2"/>
  </g>
</svg>
