<?xml version="1.0" encoding="iso-8859-1"?>
<!-- Generator: Adobe Illustrator 27.2.0, SVG Export Plug-In . SVG Version: 6.00 Build 0)  -->
<svg version="1.1" id="Capa_1" xmlns="http://www.w3.org/2000/svg" xmlns:xlink="http://www.w3.org/1999/xlink" x="0px" y="0px"
	 viewBox="0 0 510.417 510.417" style="enable-background:new 0 0 510.417 510.417;" xml:space="preserve">
<g>
	<g>
		<g>
			<path style="fill:#CFDDFE;" d="M408.495,255.367c0,84.569-68.556,153.125-153.125,153.125
				c-202.899-7.507-202.844-298.774,0.002-306.25C339.939,102.242,408.495,170.798,408.495,255.367z"/>
		</g>
		<g>
			<path style="fill:#85B3F7;" d="M359.27,367.837c-96.069,89.935-257.539,20.677-257.019-112.472
				c-0.001-80.508,62.129-146.508,141.069-152.648C137.719,199.771,214.529,379.141,359.27,367.837z"/>
		</g>
	</g>
	<g>
		<g>
			<path style="fill:#00CDD2;" d="M316.62,114.987c0,0,0,48.5,0,48.5c0,16.92-13.71,30.63-30.63,30.63h-61.24
				c-16.92,0-30.63,13.71-30.63,30.63c-0.003,16.919-13.713,30.617-30.63,30.62c0,0-61.24,0-61.24,0
				C100.404,146.759,218.337,70.189,316.62,114.987z"/>
		</g>
		<g>
			<path style="fill:#00A3CF;" d="M194.11,215.187c0,3.213,0.199,6.361,0.01,9.56c-0.003,16.919-13.713,30.617-30.63,30.62
				c0,0-61.24,0-61.24,0c-1.472-77.528,63.66-148.012,141.07-152.65C213.06,130.687,194.11,170.727,194.11,215.187z"/>
		</g>
		<g>
			<path style="fill:#00CDD2;" d="M408.49,255.367c0,50.09-24.05,94.56-61.24,122.5v-30.62c0-16.92-13.72-30.63-30.63-30.63
				c-16.907-0.002-30.634-13.708-30.63-30.63c-0.003-16.919,13.728-30.617,30.63-30.62
				C316.62,255.367,408.49,255.367,408.49,255.367z"/>
		</g>
		<g>
			<path style="fill:#00A3CF;" d="M224.75,347.777c0.004,16.922-13.722,30.628-30.63,30.63c0,0-29.9,0-29.9,0
				c-21.21-15.73-38.2-36.81-48.99-61.25h78.89C211.03,317.157,224.75,330.867,224.75,347.777z"/>
		</g>
	</g>
</g>
<g>
	<path style="fill:#FF604E;" d="M135.797,28.457c-3.905-3.905-10.237-3.905-14.143,0l-19.96,19.96H32.183c-5.523,0-10,4.477-10,10
		s4.477,10,10,10h49.512l-33.579,33.579H18.805c-5.523,0-10,4.477-10,10s4.477,10,10,10h23.454v23.454c0,5.523,4.477,10,10,10
		s10-4.477,10-10v-29.312L95.837,82.56v49.512c0,5.523,4.477,10,10,10s10-4.477,10-10V62.56l19.96-19.96
		C139.703,38.694,139.703,32.362,135.797,28.457z"/>
	<g>
		<path style="fill:#7FB800;" d="M255.37,510.367C78.835,511.966-46.772,329.899,16.704,165.385
			c1.947-5.166,7.716-7.776,12.884-5.826c5.167,1.949,7.776,7.718,5.827,12.886c-59.137,149.254,58.908,320.963,219.958,317.919
			c311.315-11.811,311.259-458.22-0.006-469.997c-30.476,0-60.126,5.746-88.123,17.08c-12.422,4.545-19.619-13.123-7.504-18.539
			c165.336-68.34,352.248,57.344,350.629,236.462C513.193,392.424,392.441,513.207,255.37,510.367z"/>
	</g>
	<g>
		<path style="fill:#002678;" d="M255.37,418.492c-89.947,0-163.125-73.178-163.125-163.125
			c8.201-216.11,318.082-216.051,326.25,0.002C418.495,345.314,345.317,418.492,255.37,418.492z M255.37,112.242
			c-78.919,0-143.125,64.206-143.125,143.125c7.195,189.614,279.083,189.562,286.25-0.002
			C398.495,176.447,334.289,112.242,255.37,112.242z"/>
	</g>
</g>
<g>
</g>
<g>
</g>
<g>
</g>
<g>
</g>
<g>
</g>
<g>
</g>
<g>
</g>
<g>
</g>
<g>
</g>
<g>
</g>
<g>
</g>
<g>
</g>
<g>
</g>
<g>
</g>
<g>
</g>
</svg>
