<svg id="clock" xmlns="http://www.w3.org/2000/svg" width="84" height="84" viewBox="0 0 84 84">
  <g id="Group_173714" data-name="Group 173714" transform="translate(0)">
    <path id="Path_91100" data-name="Path 91100" d="M84,42q0-.765-.027-1.524a42,42,0,0,0-83.946,0Q0,41.234,0,42C0,65.2,21.575,82.476,42,82.476,62.8,82.476,84,65.2,84,42Z" transform="translate(0)" fill="#32327F"/>
    <path id="Path_91101" data-name="Path 91101" d="M42,287.185A42,42,0,0,1,.031,246.709c-.018.506-.031,1.014-.031,1.524a42,42,0,0,0,84,0c0-.511-.012-1.018-.03-1.524A42,42,0,0,1,42,287.185Z" transform="translate(0 -206.233)" fill="#e6485d"/>
    <path id="Path_91102" data-name="Path 91102" d="M112.6,75.9a35.047,35.047,0,0,0-70.028,0c-.022.505,0,34.342,35.014,34.342S112.626,76.41,112.6,75.9Z" transform="translate(-35.59 -35.429)" fill="#fff"/>
    <path id="Path_91103" data-name="Path 91103" d="M77.429,280.232a35.046,35.046,0,0,1-35.012-33.523c-.022.506-.035,1.013-.035,1.524a35.047,35.047,0,0,0,70.093,0c0-.511-.013-1.019-.035-1.524A35.046,35.046,0,0,1,77.429,280.232Z" transform="translate(-35.429 -206.233)" fill="#d5e0f2"/>
    <path id="Path_91104" data-name="Path 91104" d="M284.918,177.322a2.54,2.54,0,0,0-3.592.025l-5.961,6.044.6,2.877,2.784.928,6.195-6.28A2.541,2.541,0,0,0,284.918,177.322Z" transform="translate(-230.187 -147.618)" fill="#405b6c"/>
    <path id="Path_91105" data-name="Path 91105" d="M143.644,154.782l-13.519-12.047a2.54,2.54,0,1,0-3.38,3.793l13.785,12.285,2.873-.958Z" transform="translate(-105.24 -118.779)" fill="#405b6c"/>
    <path id="Path_91106" data-name="Path 91106" d="M277.184,274.03a1.265,1.265,0,0,1-.816-.3l-16.09-13.515a1.27,1.27,0,1,1,1.634-1.945L278,271.787a1.27,1.27,0,0,1-.818,2.243Z" transform="translate(-217.197 -215.651)" fill="#86dcff"/>
    <path id="Path_91107" data-name="Path 91107" d="M215.1,223.477l2.372,2.114,3.047-1.035-.165-3.2-2.14-1.907A7.006,7.006,0,0,0,215.1,223.477Z" transform="translate(-179.813 -183.444)" fill="#2d4456"/>
    <path id="Path_91108" data-name="Path 91108" d="M265.086,218.038l-2.017,2.045V224.1h3.177l2.223-2.254A7.015,7.015,0,0,0,265.086,218.038Z" transform="translate(-219.909 -182.266)" fill="#2d4456"/>
    <path id="Path_91109" data-name="Path 91109" d="M239.121,232.356a4.343,4.343,0,0,0-8.132,0,4.075,4.075,0,1,0,8.132,0Z" transform="translate(-193.055 -191.88)" fill="#ff5876"/>
    <path id="Path_91110" data-name="Path 91110" d="M233.88,249.527a4.342,4.342,0,0,1-4.065-2.817,4.341,4.341,0,1,0,8.13,0A4.342,4.342,0,0,1,233.88,249.527Z" transform="translate(-191.88 -206.234)" fill="#e6485d"/>
  </g>
  <g id="Group_173715" data-name="Group 173715" transform="translate(10.137 10.137)">
    <path id="Path_91111" data-name="Path 91111" d="M250.788,67V63.062a1.273,1.273,0,1,0-2.545,0V67a1.273,1.273,0,1,0,2.545,0Z" transform="translate(-217.653 -61.789)" fill="#405b6c"/>
    <path id="Path_91112" data-name="Path 91112" d="M248.243,411.943v3.942a1.273,1.273,0,0,0,2.545,0v-3.942a1.273,1.273,0,0,0-2.545,0Z" transform="translate(-217.653 -353.432)" fill="#405b6c"/>
    <path id="Path_91113" data-name="Path 91113" d="M415.885,250.788a1.273,1.273,0,0,0,0-2.545h-3.942a1.273,1.273,0,0,0,0,2.545Z" transform="translate(-353.432 -217.653)" fill="#405b6c"/>
    <path id="Path_91114" data-name="Path 91114" d="M63.062,248.243a1.273,1.273,0,1,0,0,2.545H67a1.273,1.273,0,1,0,0-2.545Z" transform="translate(-61.789 -217.653)" fill="#405b6c"/>
  </g>
</svg>
