<?xml version="1.0" encoding="iso-8859-1"?>
<!-- Generator: Adobe Illustrator 28.1.0, SVG Export Plug-In . SVG Version: 6.00 Build 0)  -->
<svg version="1.1" id="Layer_1" xmlns="http://www.w3.org/2000/svg" xmlns:xlink="http://www.w3.org/1999/xlink" x="0px" y="0px"
	 viewBox="0 0 512 512" style="enable-background:new 0 0 512 512;" xml:space="preserve">
<g>
	<g>
		<g>
			<polygon style="fill:#FFFFFF;" points="434.13,193.87 256.89,261.6 79.65,193.87 203.74,154.16 207.1,153.08 256.89,137.15 
				306.68,153.08 308.26,153.59 			"/>
			<path style="fill:#D2DCFD;" d="M181.518,161.265L79.654,193.872l146.335,55.919C201.714,227.059,185.368,196.035,181.518,161.265
				z"/>
			<path style="fill:#D2DCFD;" d="M312.26,153.59v26.759c0,8.374-6.788,15.162-15.162,15.162h-82.196
				c-8.374,0-15.162-6.788-15.162-15.162V154.16l7.36-1.08l49.79-15.93l49.79,15.93L312.26,153.59z"/>
		</g>
		<g>
			<polygon style="fill:#FDCB50;" points="77.873,260.525 77.873,423.271 256,502 434.127,423.271 434.127,261.654 			"/>
			<path style="fill:#FD8F01;" d="M130.573,317.124c0-19.453,2.396-38.348,6.91-56.41l-59.609-0.189v162.747l113.029,49.957
				C153.406,431.923,130.573,377.177,130.573,317.124z"/>
		</g>
		<g>
			<polygon style="fill:#FD6050;" points="256,261.603 79.658,193.876 40.854,243.896 217.197,317.124 			"/>
			<path style="fill:#DB4B86;" d="M111.887,260.525c0-18.583,8.891-35.099,22.671-45.563l-54.9-21.085l-38.804,50.02l72.65,30.169
				C112.447,269.723,111.887,265.189,111.887,260.525z"/>
		</g>
		<polygon style="fill:#FD6050;" points="256,261.603 432.342,193.876 471.146,243.896 294.804,317.124 		"/>
		<polygon style="fill:#B1D952;" points="221.881,102.13 221.881,171.293 290.12,171.293 290.12,102.13 324.64,102.13 256,10 
			187.36,102.13 		"/>
	</g>
	<g>
		<g>
			<path style="fill:#6864F7;" d="M134.105,50.879c-3.901-3.883-10.208-3.883-14.109,0L99.631,71.149
				c-3.914,3.896-3.929,10.229-0.033,14.143c3.897,3.915,10.229,3.929,14.142,0.033l3.31-3.295v41.296c0,5.522,4.477,10,10,10
				s10-4.478,10-10V82.03l3.31,3.295c1.952,1.942,4.503,2.912,7.055,2.912c2.566,0,5.134-0.982,7.087-2.945
				c3.896-3.914,3.881-10.246-0.033-14.143L134.105,50.879z"/>
			<path style="fill:#6864F7;" d="M412.369,71.15L392.005,50.88c-3.902-3.885-10.209-3.886-14.109-0.001l-20.365,20.271
				c-3.914,3.896-3.929,10.229-0.033,14.143c1.955,1.963,4.521,2.945,7.088,2.945c2.551,0,5.104-0.971,7.055-2.912l3.311-3.295
				v41.296c0,5.522,4.478,10,10,10s10-4.478,10-10V82.03l3.31,3.294c3.913,3.896,10.246,3.881,14.142-0.032
				C416.298,81.378,416.283,75.046,412.369,71.15z"/>
		</g>
		<path style="fill:#052A75;" d="M479.047,237.766l-38.804-50.02c-0.002-0.002-0.004-0.005-0.006-0.007
			c-0.036-0.047-0.074-0.094-0.111-0.14c-0.006-0.007-0.012-0.015-0.018-0.022c-0.041-0.05-0.082-0.1-0.124-0.15
			c0,0-0.001-0.001-0.001-0.002c-0.847-1.005-1.899-1.852-3.12-2.469c-0.001,0-1.327-0.558-1.502-0.613l-135.242-43.504V112.13
			h24.521c3.782,0,7.24-2.134,8.938-5.514c1.696-3.38,1.341-7.428-0.918-10.461l-68.64-92.13C262.132,1.492,259.159,0,256,0
			c-3.159,0-6.132,1.492-8.019,4.025l-68.64,92.13c-2.26,3.033-2.615,7.081-0.918,10.461s5.155,5.514,8.937,5.514h24.521v28.709
			l-135.28,43.516c-0.078,0.025-1.291,0.515-1.291,0.515c-1.359,0.654-2.517,1.59-3.424,2.713c-0.001,0.001-0.002,0.002-0.003,0.003
			c-0.042,0.052-0.084,0.104-0.125,0.157l-0.002,0.002l-38.804,50.02c-1.91,2.463-2.563,5.675-1.766,8.688
			c0.797,3.013,2.954,5.481,5.833,6.677l30.854,12.812v157.328c0,3.959,2.336,7.546,5.958,9.146l178.127,78.729
			c1.288,0.569,2.665,0.854,4.042,0.854c1.378,0,2.755-0.284,4.043-0.854l178.127-78.729c3.621-1.601,5.957-5.188,5.957-9.146
			V265.943l30.854-12.812c2.879-1.195,5.035-3.664,5.832-6.677C481.611,243.44,480.957,240.229,479.047,237.766z M207.281,92.13
			L256,26.738l48.719,65.392h-14.6c-5.522,0-10,4.478-10,10v59.164h-48.238V102.13c0-5.522-4.477-10-10-10H207.281z
			 M221.881,181.294h68.238c5.522,0,10-4.478,10-10v-9.446l102.16,32.862L256,250.892L109.721,194.71l102.16-32.862v9.446
			C211.881,176.816,216.358,181.294,221.881,181.294z M83.007,205.874l157.473,60.48l-26.873,38.45L56.78,239.681L83.007,205.874z
			 M87.873,274.249l125.488,52.111c1.246,0.518,2.546,0.766,3.832,0.766c3.189,0,6.283-1.529,8.2-4.272L246,293.367v193.279
			L87.873,416.758V274.249z M424.127,416.758L266,486.646V293.367l20.607,29.485c1.917,2.743,5.011,4.272,8.2,4.272
			c1.285,0,2.586-0.248,3.831-0.766l125.488-52.111V416.758z M298.395,304.805l-26.874-38.45l157.473-60.48l26.227,33.807
			L298.395,304.805z"/>
	</g>
</g>
<g>
</g>
<g>
</g>
<g>
</g>
<g>
</g>
<g>
</g>
<g>
</g>
<g>
</g>
<g>
</g>
<g>
</g>
<g>
</g>
<g>
</g>
<g>
</g>
<g>
</g>
<g>
</g>
<g>
</g>
</svg>
