<?xml version="1.0" encoding="iso-8859-1"?>
<!-- Generator: Adobe Illustrator 28.1.0, SVG Export Plug-In . SVG Version: 6.00 Build 0)  -->
<svg version="1.1" id="Layer_1" xmlns="http://www.w3.org/2000/svg" xmlns:xlink="http://www.w3.org/1999/xlink" x="0px" y="0px"
	 viewBox="0 0 512 512" style="enable-background:new 0 0 512 512;" xml:space="preserve">
<g>
	<g>
		<rect x="102.154" y="10" style="fill:#27A2CC;" width="315.625" height="441.844"/>
		<g>
			<rect x="51.988" y="60.156" style="fill:#FFFFFF;" width="315.63" height="441.844"/>
			<path style="fill:#D2DCFD;" d="M367.618,277.241V502h-94.829c-23.246-23.844-37.572-56.435-37.572-92.377
				C235.216,336.515,294.499,277.241,367.618,277.241z"/>
			<path style="fill:#D2DCFD;" d="M93.983,253.141c0-70.928,20.37-137.1,55.58-192.985H51.988V502h140.901
				C131.572,437.065,93.983,349.493,93.983,253.141z"/>
		</g>
		<g>
			<rect x="122.217" y="395.409" style="fill:#B1D952;" width="175.462" height="53.567"/>
			<path style="fill:#91B706;" d="M297.68,395.409v53.567h-56.514c-3.863-12.429-5.949-25.65-5.949-39.352
				c0-4.805,0.261-9.55,0.752-14.214H297.68z"/>
		</g>
		<rect x="122.22" y="123.969" style="fill:#FD6050;" width="175.456" height="73.633"/>
		<ellipse style="fill:#FDCB50;" cx="367.615" cy="409.62" rx="92.394" ry="92.38"/>
	</g>
	<g>
		<g>
			<g>
				<path style="fill:#6864F7;" d="M297.676,253.11H122.22c-5.522,0-10-4.477-10-10s4.478-10,10-10h175.456c5.522,0,10,4.477,10,10
					S303.198,253.11,297.676,253.11z"/>
			</g>
			<g>
				<path style="fill:#6864F7;" d="M297.676,304.589H122.22c-5.522,0-10-4.477-10-10s4.478-10,10-10h175.456c5.522,0,10,4.477,10,10
					S303.198,304.589,297.676,304.589z"/>
			</g>
			<g>
				<path style="fill:#6864F7;" d="M122.218,356.068c-5.486,0-9.955-4.426-9.998-9.923c-0.042-5.522,4.4-10.034,9.923-10.077
					l99.302-0.769c0.026,0,0.053,0,0.079,0c5.486,0,9.955,4.426,9.998,9.923c0.042,5.522-4.4,10.034-9.923,10.077l-99.302,0.769
					C122.271,356.068,122.244,356.068,122.218,356.068z"/>
			</g>
		</g>
		<g>
			<g>
				<path style="fill:#FFFFFF;" d="M367.615,449.424c-5.522,0-10-4.477-10-10v-22.936c0-5.523,4.478-10,10-10s10,4.477,10,10v22.936
					C377.615,444.947,373.138,449.424,367.615,449.424z"/>
			</g>
			<g>
				<path style="fill:#FFFFFF;" d="M367.609,389.82c-4.285,0-8.177-2.85-9.504-6.911c-1.3-3.978,0.102-8.481,3.423-11.025
					c3.231-2.476,7.73-2.709,11.225-0.64c3.568,2.113,5.459,6.387,4.677,10.452C376.535,386.349,372.358,389.82,367.609,389.82z"/>
			</g>
		</g>
		<path style="fill:#052A75;" d="M427.778,326.821V10c0-5.523-4.478-10-10-10H102.154c-5.522,0-10,4.477-10,10v40.156H51.99
			c-5.522,0-10,4.477-10,10V502c0,5.523,4.478,10,10,10h315.625c56.461,0,102.395-45.928,102.395-102.38
			C470.01,375.628,453.356,345.452,427.778,326.821z M112.154,20h295.624v295.445c-9.417-4.03-19.555-6.688-30.163-7.721V60.156
			c0-5.523-4.478-10-10-10H112.154V20z M61.99,492V70.156h295.625v237.568c-51.786,5.042-92.395,48.816-92.395,101.896
			c0,33.738,16.406,63.718,41.661,82.38H61.99z M367.615,492c-45.433,0-82.395-36.956-82.395-82.38s36.962-82.38,82.395-82.38
			s82.395,36.956,82.395,82.38S413.048,492,367.615,492z"/>
	</g>
</g>
<g>
</g>
<g>
</g>
<g>
</g>
<g>
</g>
<g>
</g>
<g>
</g>
<g>
</g>
<g>
</g>
<g>
</g>
<g>
</g>
<g>
</g>
<g>
</g>
<g>
</g>
<g>
</g>
<g>
</g>
</svg>
