<svg xmlns="http://www.w3.org/2000/svg" xmlns:xlink="http://www.w3.org/1999/xlink" width="15" height="15" viewBox="0 0 15 15">
  <defs>
    <clipPath id="clip-path">
      <rect id="Rectangle_1573" data-name="Rectangle 1573" width="15" height="15" fill="#32327F" stroke="#707070" stroke-width="1"/>
    </clipPath>
  </defs>
  <g id="Mask_Group_568" data-name="Mask Group 568" clip-path="url(#clip-path)">
    <g id="file_1_" data-name="file (1)" transform="translate(1.188)">
      <g id="Group_2946" data-name="Group 2946">
        <g id="Group_2945" data-name="Group 2945">
          <path id="Path_2939" data-name="Path 2939" d="M8.845,3.776V0H1.193V15H8.167q-.132-.109-.255-.23T7.7,14.541a4.012,4.012,0,0,1-.961-2.2,4.061,4.061,0,0,1-.023-.43A4.007,4.007,0,0,1,8.078,8.9l0,0,.023-.02a4.017,4.017,0,0,1,3.822-.786,3.886,3.886,0,0,1,.459.176,3.936,3.936,0,0,1,.459.248V3.776ZM3.35,3.36H7.391v.918H3.35ZM7.42,7.995H3.379V7.076H7.42v.918ZM10.7,6.146H3.35V5.227H10.7v.918Z" transform="translate(-1.193)" fill="#32327F"/>
        </g>
      </g>
      <g id="Group_2948" data-name="Group 2948" transform="translate(8.571 0.029)">
        <g id="Group_2947" data-name="Group 2947">
          <path id="Path_2940" data-name="Path 2940" d="M9.763.029V2.857h2.814Z" transform="translate(-9.763 -0.029)" fill="#32327F"/>
        </g>
      </g>
      <g id="Group_2950" data-name="Group 2950" transform="translate(6.439 8.825)">
        <g id="Group_2949" data-name="Group 2949">
          <path id="Path_2941" data-name="Path 2941" d="M13.806,11.843c0-.007,0-.015,0-.022s0-.005,0-.008,0-.024,0-.037,0-.008,0-.011a.078.078,0,0,0,0-.008c0-.009,0-.019,0-.028s0-.019,0-.028,0-.026,0-.039,0-.03,0-.045h0l0-.017a.142.142,0,0,0,0-.017v-.008c0-.01,0-.021,0-.031v0q0-.016,0-.031V11.5c0-.023-.006-.046-.01-.068s-.007-.044-.011-.066-.009-.051-.014-.076-.009-.041-.013-.061v0l-.006-.023c0-.021-.01-.041-.015-.061s-.012-.044-.018-.066l0-.007-.014-.048v0l0-.006-.008-.025c-.006-.018-.011-.036-.017-.054l0-.014-.01-.027,0-.012c0-.013-.009-.026-.014-.039s-.014-.037-.021-.056v0c-.017-.043-.035-.087-.054-.129l-.007-.016-.029-.061v0l-.023-.046-.012-.024-.026-.05-.025-.045-.021-.038-.022-.037-.019-.031-.033-.053h0l-.041-.062-.041-.06h0l-.041-.056-.032-.042-.03-.038,0,0L13.1,9.948l-.02-.024-.051-.059-.015-.017-.056-.06-.016-.017-.007-.007-.011-.011-.011-.011-.026-.026,0,0-.02-.02-.043-.041-.008-.007L12.81,9.64l-.024-.022q-.054-.049-.111-.1l-.049-.039-.059-.045-.06-.044-.061-.042-.006,0-.054-.036-.007,0-.053-.033-.01-.006-.065-.038-.045-.025-.033-.018h0L12.14,9.17l-.082-.041L11.99,9.1l-.069-.03-.062-.026-.007,0-.06-.023-.014-.005-.057-.02L11.7,8.983l-.048-.016h0l-.027-.008h0l-.057-.017-.071-.019-.063-.016-.018,0-.068-.015-.076-.014L11.2,8.862h0l-.029,0-.044-.006-.03,0-.046-.005-.025,0-.053,0h-.009l-.029,0-.043,0h-.033l-.046,0h-.1A3.075,3.075,0,0,0,8.7,9.572l-.021.018a3.081,3.081,0,0,0-1.052,2.322,3.128,3.128,0,0,0,.018.332c0,.017,0,.034.006.051v0c0,.017,0,.033.007.049v0c0,.015,0,.031.007.046s.006.036.009.053.008.044.012.067l.012.059.006.026q.007.031.015.062c0,.017.008.033.013.049l.013.045.013.045c.009.03.018.06.028.089l.014.04,0,0,0,0c0,.014.01.028.015.042l.016.043.029.071c.006.016.013.032.021.048l.022.05v0h0c0,.011.009.022.015.032l.019.039,0,.007.026.051c.012.024.024.047.037.07l.022.039.011.019.011.019,0,.006.031.051,0,0,.017.027.017.026.026.039.021.031.025.036.033.046h0l.051.067.028.036.009.011.032.039.007.008,0,0,.036.042.036.041L8.447,14l.032.034.044.046.033.033.039.037,0,0,.026.025.034.031.035.031.056.048.055.045.02.016.057.043.074.054.07.048.009.006.061.039,0,0,0,0,.007,0,.037.023.038.022.035.02.048.026.049.026.025.013,0,0,.037.018h0l.035.017.035.016.046.02.041.017.009,0,.033.013.01,0,.047.018.048.017.094.032h0l.047.015.105.029.034.009h0l.054.013.055.012.009,0h0l.026,0,.056.011.051.008.014,0h.007l.01,0,.045.006h0l.017,0,.018,0,.013,0,.05.006h.017l.058,0h.011l.049,0h.012l.035,0h.132a3.088,3.088,0,0,0,3.088-3.088C13.807,11.889,13.807,11.866,13.806,11.843Zm-1.462.558H11.178v1.226H10.26V12.4H9.094v-.918H10.26V10.257h.918v1.226h1.166V12.4Z" transform="translate(-7.631 -8.825)" fill="#32327F"/>
        </g>
      </g>
    </g>
  </g>
</svg>
