<?xml version="1.0" encoding="iso-8859-1"?>
<!-- Generator: Adobe Illustrator 26.5.1, SVG Export Plug-In . SVG Version: 6.00 Build 0)  -->
<svg version="1.1" id="Capa_1" xmlns="http://www.w3.org/2000/svg" xmlns:xlink="http://www.w3.org/1999/xlink" x="0px" y="0px"
	 viewBox="0 0 510 510" style="enable-background:new 0 0 510 510;" xml:space="preserve">
<g>
	<g>
		<rect x="111.431" y="233" style="fill:#FDCB50;" width="287.137" height="267"/>
		<path style="fill:#FD8F01;" d="M236.837,332.07c0-35.008,6.751-68.437,19.004-99.07h-144.41v267h184.863
			C259.122,454.133,236.837,395.708,236.837,332.07z"/>
		<path style="fill:#FFFFFF;" d="M200.705,233h108.591v97.84l-18.098-18.098l-18.098,18.098L255,312.741l-18.098,18.098L200.705,233
			z"/>
		<path style="fill:#D2DCFD;" d="M255.841,233h-55.136v97.839l18.098-18.098l18.05,18.05
			C237.016,296.249,243.738,263.259,255.841,233z"/>
		<g>
			<polygon style="fill:#FD7DA0;" points="192.338,90.659 255,178.855 317.662,90.659 281.907,90.659 281.907,10 228.093,10 
				228.093,90.659 			"/>
		</g>
	</g>
	<g>
		<g>
			<g>
				<path style="fill:#FFFFFF;" d="M222.431,410h-64c-5.523,0-10-4.477-10-10s4.477-10,10-10h64c5.523,0,10,4.477,10,10
					S227.954,410,222.431,410z"/>
			</g>
			<g>
				<path style="fill:#FFFFFF;" d="M192.403,454h-33.972c-5.523,0-10-4.477-10-10s4.477-10,10-10h33.972c5.523,0,10,4.477,10,10
					S197.926,454,192.403,454z"/>
			</g>
		</g>
		<g>
			<path style="fill:#052A75;" d="M507.071,124.498c-3.905-3.905-10.237-3.905-14.143,0L394.426,223H115.574l-98.502-98.502
				c-3.905-3.905-10.237-3.905-14.143,0c-3.905,3.905-3.905,10.237,0,14.143l98.502,98.502V500c0,5.523,4.477,10,10,10h287.138
				c5.523,0,10-4.477,10-10V237.143l98.502-98.502C510.976,134.735,510.976,128.403,507.071,124.498z M388.569,490H121.431V243
				h267.138V490z"/>
			<path style="fill:#052A75;" d="M246.848,184.647c1.875,2.64,4.914,4.208,8.152,4.208s6.276-1.568,8.152-4.208l62.662-88.196
				c2.167-3.05,2.45-7.055,0.734-10.379c-1.716-3.325-5.145-5.413-8.886-5.413h-25.755V10c0-5.523-4.477-10-10-10h-53.814
				c-2.652,0-5.196,1.054-7.071,2.929c-1.875,1.875-2.929,4.418-2.929,7.071l0,70.659h-25.755c-3.741,0-7.17,2.088-8.886,5.413
				c-1.716,3.324-1.433,7.329,0.734,10.379L246.848,184.647z M228.093,100.659c2.652,0,5.196-1.054,7.071-2.929
				c1.875-1.875,2.929-4.419,2.929-7.071l0-70.659h33.814v70.659c0,5.523,4.477,10,10,10h16.383L255,161.589l-43.29-60.93H228.093z"
				/>
		</g>
	</g>
</g>
<g>
</g>
<g>
</g>
<g>
</g>
<g>
</g>
<g>
</g>
<g>
</g>
<g>
</g>
<g>
</g>
<g>
</g>
<g>
</g>
<g>
</g>
<g>
</g>
<g>
</g>
<g>
</g>
<g>
</g>
</svg>
