<?xml version="1.0" encoding="iso-8859-1"?>
<!-- Generator: Adobe Illustrator 26.5.1, SVG Export Plug-In . SVG Version: 6.00 Build 0)  -->
<svg version="1.1" id="Capa_1" xmlns="http://www.w3.org/2000/svg" xmlns:xlink="http://www.w3.org/1999/xlink" x="0px" y="0px"
	 viewBox="0 0 510.001 510.001" style="enable-background:new 0 0 510.001 510.001;" xml:space="preserve">
<g>
	<g>
		<path style="fill-rule:evenodd;clip-rule:evenodd;fill:#D2DCFD;" d="M300.814,500.001c-22.002,0-39.837-17.836-39.837-39.837
			l0-19.918H60.001H10.001l0,19.918c0,22.002,17.836,39.837,39.838,39.837H300.814z"/>
		<path style="fill-rule:evenodd;clip-rule:evenodd;fill:#FFFFFF;" d="M60.001,440.246h200.976l0,19.918
			c0,22.002,17.836,39.837,39.837,39.837c22.002,0,39.837-17.836,39.837-39.837v-117.52l0-190.958
			c0-22.002,17.836-39.837,39.837-39.837H200.001H99.958c-22.015-0.155-39.957,17.881-39.957,39.837L60.001,440.246z"/>
		<path style="fill-rule:evenodd;clip-rule:evenodd;fill:#D2DCFD;" d="M60.001,440.246h200.976l0,19.918
			c0,22.002,17.836,39.837,39.837,39.837l0.163-0.002c0-21.612,0-43.225,0-64.837c0-17.205-20.026-34.916-40-34.916H60.001V440.246z
			"/>
		<path style="fill-rule:evenodd;clip-rule:evenodd;fill:#D2DCFD;" d="M340.651,151.685v190.958h119.512
			c-22.002,0-39.837-17.836-39.837-39.837V151.685c0-22.002-17.836-39.837-39.837-39.837S340.651,129.683,340.651,151.685z"/>
		<path style="fill-rule:evenodd;clip-rule:evenodd;fill:#FFFFFF;" d="M420.326,151.685v151.121
			c0,22.002,17.835,39.837,39.837,39.837S500,324.807,500,302.806V10.001l-37.5,20l-37.5-20l-37.5,20l-37.5-20l-37.5,20l-37.5-20
			l-37.5,20l-37.5-20l0,101.847h180.488C402.49,111.848,420.326,129.683,420.326,151.685z"/>
		<path style="fill-rule:evenodd;clip-rule:evenodd;fill:#D2DCFD;" d="M420.326,151.685v151.121
			c0,22.002,17.835,39.837,39.837,39.837l0.163-0.002c0-63.652,0-127.304-0.001-190.956c0-21.219-8.383-41.451-23.384-56.453
			c-15.001-15.002-35.234-23.384-56.453-23.384H200.001v40h180.488C402.49,111.848,420.326,129.683,420.326,151.685z"/>
		
			<ellipse transform="matrix(0.7071 -0.7071 0.7071 0.7071 -120.6103 215.9139)" style="fill-rule:evenodd;clip-rule:evenodd;fill:#B1D952;" cx="200.326" cy="253.546" rx="80" ry="80"/>
		<g>
			<path style="fill:#FFFFFF;" d="M190.225,283.75c-2.652,0-5.195-1.054-7.071-2.929l-18.413-18.413
				c-3.905-3.905-3.905-10.237,0-14.142c3.906-3.905,10.236-3.906,14.143,0l11.342,11.342l27.644-27.645
				c3.906-3.905,10.236-3.906,14.143,0c3.905,3.905,3.905,10.237,0,14.142l-34.715,34.716
				C195.421,282.696,192.877,283.75,190.225,283.75z"/>
		</g>
		<g>
			<path style="fill:#6864F7;" d="M245.489,388.547h-90.325c-5.522,0-10-4.477-10-10s4.478-10,10-10h90.325c5.522,0,10,4.477,10,10
				S251.011,388.547,245.489,388.547z"/>
		</g>
	</g>
	<path style="fill:#052A75;" d="M505.145,1.426c-3.011-1.808-6.752-1.901-9.851-0.249L462.5,18.667l-32.794-17.49
		c-2.941-1.568-6.471-1.568-9.412,0L387.5,18.667l-32.794-17.49c-2.941-1.568-6.471-1.568-9.412,0L312.5,18.667l-32.794-17.49
		c-2.941-1.568-6.471-1.568-9.412,0L237.5,18.667l-32.794-17.49c-3.101-1.653-6.839-1.56-9.851,0.249
		C191.843,3.233,190,6.488,190,10.001v91.847h-89.972c-0.119,0-0.237-0.001-0.356-0.001c-13.134,0-25.516,5.119-34.9,14.438
		c-9.524,9.458-14.771,22.03-14.771,35.4v278.561H10c-5.522,0-10,4.477-10,10v19.917c0,27.48,22.357,49.837,49.838,49.837h250.976
		c27.48,0,49.838-22.357,49.838-49.837l0-107.52h109.512c27.48,0,49.837-22.357,49.837-49.837V10.001
		C510,6.488,508.158,3.233,505.145,1.426z M49.838,490.001C33.385,490.001,20,476.615,20,460.163v-9.917h230.977v9.917
		c0,11.181,3.701,21.514,9.942,29.837H49.838z M300.814,490.001c-16.452,0-29.837-13.385-29.837-29.837v-19.917
		c0-5.523-4.478-10-10-10H70.001V151.685c0-8.001,3.147-15.533,8.863-21.208c5.66-5.62,13.106-8.659,21.094-8.629h240.635
		c-6.241,8.324-9.942,18.656-9.942,29.837l0.001,308.479C330.652,476.615,317.267,490.001,300.814,490.001z M350.651,151.685
		c0-16.452,13.386-29.837,29.838-29.837s29.837,13.385,29.837,29.837v151.121c0,11.181,3.701,21.514,9.943,29.837h-69.617
		L350.651,151.685z M490,302.806c0,16.452-13.385,29.837-29.837,29.837s-29.838-13.385-29.838-29.837V151.685
		c0-27.48-22.356-49.837-49.837-49.837H210V26.667l22.794,12.157c2.941,1.568,6.471,1.568,9.412,0L275,21.334l32.794,17.49
		c2.941,1.568,6.471,1.568,9.412,0L350,21.334l32.794,17.49c2.941,1.568,6.471,1.568,9.412,0L425,21.334l32.794,17.49
		c2.941,1.568,6.471,1.568,9.412,0L490,26.667V302.806z"/>
</g>
<g>
</g>
<g>
</g>
<g>
</g>
<g>
</g>
<g>
</g>
<g>
</g>
<g>
</g>
<g>
</g>
<g>
</g>
<g>
</g>
<g>
</g>
<g>
</g>
<g>
</g>
<g>
</g>
<g>
</g>
</svg>
