<svg xmlns="http://www.w3.org/2000/svg" width="14" height="14" viewBox="0 0 14 14">
  <path id="Path_89613" data-name="Path 89613" d="M7.875-11.375A.874.874,0,0,0,7-12.25a.874.874,0,0,0-.875.875v6.636L4.118-6.746a.876.876,0,0,0-1.239,0,.876.876,0,0,0,0,1.239l3.5,3.5a.876.876,0,0,0,1.239,0l3.5-3.5a.876.876,0,0,0,0-1.239.876.876,0,0,0-1.239,0l-2,2.007ZM1.75-2.625A1.752,1.752,0,0,0,0-.875V0A1.752,1.752,0,0,0,1.75,1.75h10.5A1.752,1.752,0,0,0,14,0V-.875a1.752,1.752,0,0,0-1.75-1.75H9.475L8.236-1.386a1.749,1.749,0,0,1-2.475,0L4.525-2.625ZM11.813-1.094a.656.656,0,0,1,.656.656.656.656,0,0,1-.656.656.656.656,0,0,1-.656-.656A.656.656,0,0,1,11.813-1.094Z" transform="translate(0 12.25)" fill="#878787"/>
</svg>
