<svg xmlns="http://www.w3.org/2000/svg" width="108" height="117.79" viewBox="0 0 108 117.79">
  <g id="Group_1051" data-name="Group 1051" transform="translate(11856 3764)">
    <g id="Mask_Group_6_2_" transform="translate(-11856 -3764)">
      <g id="Untitled-2-01_2_">
        <g id="Path_70_2_" transform="translate(0 61.065)">
          <path id="Path_110_2_" d="M708.557,551.9l-6.92-2.674c-1.73-.786-3.617-1.415-5.347-2.045-.315.472-.472,1.1-.786,1.573l-.786-2.2,1.573.629c1.1-2.2,2.045-4.561,3.146-6.763,1.258-2.831,2.516-5.5,3.775-8.336l1.887-4.246,1.73-4.246c.629-1.415,1.258-2.831,1.73-4.246s1.1-2.831,1.73-4.246c-.786,1.258-1.573,2.674-2.359,3.932s-1.573,2.674-2.2,3.932l-2.2,4.089-2.2,4.089c-1.416,2.674-2.831,5.5-4.246,8.178s-2.831,5.5-4.089,8.178l-.786,1.573,1.573.629c2.359.943,4.561,1.887,6.763,2.831l6.92,2.831,1.416.629.786-3.46Z" transform="translate(-692.2 -515.1)" fill="#6ca142"/>
        </g>
        <g id="Path_71_2_" transform="translate(25.575 105.208)">
          <path id="Path_111_2_" d="M730.371,527.875l-2.2,5.19c.472.157.786.315,1.258.472l-1.887.786.629-1.258c-1.887-.786-3.775-1.573-5.5-2.359l-6.763-2.831c-2.359-.944-4.561-1.887-6.763-2.831h-.157L697.5,524.1l3.617,1.416,6.92,2.674c2.359.944,4.561,1.73,6.92,2.674l6.92,2.674c2.359.944,4.561,1.73,6.92,2.674l1.416.472.472-1.258,2.359-6.606.629-1.887-2.359-.157Z" transform="translate(-697.5 -524.1)" fill="#6ca142"/>
        </g>
        <g id="Path_72_2_" transform="translate(55.541 114.129)">
          <path id="Path_112_2_" d="M705.387,526.372c-.472-.157-.786-.315-1.258-.472l-.629,1.258Z" transform="translate(-703.5 -525.9)" fill="#6ca142"/>
        </g>
        <g id="Path_73_2_" transform="translate(44.05 2.181)">
          <path id="Path_113_2_" d="M701.2,503.786c.472.157.786.315,1.258.472l.629-1.258Z" transform="translate(-701.2 -503)" fill="#6ca142"/>
        </g>
        <g id="Path_74_2_" transform="translate(94.079 21.172)">
          <path id="Path_114_2_" d="M712.029,506.9l-.629,1.573,1.573.629Z" transform="translate(-711.4 -506.9)" fill="#6ca142"/>
        </g>
        <g id="Path_75_2_" transform="translate(78.281 14.008)">
          <path id="Path_115_2_" d="M726.6,511.691c-2.2-.786-4.247-1.73-6.448-2.674L713.7,506.5l-2.831-1.1-.157,3.617,1.887.786,6.448,2.516c1.573.629,3.3,1.258,5.033,1.887l.629-1.573.944,2.045-1.573-.629c-1.416,3.3-2.674,6.763-3.932,10.066l-4.718,11.8-.786,2.2-2.2,5.976-2.2,5.976c-.786,2.045-1.416,3.932-2.045,5.976l2.831-5.662c.944-1.887,1.887-3.775,2.674-5.662l2.674-5.662,1.1-2.045c1.73-3.775,3.46-7.549,5.19-11.481,1.73-3.775,3.3-7.707,5.033-11.481l.629-1.573Z" transform="translate(-708.2 -505.4)" fill="#6ca142"/>
        </g>
        <g id="Path_76_2_" transform="translate(41.015)">
          <path id="Path_116_2_" d="M730.482,512.666l-6.448-2.516c-2.2-.786-4.4-1.573-6.448-2.359l-6.448-2.359c-2.2-.786-4.4-1.573-6.448-2.359l-1.416-.472-.472,1.258-.472,1.573c-.157.472-.315,1.1-.472,1.573l-.944,3.3-.315,1.1,1.573.315.472-.786,1.573-3.146c.315-.472.472-1.1.786-1.573l.157-.315c-.472-.157-.786-.315-1.258-.472l1.887-.786-.629,1.258c1.73.786,3.46,1.416,5.19,2.2l6.448,2.674c2.2.786,4.246,1.73,6.448,2.516l1.1.472,11.324.786Z" transform="translate(-700.6 -502.6)" fill="#6ca142"/>
        </g>
        <g id="Path_77_2_" transform="translate(14.995 69.522)">
          <path id="Path_117_2_" d="M702.435,516.8c-.157,1.416-.157,2.831-.315,4.4l-.472,4.4-.472,4.4-.472,4.4c-.315,2.831-.629,5.819-1.1,8.65s-.786,5.819-1.1,8.65l-1.416-1.887,7.077.472,6.92.629,6.92.629,6.92.472,6.92.629c2.359.157,4.718.472,6.92.629l6.92.786c2.359.157,4.718.472,6.92.786l-1.573,1.258.472-3.3.472-3.3.786-6.605.944-6.606c.314-2.2.629-4.4,1.1-6.606v6.763c0,2.2,0,4.4-.157,6.763l-.157,6.605-.157,3.3-.157,3.3v1.416h-1.415l-7.077-.472-7.077-.472-7.078-.472-6.92-.472-6.92-.629-6.92-.629-6.92-.629c-2.359-.157-4.718-.472-6.92-.629l-1.73-.157.315-1.573c.472-2.831.943-5.662,1.573-8.65.472-2.831,1.1-5.662,1.573-8.493l.786-4.246.944-4.247.943-4.246C701.806,519.631,702.12,518.058,702.435,516.8Z" transform="translate(-695.2 -516.8)" fill="#6ca142"/>
        </g>
        <g id="Path_78_2_" transform="translate(27.303 6.865)">
          <path id="Path_118_2_" d="M747.158,556.959c0-2.045.157-3.932.314-5.977.157-1.887.157-3.932.315-5.976l.315-5.819.472-5.976c.314-3.932.629-7.864.786-11.8l.944-11.8,1.416,1.73-6.606-.472-6.606-.472-6.606-.472-6.606-.472-6.606-.472-6.606-.629-6.606-.629c-2.2-.157-4.4-.472-6.605-.629l1.573-1.258-.314,1.573a5.586,5.586,0,0,1-.315,1.573l-.472,3.146c-.157,1.1-.472,2.2-.629,3.146-.315,1.1-.472,2.2-.786,3.146-.157-1.1-.157-2.2-.314-3.3a25.47,25.47,0,0,1,.157-3.46V503.8h1.573c2.2.157,4.4.157,6.606.472l6.606.472,6.606.472,6.605.472,6.606.472,6.605.472,6.606.472,6.606.629,1.573.157-.157,1.573-1.416,11.8c-.472,3.932-.944,7.864-1.573,11.8l-.786,5.976-.786,5.977c-.315,2.045-.629,3.932-.786,5.976C747.944,553.027,747.472,554.914,747.158,556.959Z" transform="translate(-697.572 -503.8)" fill="#6ca142"/>
        </g>
        <g id="Path_79_2_" transform="translate(80.972 62.488)">
          <path id="Path_119_2_" d="M713.875,516.853a2.708,2.708,0,1,1-3.617-1.258,3.067,3.067,0,0,1,2.045-.157A3.443,3.443,0,0,1,713.875,516.853Z" transform="translate(-708.726 -515.334)" fill="#add15c"/>
        </g>
        <g id="Path_80_2_" transform="translate(79.791 72.545)">
          <path id="Path_120_2_" d="M712.285,518.511a2,2,0,1,1-2.674-.944h0A2.076,2.076,0,0,1,712.285,518.511Z" transform="translate(-708.482 -517.382)" fill="#add15c"/>
        </g>
        <g id="Path_81_2_" transform="translate(83.428 68.584)">
          <path id="Path_121_2_" d="M712.985,517.711a2,2,0,1,1-2.674-.943h0A2.024,2.024,0,0,1,712.985,517.711Z" transform="translate(-709.182 -516.582)" fill="#add15c"/>
        </g>
        <g id="Path_82_2_" transform="translate(78.808 86.042)">
          <path id="Path_122_2_" d="M712.085,521.321a2,2,0,1,1-2.674-.943h0a1.941,1.941,0,0,1,2.674.943Z" transform="translate(-708.282 -520.165)" fill="#add15c"/>
        </g>
        <g id="Path_83_2_" transform="translate(90.798 62.817)">
          <path id="Path_123_2_" d="M712.891,516.018a1.223,1.223,0,0,1-.472,1.573,1.275,1.275,0,0,1-1.573-.472,1.161,1.161,0,0,1,2.045-1.1Z" transform="translate(-710.719 -515.42)" fill="#add15c"/>
        </g>
        <g id="Ellipse_19_2_" transform="translate(79.865 82.417)">
          <circle id="Ellipse_3_2_" cx="0.629" cy="0.629" r="0.629" transform="translate(0 0)" fill="#add15c"/>
        </g>
        <g id="Ellipse_20_2_" transform="translate(92.071 76.559)">
          <circle id="Ellipse_4_2_" cx="0.629" cy="0.629" r="0.629" transform="translate(0 0)" fill="#add15c"/>
        </g>
        <g id="Path_84_2_" transform="translate(99.642 70.382)">
          <path id="Path_124_2_" d="M713.881,517.337a.7.7,0,1,1-.943-.315h0A.756.756,0,0,1,713.881,517.337Z" transform="translate(-712.561 -516.961)" fill="#add15c"/>
        </g>
        <g id="Path_85_2_" transform="translate(87.101 83.645)">
          <path id="Path_125_2_" d="M711.281,520.04a.7.7,0,1,1-.944-.315h0c.157,0,.315-.157.472,0C711.123,519.726,711.281,519.883,711.281,520.04Z" transform="translate(-709.961 -519.656)" fill="#add15c"/>
        </g>
        <g id="Path_86_2_" transform="translate(95.156 57.677)">
          <path id="Path_126_2_" d="M712.981,514.74a.7.7,0,1,1-.943-.315h0c.157,0,.315-.157.472,0,.157,0,.315.157.472.315Z" transform="translate(-711.661 -514.356)" fill="#add15c"/>
        </g>
        <g id="Path_87-2_2_" transform="translate(93.275 72.797)">
          <path id="Path_127_2_" d="M713.391,517.993a1.223,1.223,0,0,1-.472,1.573,1.274,1.274,0,0,1-1.573-.472,1.223,1.223,0,0,1,.472-1.573A1.424,1.424,0,0,1,713.391,517.993Z" transform="translate(-711.219 -517.463)" fill="#add15c"/>
        </g>
        <g id="Path_88-2_2_" transform="translate(90.381 67.541)">
          <path id="Path_128_2_" d="M714.014,517.353a1.758,1.758,0,1,1-2.359-.786,1.5,1.5,0,0,1,1.416,0A1.611,1.611,0,0,1,714.014,517.353Z" transform="translate(-710.68 -516.385)" fill="#add15c"/>
        </g>
        <g id="Path_89-2_2_" transform="translate(82.564 79.249)">
          <path id="Path_129_2_" d="M711.191,519.429a1.161,1.161,0,1,1-1.573-.472h0a1.056,1.056,0,0,1,1.573.472Z" transform="translate(-709.02 -518.8)" fill="#add15c"/>
        </g>
        <g id="Path_90-2_2_" transform="translate(86.448 59.263)">
          <path id="Path_130_2_" d="M711.991,515.329a1.223,1.223,0,0,1-.472,1.573,1.274,1.274,0,0,1-1.573-.472,1.223,1.223,0,0,1,.472-1.573,1.09,1.09,0,0,1,1.573.472Z" transform="translate(-709.82 -514.7)" fill="#add15c"/>
        </g>
        <g id="Path_91-2_2_" transform="translate(86.96 52.611)">
          <path id="Path_131_2_" d="M712.091,513.918a1.223,1.223,0,0,1-.472,1.573,1.274,1.274,0,0,1-1.573-.472,1.223,1.223,0,0,1,.472-1.573h0A1.17,1.17,0,0,1,712.091,513.918Z" transform="translate(-709.919 -513.319)" fill="#add15c"/>
        </g>
        <g id="Path_92-2_2_" transform="translate(78.169 77.982)">
          <path id="Path_132_2_" d="M710.291,519.129a1.223,1.223,0,0,1-.472,1.573,1.274,1.274,0,0,1-1.573-.472,1.222,1.222,0,0,1,.472-1.573,1.09,1.09,0,0,1,1.573.472Z" transform="translate(-708.12 -518.5)" fill="#add15c"/>
        </g>
        <g id="Path_93-2_2_" transform="translate(96.177 66.572)">
          <path id="Path_133_2_" d="M713.991,516.829a1.223,1.223,0,0,1-.472,1.573,1.274,1.274,0,0,1-1.573-.472,1.223,1.223,0,0,1,.472-1.573A1.09,1.09,0,0,1,713.991,516.829Z" transform="translate(-711.82 -516.2)" fill="#add15c"/>
        </g>
        <g id="Path_94-2_2_" transform="translate(86.435 74.678)">
          <path id="Path_134_2_" d="M713.842,519.039a2.11,2.11,0,1,1-2.831-.943h0a1.86,1.86,0,0,1,1.573-.157A2.182,2.182,0,0,1,713.842,519.039Z" transform="translate(-709.882 -517.834)" fill="#add15c"/>
        </g>
        <g id="Path_95-2_2_" transform="translate(14.197 42.666)">
          <path id="Path_135_2_" d="M695.256,514.917a2.688,2.688,0,1,1,3.46,1.573h0a2.739,2.739,0,0,1-3.46-1.573Z" transform="translate(-695.102 -511.302)" fill="#add15c"/>
        </g>
        <g id="Path_96-2_2_" transform="translate(16.423 34.646)">
          <path id="Path_136_2_" d="M695.635,512.251a2.125,2.125,0,0,1,1.1-2.516h0a2.059,2.059,0,0,1,2.516,1.258,2.125,2.125,0,0,1-1.1,2.516h0A2.062,2.062,0,0,1,695.635,512.251Z" transform="translate(-695.538 -509.639)" fill="#add15c"/>
        </g>
        <g id="Path_97-2_2_" transform="translate(12.161 38.066)">
          <path id="Path_137_2_" d="M694.736,512.952a1.942,1.942,0,1,1,2.516,1.1h0a1.845,1.845,0,0,1-2.516-1.1Z" transform="translate(-694.638 -510.338)" fill="#add15c"/>
        </g>
        <g id="Path_98-2_2_" transform="translate(19.192 21.376)">
          <path id="Path_138_2_" d="M696.235,509.552a1.942,1.942,0,1,1,2.516,1.1h0A1.761,1.761,0,0,1,696.235,509.552Z" transform="translate(-696.138 -506.938)" fill="#add15c"/>
        </g>
        <g id="Path_99-2_2_" transform="translate(5.857 44.846)">
          <path id="Path_139_2_" d="M693.415,513.23a1.145,1.145,0,1,1,1.416.786h0a1.277,1.277,0,0,1-1.416-.786Z" transform="translate(-693.375 -511.775)" fill="#add15c"/>
        </g>
        <g id="Path_100-2_2_" transform="translate(20.021 27.497)">
          <path id="Path_140_2_" d="M696.321,509.008a.649.649,0,0,1,1.258-.315c0,.472,0,.786-.472.786h-.472C696.479,509.323,696.321,509.323,696.321,509.008Z" transform="translate(-696.263 -508.163)" fill="#add15c"/>
        </g>
        <g id="Path_101-2_2_" transform="translate(7.258 32.082)">
          <path id="Path_141_2_" d="M693.721,510.008a.648.648,0,0,1,1.258-.315.575.575,0,0,1-.315.786h-.472Z" transform="translate(-693.663 -509.163)" fill="#add15c"/>
        </g>
        <g id="Path_102-2_2_" transform="translate(12.858 25.427)">
          <path id="Path_142_2_" d="M694.821,508.608a.648.648,0,0,1,1.258-.315.575.575,0,0,1-.315.786h-.472Z" transform="translate(-694.763 -507.763)" fill="#add15c"/>
        </g>
        <g id="Path_103-2_2_" transform="translate(4.74 34.649)">
          <path id="Path_143_2_" d="M693.215,511.13a1.145,1.145,0,1,1,1.416.786h0A1.125,1.125,0,0,1,693.215,511.13Z" transform="translate(-693.175 -509.675)" fill="#add15c"/>
        </g>
        <g id="Path_104-2_2_" transform="translate(5.683 38.656)">
          <path id="Path_144_2_" d="M693.435,512.894a1.841,1.841,0,1,1,2.359,1.1A1.87,1.87,0,0,1,693.435,512.894Z" transform="translate(-693.338 -510.438)" fill="#add15c"/>
        </g>
        <g id="Path_105-2_2_" transform="translate(16.054 29.471)">
          <path id="Path_145_2_" d="M695.515,510.03a1.145,1.145,0,1,1,1.415.786h0A1.125,1.125,0,0,1,695.515,510.03Z" transform="translate(-695.475 -508.575)" fill="#add15c"/>
        </g>
        <g id="Path_106-2_2_" transform="translate(9.738 48.898)">
          <path id="Path_146_2_" d="M694.215,514.03a1.145,1.145,0,1,1,1.416.786h0A1.125,1.125,0,0,1,694.215,514.03Z" transform="translate(-694.175 -512.575)" fill="#add15c"/>
        </g>
        <g id="Path_107-2_2_" transform="translate(8.378 55.349)">
          <path id="Path_147_2_" d="M693.915,515.33a1.145,1.145,0,1,1,1.416.786h0A1.276,1.276,0,0,1,693.915,515.33Z" transform="translate(-693.875 -513.875)" fill="#add15c"/>
        </g>
        <g id="Path_108-2_2_" transform="translate(19.491 31.19)">
          <path id="Path_148_2_" d="M696.215,510.43a1.145,1.145,0,1,1,1.416.786h0A1.474,1.474,0,0,1,696.215,510.43Z" transform="translate(-696.175 -508.975)" fill="#add15c"/>
        </g>
        <g id="Path_109-2_2_" transform="translate(10.024 31.55)">
          <path id="Path_149_2_" d="M694.335,511.809a2.09,2.09,0,1,1,2.674,1.258h0a2.679,2.679,0,0,1-1.573,0A2.8,2.8,0,0,1,694.335,511.809Z" transform="translate(-694.239 -509.039)" fill="#add15c"/>
        </g>
        <g id="Path_110-2_2_" transform="translate(37.153 28.124)">
          <path id="Path_150_2_" d="M699.857,508.3h5.976a4.39,4.39,0,0,1,2.831.944,3.144,3.144,0,0,1,.943,2.674,3.448,3.448,0,0,1-1.1,2.674,3.963,3.963,0,0,1-3.146.944h-2.045v4.246H699.7l.157-11.481Zm3.617,4.876h.944a2.338,2.338,0,0,0,1.416-.314,1.121,1.121,0,0,0,.472-.944,1.359,1.359,0,0,0-.472-.944,2.2,2.2,0,0,0-1.416-.472h-1.1l.157,2.674Z" transform="translate(-699.7 -508.3)" fill="#179236"/>
        </g>
        <g id="Path_111-2_2_" transform="translate(47.686 28.106)">
          <path id="Path_151_2_" d="M701.9,516.121l3.46-.157a1.786,1.786,0,0,0,.472,1.258,2.183,2.183,0,0,0,1.573.786,3.7,3.7,0,0,0,1.258-.315.891.891,0,0,0,0-1.573,4.471,4.471,0,0,0-1.887-.629,6.261,6.261,0,0,1-3.3-1.415,2.418,2.418,0,0,1-.944-2.2,3.17,3.17,0,0,1,.472-1.73,3.99,3.99,0,0,1,1.573-1.258,8.9,8.9,0,0,1,2.831-.472,4.945,4.945,0,0,1,3.3.786,4.071,4.071,0,0,1,1.416,2.674l-3.3.157a1.691,1.691,0,0,0-1.573-1.573h-.157a1.156,1.156,0,0,0-.944.314.734.734,0,0,0-.157,1.1l.157.157c.315.314.786.314,1.258.472a8.216,8.216,0,0,1,3.3,1.1,6.159,6.159,0,0,1,1.573,1.258,3.17,3.17,0,0,1,.472,1.73,3.755,3.755,0,0,1-2.359,3.46,8.9,8.9,0,0,1-2.831.472,6.455,6.455,0,0,1-4.089-1.1A6.386,6.386,0,0,1,701.9,516.121Z" transform="translate(-701.9 -508.375)" fill="#179236"/>
        </g>
        <g id="Path_112-2_2_" transform="translate(59.38 28.127)">
          <path id="Path_152_2_" d="M704.3,508.3h6.763a4.35,4.35,0,0,1,2.516.786,2.536,2.536,0,0,1,.944,2.045,2.365,2.365,0,0,1-.629,1.73,3.426,3.426,0,0,1-1.258.786,2.918,2.918,0,0,1,1.887,1.1,3.373,3.373,0,0,1,.629,1.887,2.657,2.657,0,0,1-.472,1.573,3.674,3.674,0,0,1-1.1,1.1l-1.416.472c-.472,0-1.1.157-1.573.157H704.3V508.3Zm3.617,4.561h1.573a1.891,1.891,0,0,0,1.258-.315,1.14,1.14,0,0,0,0-1.573,2.913,2.913,0,0,0-1.1-.315h-1.573Zm0,4.561H709.8a1.694,1.694,0,0,0,1.258-.315.891.891,0,0,0,0-1.573,1.891,1.891,0,0,0-1.258-.315h-1.887Z" transform="translate(-704.3 -508.3)" fill="#179236"/>
        </g>
        <g id="Path_113-2_2_" transform="translate(27.157 41.875)">
          <path id="Path_153_2_" d="M697.7,511.1h2.516v6.291h4.089v2.045H697.7V511.1Z" transform="translate(-697.7 -511.1)" fill="#2a3079"/>
        </g>
        <g id="Path_114-2_2_" transform="translate(34.275 41.783)">
          <path id="Path_154_2_" d="M699.2,515.5a4.672,4.672,0,0,1,4.718-4.4,4.521,4.521,0,0,1,2.831,1.1,3.909,3.909,0,0,1,1.1,3.145,5.747,5.747,0,0,1-.472,2.359,3.086,3.086,0,0,1-1.416,1.416,6.133,6.133,0,0,1-4.718,0,3.441,3.441,0,0,1-1.573-1.416,5.021,5.021,0,0,1-.472-2.2Zm2.516,0a4.186,4.186,0,0,0,.472,1.887,1.754,1.754,0,0,0,2.516,0h0a4.353,4.353,0,0,0,.472-2.045,3.17,3.17,0,0,0-.472-1.73,1.054,1.054,0,0,0-1.258-.472,1.785,1.785,0,0,0-1.258.472A3.353,3.353,0,0,0,701.716,515.5Z" transform="translate(-699.2 -511.1)" fill="#2a3079"/>
        </g>
        <g id="Path_115-2_2_" transform="translate(43.312 42.032)">
          <path id="Path_155_2_" d="M706.976,518.12h-2.831l-.472,1.415H701l3.146-8.335h2.831l3.146,8.335h-2.674Zm-.472-1.887-.943-2.988-.944,2.988Z" transform="translate(-701 -511.2)" fill="#2a3079"/>
        </g>
        <g id="Path_116-2_2_" transform="translate(53.354 41.875)">
          <path id="Path_156_2_" d="M703.1,511.1h2.359l3.146,4.718V511.1h2.359v8.335H708.6l-3.146-4.561v4.561H703.1Z" transform="translate(-703.1 -511.1)" fill="#2a3079"/>
        </g>
        <g id="Path_117-2_2_" transform="translate(62.616 41.576)">
          <path id="Path_157_2_" d="M705,516.976l2.516-.157a1.552,1.552,0,0,0,1.573,1.416c.315,0,.472-.157.786-.315a.968.968,0,0,0,.157-1.1h0l-.157-.157a2.091,2.091,0,0,0-1.258-.472,4.132,4.132,0,0,1-2.359-1.1,1.936,1.936,0,0,1-.786-1.573,1.786,1.786,0,0,1,.472-1.258,2.114,2.114,0,0,1,1.1-.944,9.2,9.2,0,0,1,2.045-.314,4.1,4.1,0,0,1,2.359.629,2.242,2.242,0,0,1,.944,1.887l-2.359.157a1.122,1.122,0,0,0-1.258-1.1h0a.946.946,0,0,0-.629.157.578.578,0,0,0-.157.472c0,.157,0,.315.157.315.314.157.472.315.786.315a6.952,6.952,0,0,1,2.359.786,2.115,2.115,0,0,1,1.1.943,2.963,2.963,0,0,1,.315,1.258,3.034,3.034,0,0,1-.472,1.573,4.241,4.241,0,0,1-1.258,1.1,4.645,4.645,0,0,1-2.045.315,3.942,3.942,0,0,1-2.988-.786A2.769,2.769,0,0,1,705,516.976Z" transform="translate(-705 -511)" fill="#2a3079"/>
        </g>
        <g id="Path_118-2_2_" transform="translate(29.568 54.543)">
          <path id="Path_158_2_" d="M701.288,513.7h16.671v5.5H706.793l-.629,3.775a13.86,13.86,0,0,1,2.359-.786,10.623,10.623,0,0,1,2.2-.315,8.4,8.4,0,0,1,6.134,2.359,8.076,8.076,0,0,1,2.359,5.819,10.081,10.081,0,0,1-1.258,4.718,8.161,8.161,0,0,1-3.46,3.46,14.138,14.138,0,0,1-5.662,1.258,19.521,19.521,0,0,1-4.246-.472,10.427,10.427,0,0,1-2.988-1.415,12.567,12.567,0,0,1-2.045-2.045,10.047,10.047,0,0,1-1.258-2.988l7.077-.786a3.283,3.283,0,0,0,1.258,2.516,3.1,3.1,0,0,0,2.2.943,3.074,3.074,0,0,0,2.359-1.1,4.824,4.824,0,0,0,.944-3.3,5.069,5.069,0,0,0-.944-3.3,3.13,3.13,0,0,0-2.516-1.1,4.843,4.843,0,0,0-2.045.472,6.159,6.159,0,0,0-1.573,1.258l-5.976-.786Z" transform="translate(-698.3 -513.7)" fill="#f79910"/>
        </g>
        <g id="Path_119-2_2_" transform="translate(51.072 54.153)">
          <path id="Path_159_2_" d="M703.015,533.685l7.077-.786a2.671,2.671,0,0,0,2.516,2.674,2.907,2.907,0,0,0,2.674-1.73,20.214,20.214,0,0,0,1.1-5.347,9.6,9.6,0,0,1-2.516,1.887,10.172,10.172,0,0,1-3.146.629,7.476,7.476,0,0,1-5.662-2.359,8.551,8.551,0,0,1-2.359-6.134,9.48,9.48,0,0,1,1.258-4.561,9.085,9.085,0,0,1,3.3-3.146,11.854,11.854,0,0,1,5.19-1.1,11.1,11.1,0,0,1,5.976,1.258,9.156,9.156,0,0,1,3.617,4.089,20.135,20.135,0,0,1,1.416,7.549,14.713,14.713,0,0,1-2.831,9.908,10.1,10.1,0,0,1-7.864,3.146,12.4,12.4,0,0,1-4.718-.786,7.279,7.279,0,0,1-2.831-2.045A4.9,4.9,0,0,1,703.015,533.685Zm12.9-11.167a4.534,4.534,0,0,0-1.1-3.146,3.883,3.883,0,0,0-2.516-1.258,2.83,2.83,0,0,0-2.359,1.1,5.672,5.672,0,0,0-.943,3.146,4.419,4.419,0,0,0,.943,3.146,2.83,2.83,0,0,0,2.359,1.1,3.074,3.074,0,0,0,2.359-1.1A3.93,3.93,0,0,0,715.911,522.518Z" transform="translate(-702.7 -513.681)" fill="#f79910"/>
        </g>
        <g id="Path_120-2_2_" transform="translate(47.553 94.535)">
          <path id="Path_160_2_" d="M701.9,522.686a1.045,1.045,0,0,1,.629-.786h0a.72.72,0,0,1,.629.786.629.629,0,0,1-1.258,0Z" transform="translate(-701.9 -521.9)" fill="#179236"/>
        </g>
        <g id="Path_121-2_2_" transform="translate(49.135 90.676)">
          <path id="Path_161_2_" d="M706.6,526.447a5.589,5.589,0,0,1-1.573.315,2.88,2.88,0,0,1-2.831-2.516v-.314a2.69,2.69,0,0,1,2.674-2.831h.315a4.59,4.59,0,0,1,1.416.315l-.157.786a2.961,2.961,0,0,0-1.258-.315,1.991,1.991,0,0,0-1.887,2.2,1.817,1.817,0,0,0,1.887,1.887,3.7,3.7,0,0,0,1.258-.314Z" transform="translate(-702.2 -521.1)" fill="#179236"/>
        </g>
        <g id="Path_122-2_2_" transform="translate(53.847 90.632)">
          <path id="Path_162_2_" d="M708.553,523.931a2.626,2.626,0,0,1-2.359,2.831h-.315a2.621,2.621,0,0,1-2.674-2.516h0v-.314a2.625,2.625,0,0,1,2.359-2.831h.315a2.729,2.729,0,0,1,2.674,2.516h0Zm-4.4,0a1.7,1.7,0,1,0,3.3.786v-.786c0-.944-.472-2.045-1.573-2.045A1.817,1.817,0,0,0,704.149,523.931Z" transform="translate(-703.19 -521.1)" fill="#179236"/>
        </g>
        <g id="Path_123-2_2_" transform="translate(60.05 90.447)">
          <path id="Path_163_2_" d="M704.5,522.741v-1.573h.944v.786h0a1.584,1.584,0,0,1,1.73-.944,1.893,1.893,0,0,1,1.573,1.1h0a2.766,2.766,0,0,1,.629-.786,1.7,1.7,0,0,1,1.258-.314c.786,0,1.73.472,1.73,2.359v3.3h-.943v-3.146c0-1.1-.472-1.73-1.258-1.73a1.284,1.284,0,0,0-1.258,1.415h0v3.3h-.943v-3.3c0-.786-.472-1.573-1.1-1.573a1.37,1.37,0,0,0-1.258.944c0,.157-.157.314,0,.472v3.3h-.944Z" transform="translate(-704.5 -520.981)" fill="#179236"/>
        </g>
        <g id="Path_124-2_2_" transform="translate(28.898 82.203)">
          <path id="Path_164_2_" d="M698.1,519.4h2.359l.786,3.46.786-3.46h2.359v5.5h-1.416v-4.246l-1.1,4.246h-1.258l-1.1-4.246V524.9h-1.258Z" transform="translate(-698.1 -519.4)" fill="#2a3079"/>
        </g>
        <g id="Path_125-2_2_" transform="translate(36.328 82.203)">
          <path id="Path_165_2_" d="M699.6,519.4h1.73v5.5H699.6Z" transform="translate(-699.6 -519.4)" fill="#2a3079"/>
        </g>
        <g id="Path_126-2_2_" transform="translate(39.274 82.203)">
          <path id="Path_166_2_" d="M700.2,519.4h1.573l2.045,3.146V519.4h1.573v5.5h-1.573l-2.045-3.146V524.9H700.2Z" transform="translate(-700.2 -519.4)" fill="#2a3079"/>
        </g>
        <g id="Path_127-2_2_" transform="translate(45.563 82.202)">
          <path id="Path_167_2_" d="M705.332,519.4h1.73v3.3a1.994,1.994,0,0,1-.157.943,1.89,1.89,0,0,1-1.258,1.258,3.067,3.067,0,0,1-1.258.157h-.944c-.314,0-.472-.157-.786-.157a2.175,2.175,0,0,1-.629-.472c-.157-.157-.314-.472-.472-.629a2,2,0,0,1-.157-.944v-3.3h1.73v3.46a.944.944,0,1,0,1.887,0Z" transform="translate(-701.4 -519.4)" fill="#2a3079"/>
        </g>
        <g id="Path_128-2_2_" transform="translate(51.948 82.203)">
          <path id="Path_168_2_" d="M702.8,519.4h5.19v1.416h-1.73v4.246h-1.73v-4.246H702.8V519.4Z" transform="translate(-702.8 -519.4)" fill="#2a3079"/>
        </g>
        <g id="Path_129-2_2_" transform="translate(57.93 82.202)">
          <path id="Path_169_2_" d="M704,519.4h4.718v1.258h-2.831v.943h2.674v1.258h-2.674v1.1h2.988v1.258h-4.718V519.4Z" transform="translate(-704 -519.4)" fill="#2a3079"/>
        </g>
        <g id="Path_130-2_2_" transform="translate(63.263 81.962)">
          <path id="Path_170_2_" d="M705.1,523.256l1.573-.157a.946.946,0,0,0,.157.629c.157.315.472.315.786.315a.946.946,0,0,0,.629-.157.578.578,0,0,0,.157-.472c0-.157-.157-.315-.157-.472a2.235,2.235,0,0,0-.944-.315,4.708,4.708,0,0,1-1.573-.629,1.428,1.428,0,0,1-.472-1.1,1.2,1.2,0,0,1,.315-.786,1.571,1.571,0,0,1,.786-.629,2.22,2.22,0,0,1,1.415-.157,2.658,2.658,0,0,1,1.573.472,1.942,1.942,0,0,1,.629,1.258H708.4a.743.743,0,0,0-.786-.786h0a.578.578,0,0,0-.472.157c-.157.157-.157.315,0,.629h0c.157.157.315.157.629.157.629.157,1.1.315,1.573.472a2.765,2.765,0,0,1,.786.629,1.71,1.71,0,0,1,.157.786,2.234,2.234,0,0,1-.315.944,1.9,1.9,0,0,1-.786.786,4.59,4.59,0,0,1-1.416.315,4.842,4.842,0,0,1-2.044-.472A5.583,5.583,0,0,1,705.1,523.256Z" transform="translate(-705.1 -519.259)" fill="#2a3079"/>
        </g>
        <g id="Path_131-2_2_" transform="translate(20.797 53.936)">
          <path id="Path_171_2_" d="M696.4,513.6h1.573v5.19H696.4Z" transform="translate(-696.4 -513.6)" fill="#2a3079"/>
        </g>
        <g id="Path_132-2_2_" transform="translate(23.23 53.936)">
          <path id="Path_172_2_" d="M696.9,513.6h1.416l1.887,2.831V513.6h1.573v5.19H700.36l-1.887-2.831v2.831H696.9Z" transform="translate(-696.9 -513.6)" fill="#2a3079"/>
        </g>
      </g>
    </g>
    <text id="TM" transform="translate(-11748 -3749)" fill="#2a2a2a" font-size="9" font-family="Roboto-Medium, Roboto" font-weight="500"><tspan x="-13.342" y="0">TM</tspan></text>
  </g>
</svg>
